M48
; DRILL file {KiCad 5.1.5-52549c5~86~ubuntu18.04.1} date Sun 19 Apr 2020 01:33:29 BST
; FORMAT={-:-/ absolute / metric / decimal}
; #@! TF.CreationDate,2020-04-19T01:33:29+01:00
; #@! TF.GenerationSoftware,Kicad,Pcbnew,5.1.5-52549c5~86~ubuntu18.04.1
; #@! TF.FileFunction,Plated,1,2,PTH
FMAT,2
METRIC
T1C0.300
T2C0.400
T3C0.800
T4C1.000
T5C1.100
%
G90
G05
T1
X202.656Y-82.735
X202.656Y-83.685
X203.606Y-82.735
X203.606Y-83.685
X204.556Y-82.735
X204.556Y-83.685
T2
X206.908Y-87.3
X208.686Y-80.797
X226.035Y-101.702
T3
X195.072Y-68.656
X195.072Y-71.196
X195.072Y-73.736
X195.072Y-76.276
X195.072Y-78.816
X195.072Y-81.356
X195.072Y-83.896
X195.072Y-86.436
X195.072Y-90.496
X195.072Y-93.036
X195.072Y-95.576
X195.072Y-98.116
X195.072Y-100.656
X195.072Y-103.196
X195.072Y-105.736
X195.072Y-108.276
X195.072Y-110.816
X195.072Y-113.356
X243.332Y-68.656
X243.332Y-71.196
X243.332Y-73.736
X243.332Y-76.276
X243.332Y-78.816
X243.332Y-81.356
X243.332Y-86.436
X243.332Y-88.976
X243.332Y-91.516
X243.332Y-94.056
X243.332Y-96.596
X243.332Y-99.136
X243.332Y-101.676
X243.332Y-104.216
T4
X233.959Y-86.309
X233.959Y-88.849
X233.959Y-91.389
T5
X216.256Y-72.085
X218.796Y-72.085
X221.336Y-72.085
X234.163Y-72.085
X236.703Y-72.085
X201.041Y-72.085
X203.581Y-72.085
X206.121Y-72.085
T0
M30
