G04 #@! TF.GenerationSoftware,KiCad,Pcbnew,5.1.5-52549c5~86~ubuntu18.04.1*
G04 #@! TF.CreationDate,2020-04-19T01:33:55+01:00*
G04 #@! TF.ProjectId,scot-controller,73636f74-2d63-46f6-9e74-726f6c6c6572,rev?*
G04 #@! TF.SameCoordinates,Original*
G04 #@! TF.FileFunction,Legend,Bot*
G04 #@! TF.FilePolarity,Positive*
%FSLAX46Y46*%
G04 Gerber Fmt 4.6, Leading zero omitted, Abs format (unit mm)*
G04 Created by KiCad (PCBNEW 5.1.5-52549c5~86~ubuntu18.04.1) date 2020-04-19 01:33:55*
%MOMM*%
%LPD*%
G04 APERTURE LIST*
%ADD10C,0.120000*%
%ADD11C,0.150000*%
G04 APERTURE END LIST*
D10*
X205482000Y-65986200D02*
X208022000Y-63446200D01*
X194052000Y-65986200D02*
X205482000Y-65986200D01*
X192402000Y-67636200D02*
X194052000Y-65986200D01*
X192402000Y-132286200D02*
X192402000Y-67636200D01*
X201932000Y-132286200D02*
X192402000Y-132286200D01*
X201932000Y-138636200D02*
X201932000Y-132286200D01*
X213612000Y-138636200D02*
X201932000Y-138636200D01*
X213612000Y-132286200D02*
X213612000Y-138636200D01*
X233682000Y-132286200D02*
X213612000Y-132286200D01*
X233682000Y-134186200D02*
X233682000Y-132286200D01*
X242822000Y-134186200D02*
X233682000Y-134186200D01*
X242822000Y-132286200D02*
X242822000Y-134186200D01*
X246002000Y-132286200D02*
X242822000Y-132286200D01*
X246002000Y-65986200D02*
X246002000Y-132286200D01*
X243332000Y-65986200D02*
X246002000Y-65986200D01*
X240792000Y-63446200D02*
X243332000Y-65986200D01*
X208022000Y-63446200D02*
X240792000Y-63446200D01*
D11*
X247308666Y-102231914D02*
X247308666Y-102708104D01*
X247594380Y-102136676D02*
X246594380Y-102470009D01*
X247594380Y-102803342D01*
X246689619Y-103089057D02*
X246642000Y-103136676D01*
X246594380Y-103231914D01*
X246594380Y-103470009D01*
X246642000Y-103565247D01*
X246689619Y-103612866D01*
X246784857Y-103660485D01*
X246880095Y-103660485D01*
X247022952Y-103612866D01*
X247594380Y-103041438D01*
X247594380Y-103660485D01*
M02*
