G04 #@! TF.GenerationSoftware,KiCad,Pcbnew,5.1.5-52549c5~86~ubuntu18.04.1*
G04 #@! TF.CreationDate,2020-04-19T01:33:55+01:00*
G04 #@! TF.ProjectId,scot-controller,73636f74-2d63-46f6-9e74-726f6c6c6572,rev?*
G04 #@! TF.SameCoordinates,Original*
G04 #@! TF.FileFunction,Paste,Top*
G04 #@! TF.FilePolarity,Positive*
%FSLAX46Y46*%
G04 Gerber Fmt 4.6, Leading zero omitted, Abs format (unit mm)*
G04 Created by KiCad (PCBNEW 5.1.5-52549c5~86~ubuntu18.04.1) date 2020-04-19 01:33:55*
%MOMM*%
%LPD*%
G04 APERTURE LIST*
%ADD10C,0.100000*%
%ADD11R,3.102000X2.402000*%
%ADD12R,0.600000X1.550000*%
%ADD13R,1.500000X2.000000*%
%ADD14R,3.800000X2.000000*%
G04 APERTURE END LIST*
D10*
G36*
X218826979Y-91093144D02*
G01*
X218850034Y-91096563D01*
X218872643Y-91102227D01*
X218894587Y-91110079D01*
X218915657Y-91120044D01*
X218935648Y-91132026D01*
X218954368Y-91145910D01*
X218971638Y-91161562D01*
X218987290Y-91178832D01*
X219001174Y-91197552D01*
X219013156Y-91217543D01*
X219023121Y-91238613D01*
X219030973Y-91260557D01*
X219036637Y-91283166D01*
X219040056Y-91306221D01*
X219041200Y-91329500D01*
X219041200Y-91804500D01*
X219040056Y-91827779D01*
X219036637Y-91850834D01*
X219030973Y-91873443D01*
X219023121Y-91895387D01*
X219013156Y-91916457D01*
X219001174Y-91936448D01*
X218987290Y-91955168D01*
X218971638Y-91972438D01*
X218954368Y-91988090D01*
X218935648Y-92001974D01*
X218915657Y-92013956D01*
X218894587Y-92023921D01*
X218872643Y-92031773D01*
X218850034Y-92037437D01*
X218826979Y-92040856D01*
X218803700Y-92042000D01*
X218228700Y-92042000D01*
X218205421Y-92040856D01*
X218182366Y-92037437D01*
X218159757Y-92031773D01*
X218137813Y-92023921D01*
X218116743Y-92013956D01*
X218096752Y-92001974D01*
X218078032Y-91988090D01*
X218060762Y-91972438D01*
X218045110Y-91955168D01*
X218031226Y-91936448D01*
X218019244Y-91916457D01*
X218009279Y-91895387D01*
X218001427Y-91873443D01*
X217995763Y-91850834D01*
X217992344Y-91827779D01*
X217991200Y-91804500D01*
X217991200Y-91329500D01*
X217992344Y-91306221D01*
X217995763Y-91283166D01*
X218001427Y-91260557D01*
X218009279Y-91238613D01*
X218019244Y-91217543D01*
X218031226Y-91197552D01*
X218045110Y-91178832D01*
X218060762Y-91161562D01*
X218078032Y-91145910D01*
X218096752Y-91132026D01*
X218116743Y-91120044D01*
X218137813Y-91110079D01*
X218159757Y-91102227D01*
X218182366Y-91096563D01*
X218205421Y-91093144D01*
X218228700Y-91092000D01*
X218803700Y-91092000D01*
X218826979Y-91093144D01*
G37*
G36*
X220576979Y-91093144D02*
G01*
X220600034Y-91096563D01*
X220622643Y-91102227D01*
X220644587Y-91110079D01*
X220665657Y-91120044D01*
X220685648Y-91132026D01*
X220704368Y-91145910D01*
X220721638Y-91161562D01*
X220737290Y-91178832D01*
X220751174Y-91197552D01*
X220763156Y-91217543D01*
X220773121Y-91238613D01*
X220780973Y-91260557D01*
X220786637Y-91283166D01*
X220790056Y-91306221D01*
X220791200Y-91329500D01*
X220791200Y-91804500D01*
X220790056Y-91827779D01*
X220786637Y-91850834D01*
X220780973Y-91873443D01*
X220773121Y-91895387D01*
X220763156Y-91916457D01*
X220751174Y-91936448D01*
X220737290Y-91955168D01*
X220721638Y-91972438D01*
X220704368Y-91988090D01*
X220685648Y-92001974D01*
X220665657Y-92013956D01*
X220644587Y-92023921D01*
X220622643Y-92031773D01*
X220600034Y-92037437D01*
X220576979Y-92040856D01*
X220553700Y-92042000D01*
X219978700Y-92042000D01*
X219955421Y-92040856D01*
X219932366Y-92037437D01*
X219909757Y-92031773D01*
X219887813Y-92023921D01*
X219866743Y-92013956D01*
X219846752Y-92001974D01*
X219828032Y-91988090D01*
X219810762Y-91972438D01*
X219795110Y-91955168D01*
X219781226Y-91936448D01*
X219769244Y-91916457D01*
X219759279Y-91895387D01*
X219751427Y-91873443D01*
X219745763Y-91850834D01*
X219742344Y-91827779D01*
X219741200Y-91804500D01*
X219741200Y-91329500D01*
X219742344Y-91306221D01*
X219745763Y-91283166D01*
X219751427Y-91260557D01*
X219759279Y-91238613D01*
X219769244Y-91217543D01*
X219781226Y-91197552D01*
X219795110Y-91178832D01*
X219810762Y-91161562D01*
X219828032Y-91145910D01*
X219846752Y-91132026D01*
X219866743Y-91120044D01*
X219887813Y-91110079D01*
X219909757Y-91102227D01*
X219932366Y-91096563D01*
X219955421Y-91093144D01*
X219978700Y-91092000D01*
X220553700Y-91092000D01*
X220576979Y-91093144D01*
G37*
D11*
X203606400Y-83210400D03*
D12*
X201701400Y-80510400D03*
X202971400Y-80510400D03*
X204241400Y-80510400D03*
X205511400Y-80510400D03*
X205511400Y-85910400D03*
X204241400Y-85910400D03*
X202971400Y-85910400D03*
X201701400Y-85910400D03*
D13*
X220028800Y-93649000D03*
X215428800Y-93649000D03*
X217728800Y-93649000D03*
D14*
X217728800Y-99949000D03*
D10*
G36*
X211929505Y-71493404D02*
G01*
X211953773Y-71497004D01*
X211977572Y-71502965D01*
X212000671Y-71511230D01*
X212022850Y-71521720D01*
X212043893Y-71534332D01*
X212063599Y-71548947D01*
X212081777Y-71565423D01*
X212098253Y-71583601D01*
X212112868Y-71603307D01*
X212125480Y-71624350D01*
X212135970Y-71646529D01*
X212144235Y-71669628D01*
X212150196Y-71693427D01*
X212153796Y-71717695D01*
X212155000Y-71742199D01*
X212155000Y-72392201D01*
X212153796Y-72416705D01*
X212150196Y-72440973D01*
X212144235Y-72464772D01*
X212135970Y-72487871D01*
X212125480Y-72510050D01*
X212112868Y-72531093D01*
X212098253Y-72550799D01*
X212081777Y-72568977D01*
X212063599Y-72585453D01*
X212043893Y-72600068D01*
X212022850Y-72612680D01*
X212000671Y-72623170D01*
X211977572Y-72631435D01*
X211953773Y-72637396D01*
X211929505Y-72640996D01*
X211905001Y-72642200D01*
X211004999Y-72642200D01*
X210980495Y-72640996D01*
X210956227Y-72637396D01*
X210932428Y-72631435D01*
X210909329Y-72623170D01*
X210887150Y-72612680D01*
X210866107Y-72600068D01*
X210846401Y-72585453D01*
X210828223Y-72568977D01*
X210811747Y-72550799D01*
X210797132Y-72531093D01*
X210784520Y-72510050D01*
X210774030Y-72487871D01*
X210765765Y-72464772D01*
X210759804Y-72440973D01*
X210756204Y-72416705D01*
X210755000Y-72392201D01*
X210755000Y-71742199D01*
X210756204Y-71717695D01*
X210759804Y-71693427D01*
X210765765Y-71669628D01*
X210774030Y-71646529D01*
X210784520Y-71624350D01*
X210797132Y-71603307D01*
X210811747Y-71583601D01*
X210828223Y-71565423D01*
X210846401Y-71548947D01*
X210866107Y-71534332D01*
X210887150Y-71521720D01*
X210909329Y-71511230D01*
X210932428Y-71502965D01*
X210956227Y-71497004D01*
X210980495Y-71493404D01*
X211004999Y-71492200D01*
X211905001Y-71492200D01*
X211929505Y-71493404D01*
G37*
G36*
X211929505Y-73543404D02*
G01*
X211953773Y-73547004D01*
X211977572Y-73552965D01*
X212000671Y-73561230D01*
X212022850Y-73571720D01*
X212043893Y-73584332D01*
X212063599Y-73598947D01*
X212081777Y-73615423D01*
X212098253Y-73633601D01*
X212112868Y-73653307D01*
X212125480Y-73674350D01*
X212135970Y-73696529D01*
X212144235Y-73719628D01*
X212150196Y-73743427D01*
X212153796Y-73767695D01*
X212155000Y-73792199D01*
X212155000Y-74442201D01*
X212153796Y-74466705D01*
X212150196Y-74490973D01*
X212144235Y-74514772D01*
X212135970Y-74537871D01*
X212125480Y-74560050D01*
X212112868Y-74581093D01*
X212098253Y-74600799D01*
X212081777Y-74618977D01*
X212063599Y-74635453D01*
X212043893Y-74650068D01*
X212022850Y-74662680D01*
X212000671Y-74673170D01*
X211977572Y-74681435D01*
X211953773Y-74687396D01*
X211929505Y-74690996D01*
X211905001Y-74692200D01*
X211004999Y-74692200D01*
X210980495Y-74690996D01*
X210956227Y-74687396D01*
X210932428Y-74681435D01*
X210909329Y-74673170D01*
X210887150Y-74662680D01*
X210866107Y-74650068D01*
X210846401Y-74635453D01*
X210828223Y-74618977D01*
X210811747Y-74600799D01*
X210797132Y-74581093D01*
X210784520Y-74560050D01*
X210774030Y-74537871D01*
X210765765Y-74514772D01*
X210759804Y-74490973D01*
X210756204Y-74466705D01*
X210755000Y-74442201D01*
X210755000Y-73792199D01*
X210756204Y-73767695D01*
X210759804Y-73743427D01*
X210765765Y-73719628D01*
X210774030Y-73696529D01*
X210784520Y-73674350D01*
X210797132Y-73653307D01*
X210811747Y-73633601D01*
X210828223Y-73615423D01*
X210846401Y-73598947D01*
X210866107Y-73584332D01*
X210887150Y-73571720D01*
X210909329Y-73561230D01*
X210932428Y-73552965D01*
X210956227Y-73547004D01*
X210980495Y-73543404D01*
X211004999Y-73542200D01*
X211905001Y-73542200D01*
X211929505Y-73543404D01*
G37*
G36*
X231081105Y-95403804D02*
G01*
X231105373Y-95407404D01*
X231129172Y-95413365D01*
X231152271Y-95421630D01*
X231174450Y-95432120D01*
X231195493Y-95444732D01*
X231215199Y-95459347D01*
X231233377Y-95475823D01*
X231249853Y-95494001D01*
X231264468Y-95513707D01*
X231277080Y-95534750D01*
X231287570Y-95556929D01*
X231295835Y-95580028D01*
X231301796Y-95603827D01*
X231305396Y-95628095D01*
X231306600Y-95652599D01*
X231306600Y-96302601D01*
X231305396Y-96327105D01*
X231301796Y-96351373D01*
X231295835Y-96375172D01*
X231287570Y-96398271D01*
X231277080Y-96420450D01*
X231264468Y-96441493D01*
X231249853Y-96461199D01*
X231233377Y-96479377D01*
X231215199Y-96495853D01*
X231195493Y-96510468D01*
X231174450Y-96523080D01*
X231152271Y-96533570D01*
X231129172Y-96541835D01*
X231105373Y-96547796D01*
X231081105Y-96551396D01*
X231056601Y-96552600D01*
X230156599Y-96552600D01*
X230132095Y-96551396D01*
X230107827Y-96547796D01*
X230084028Y-96541835D01*
X230060929Y-96533570D01*
X230038750Y-96523080D01*
X230017707Y-96510468D01*
X229998001Y-96495853D01*
X229979823Y-96479377D01*
X229963347Y-96461199D01*
X229948732Y-96441493D01*
X229936120Y-96420450D01*
X229925630Y-96398271D01*
X229917365Y-96375172D01*
X229911404Y-96351373D01*
X229907804Y-96327105D01*
X229906600Y-96302601D01*
X229906600Y-95652599D01*
X229907804Y-95628095D01*
X229911404Y-95603827D01*
X229917365Y-95580028D01*
X229925630Y-95556929D01*
X229936120Y-95534750D01*
X229948732Y-95513707D01*
X229963347Y-95494001D01*
X229979823Y-95475823D01*
X229998001Y-95459347D01*
X230017707Y-95444732D01*
X230038750Y-95432120D01*
X230060929Y-95421630D01*
X230084028Y-95413365D01*
X230107827Y-95407404D01*
X230132095Y-95403804D01*
X230156599Y-95402600D01*
X231056601Y-95402600D01*
X231081105Y-95403804D01*
G37*
G36*
X231081105Y-97453804D02*
G01*
X231105373Y-97457404D01*
X231129172Y-97463365D01*
X231152271Y-97471630D01*
X231174450Y-97482120D01*
X231195493Y-97494732D01*
X231215199Y-97509347D01*
X231233377Y-97525823D01*
X231249853Y-97544001D01*
X231264468Y-97563707D01*
X231277080Y-97584750D01*
X231287570Y-97606929D01*
X231295835Y-97630028D01*
X231301796Y-97653827D01*
X231305396Y-97678095D01*
X231306600Y-97702599D01*
X231306600Y-98352601D01*
X231305396Y-98377105D01*
X231301796Y-98401373D01*
X231295835Y-98425172D01*
X231287570Y-98448271D01*
X231277080Y-98470450D01*
X231264468Y-98491493D01*
X231249853Y-98511199D01*
X231233377Y-98529377D01*
X231215199Y-98545853D01*
X231195493Y-98560468D01*
X231174450Y-98573080D01*
X231152271Y-98583570D01*
X231129172Y-98591835D01*
X231105373Y-98597796D01*
X231081105Y-98601396D01*
X231056601Y-98602600D01*
X230156599Y-98602600D01*
X230132095Y-98601396D01*
X230107827Y-98597796D01*
X230084028Y-98591835D01*
X230060929Y-98583570D01*
X230038750Y-98573080D01*
X230017707Y-98560468D01*
X229998001Y-98545853D01*
X229979823Y-98529377D01*
X229963347Y-98511199D01*
X229948732Y-98491493D01*
X229936120Y-98470450D01*
X229925630Y-98448271D01*
X229917365Y-98425172D01*
X229911404Y-98401373D01*
X229907804Y-98377105D01*
X229906600Y-98352601D01*
X229906600Y-97702599D01*
X229907804Y-97678095D01*
X229911404Y-97653827D01*
X229917365Y-97630028D01*
X229925630Y-97606929D01*
X229936120Y-97584750D01*
X229948732Y-97563707D01*
X229963347Y-97544001D01*
X229979823Y-97525823D01*
X229998001Y-97509347D01*
X230017707Y-97494732D01*
X230038750Y-97482120D01*
X230060929Y-97471630D01*
X230084028Y-97463365D01*
X230107827Y-97457404D01*
X230132095Y-97453804D01*
X230156599Y-97452600D01*
X231056601Y-97452600D01*
X231081105Y-97453804D01*
G37*
G36*
X204997305Y-88810804D02*
G01*
X205021573Y-88814404D01*
X205045372Y-88820365D01*
X205068471Y-88828630D01*
X205090650Y-88839120D01*
X205111693Y-88851732D01*
X205131399Y-88866347D01*
X205149577Y-88882823D01*
X205166053Y-88901001D01*
X205180668Y-88920707D01*
X205193280Y-88941750D01*
X205203770Y-88963929D01*
X205212035Y-88987028D01*
X205217996Y-89010827D01*
X205221596Y-89035095D01*
X205222800Y-89059599D01*
X205222800Y-89959601D01*
X205221596Y-89984105D01*
X205217996Y-90008373D01*
X205212035Y-90032172D01*
X205203770Y-90055271D01*
X205193280Y-90077450D01*
X205180668Y-90098493D01*
X205166053Y-90118199D01*
X205149577Y-90136377D01*
X205131399Y-90152853D01*
X205111693Y-90167468D01*
X205090650Y-90180080D01*
X205068471Y-90190570D01*
X205045372Y-90198835D01*
X205021573Y-90204796D01*
X204997305Y-90208396D01*
X204972801Y-90209600D01*
X204322799Y-90209600D01*
X204298295Y-90208396D01*
X204274027Y-90204796D01*
X204250228Y-90198835D01*
X204227129Y-90190570D01*
X204204950Y-90180080D01*
X204183907Y-90167468D01*
X204164201Y-90152853D01*
X204146023Y-90136377D01*
X204129547Y-90118199D01*
X204114932Y-90098493D01*
X204102320Y-90077450D01*
X204091830Y-90055271D01*
X204083565Y-90032172D01*
X204077604Y-90008373D01*
X204074004Y-89984105D01*
X204072800Y-89959601D01*
X204072800Y-89059599D01*
X204074004Y-89035095D01*
X204077604Y-89010827D01*
X204083565Y-88987028D01*
X204091830Y-88963929D01*
X204102320Y-88941750D01*
X204114932Y-88920707D01*
X204129547Y-88901001D01*
X204146023Y-88882823D01*
X204164201Y-88866347D01*
X204183907Y-88851732D01*
X204204950Y-88839120D01*
X204227129Y-88828630D01*
X204250228Y-88820365D01*
X204274027Y-88814404D01*
X204298295Y-88810804D01*
X204322799Y-88809600D01*
X204972801Y-88809600D01*
X204997305Y-88810804D01*
G37*
G36*
X202947305Y-88810804D02*
G01*
X202971573Y-88814404D01*
X202995372Y-88820365D01*
X203018471Y-88828630D01*
X203040650Y-88839120D01*
X203061693Y-88851732D01*
X203081399Y-88866347D01*
X203099577Y-88882823D01*
X203116053Y-88901001D01*
X203130668Y-88920707D01*
X203143280Y-88941750D01*
X203153770Y-88963929D01*
X203162035Y-88987028D01*
X203167996Y-89010827D01*
X203171596Y-89035095D01*
X203172800Y-89059599D01*
X203172800Y-89959601D01*
X203171596Y-89984105D01*
X203167996Y-90008373D01*
X203162035Y-90032172D01*
X203153770Y-90055271D01*
X203143280Y-90077450D01*
X203130668Y-90098493D01*
X203116053Y-90118199D01*
X203099577Y-90136377D01*
X203081399Y-90152853D01*
X203061693Y-90167468D01*
X203040650Y-90180080D01*
X203018471Y-90190570D01*
X202995372Y-90198835D01*
X202971573Y-90204796D01*
X202947305Y-90208396D01*
X202922801Y-90209600D01*
X202272799Y-90209600D01*
X202248295Y-90208396D01*
X202224027Y-90204796D01*
X202200228Y-90198835D01*
X202177129Y-90190570D01*
X202154950Y-90180080D01*
X202133907Y-90167468D01*
X202114201Y-90152853D01*
X202096023Y-90136377D01*
X202079547Y-90118199D01*
X202064932Y-90098493D01*
X202052320Y-90077450D01*
X202041830Y-90055271D01*
X202033565Y-90032172D01*
X202027604Y-90008373D01*
X202024004Y-89984105D01*
X202022800Y-89959601D01*
X202022800Y-89059599D01*
X202024004Y-89035095D01*
X202027604Y-89010827D01*
X202033565Y-88987028D01*
X202041830Y-88963929D01*
X202052320Y-88941750D01*
X202064932Y-88920707D01*
X202079547Y-88901001D01*
X202096023Y-88882823D01*
X202114201Y-88866347D01*
X202133907Y-88851732D01*
X202154950Y-88839120D01*
X202177129Y-88828630D01*
X202200228Y-88820365D01*
X202224027Y-88814404D01*
X202248295Y-88810804D01*
X202272799Y-88809600D01*
X202922801Y-88809600D01*
X202947305Y-88810804D01*
G37*
G36*
X204806179Y-87283144D02*
G01*
X204829234Y-87286563D01*
X204851843Y-87292227D01*
X204873787Y-87300079D01*
X204894857Y-87310044D01*
X204914848Y-87322026D01*
X204933568Y-87335910D01*
X204950838Y-87351562D01*
X204966490Y-87368832D01*
X204980374Y-87387552D01*
X204992356Y-87407543D01*
X205002321Y-87428613D01*
X205010173Y-87450557D01*
X205015837Y-87473166D01*
X205019256Y-87496221D01*
X205020400Y-87519500D01*
X205020400Y-87994500D01*
X205019256Y-88017779D01*
X205015837Y-88040834D01*
X205010173Y-88063443D01*
X205002321Y-88085387D01*
X204992356Y-88106457D01*
X204980374Y-88126448D01*
X204966490Y-88145168D01*
X204950838Y-88162438D01*
X204933568Y-88178090D01*
X204914848Y-88191974D01*
X204894857Y-88203956D01*
X204873787Y-88213921D01*
X204851843Y-88221773D01*
X204829234Y-88227437D01*
X204806179Y-88230856D01*
X204782900Y-88232000D01*
X204207900Y-88232000D01*
X204184621Y-88230856D01*
X204161566Y-88227437D01*
X204138957Y-88221773D01*
X204117013Y-88213921D01*
X204095943Y-88203956D01*
X204075952Y-88191974D01*
X204057232Y-88178090D01*
X204039962Y-88162438D01*
X204024310Y-88145168D01*
X204010426Y-88126448D01*
X203998444Y-88106457D01*
X203988479Y-88085387D01*
X203980627Y-88063443D01*
X203974963Y-88040834D01*
X203971544Y-88017779D01*
X203970400Y-87994500D01*
X203970400Y-87519500D01*
X203971544Y-87496221D01*
X203974963Y-87473166D01*
X203980627Y-87450557D01*
X203988479Y-87428613D01*
X203998444Y-87407543D01*
X204010426Y-87387552D01*
X204024310Y-87368832D01*
X204039962Y-87351562D01*
X204057232Y-87335910D01*
X204075952Y-87322026D01*
X204095943Y-87310044D01*
X204117013Y-87300079D01*
X204138957Y-87292227D01*
X204161566Y-87286563D01*
X204184621Y-87283144D01*
X204207900Y-87282000D01*
X204782900Y-87282000D01*
X204806179Y-87283144D01*
G37*
G36*
X203056179Y-87283144D02*
G01*
X203079234Y-87286563D01*
X203101843Y-87292227D01*
X203123787Y-87300079D01*
X203144857Y-87310044D01*
X203164848Y-87322026D01*
X203183568Y-87335910D01*
X203200838Y-87351562D01*
X203216490Y-87368832D01*
X203230374Y-87387552D01*
X203242356Y-87407543D01*
X203252321Y-87428613D01*
X203260173Y-87450557D01*
X203265837Y-87473166D01*
X203269256Y-87496221D01*
X203270400Y-87519500D01*
X203270400Y-87994500D01*
X203269256Y-88017779D01*
X203265837Y-88040834D01*
X203260173Y-88063443D01*
X203252321Y-88085387D01*
X203242356Y-88106457D01*
X203230374Y-88126448D01*
X203216490Y-88145168D01*
X203200838Y-88162438D01*
X203183568Y-88178090D01*
X203164848Y-88191974D01*
X203144857Y-88203956D01*
X203123787Y-88213921D01*
X203101843Y-88221773D01*
X203079234Y-88227437D01*
X203056179Y-88230856D01*
X203032900Y-88232000D01*
X202457900Y-88232000D01*
X202434621Y-88230856D01*
X202411566Y-88227437D01*
X202388957Y-88221773D01*
X202367013Y-88213921D01*
X202345943Y-88203956D01*
X202325952Y-88191974D01*
X202307232Y-88178090D01*
X202289962Y-88162438D01*
X202274310Y-88145168D01*
X202260426Y-88126448D01*
X202248444Y-88106457D01*
X202238479Y-88085387D01*
X202230627Y-88063443D01*
X202224963Y-88040834D01*
X202221544Y-88017779D01*
X202220400Y-87994500D01*
X202220400Y-87519500D01*
X202221544Y-87496221D01*
X202224963Y-87473166D01*
X202230627Y-87450557D01*
X202238479Y-87428613D01*
X202248444Y-87407543D01*
X202260426Y-87387552D01*
X202274310Y-87368832D01*
X202289962Y-87351562D01*
X202307232Y-87335910D01*
X202325952Y-87322026D01*
X202345943Y-87310044D01*
X202367013Y-87300079D01*
X202388957Y-87292227D01*
X202411566Y-87286563D01*
X202434621Y-87283144D01*
X202457900Y-87282000D01*
X203032900Y-87282000D01*
X203056179Y-87283144D01*
G37*
G36*
X207423179Y-80276144D02*
G01*
X207446234Y-80279563D01*
X207468843Y-80285227D01*
X207490787Y-80293079D01*
X207511857Y-80303044D01*
X207531848Y-80315026D01*
X207550568Y-80328910D01*
X207567838Y-80344562D01*
X207583490Y-80361832D01*
X207597374Y-80380552D01*
X207609356Y-80400543D01*
X207619321Y-80421613D01*
X207627173Y-80443557D01*
X207632837Y-80466166D01*
X207636256Y-80489221D01*
X207637400Y-80512500D01*
X207637400Y-81087500D01*
X207636256Y-81110779D01*
X207632837Y-81133834D01*
X207627173Y-81156443D01*
X207619321Y-81178387D01*
X207609356Y-81199457D01*
X207597374Y-81219448D01*
X207583490Y-81238168D01*
X207567838Y-81255438D01*
X207550568Y-81271090D01*
X207531848Y-81284974D01*
X207511857Y-81296956D01*
X207490787Y-81306921D01*
X207468843Y-81314773D01*
X207446234Y-81320437D01*
X207423179Y-81323856D01*
X207399900Y-81325000D01*
X206924900Y-81325000D01*
X206901621Y-81323856D01*
X206878566Y-81320437D01*
X206855957Y-81314773D01*
X206834013Y-81306921D01*
X206812943Y-81296956D01*
X206792952Y-81284974D01*
X206774232Y-81271090D01*
X206756962Y-81255438D01*
X206741310Y-81238168D01*
X206727426Y-81219448D01*
X206715444Y-81199457D01*
X206705479Y-81178387D01*
X206697627Y-81156443D01*
X206691963Y-81133834D01*
X206688544Y-81110779D01*
X206687400Y-81087500D01*
X206687400Y-80512500D01*
X206688544Y-80489221D01*
X206691963Y-80466166D01*
X206697627Y-80443557D01*
X206705479Y-80421613D01*
X206715444Y-80400543D01*
X206727426Y-80380552D01*
X206741310Y-80361832D01*
X206756962Y-80344562D01*
X206774232Y-80328910D01*
X206792952Y-80315026D01*
X206812943Y-80303044D01*
X206834013Y-80293079D01*
X206855957Y-80285227D01*
X206878566Y-80279563D01*
X206901621Y-80276144D01*
X206924900Y-80275000D01*
X207399900Y-80275000D01*
X207423179Y-80276144D01*
G37*
G36*
X207423179Y-82026144D02*
G01*
X207446234Y-82029563D01*
X207468843Y-82035227D01*
X207490787Y-82043079D01*
X207511857Y-82053044D01*
X207531848Y-82065026D01*
X207550568Y-82078910D01*
X207567838Y-82094562D01*
X207583490Y-82111832D01*
X207597374Y-82130552D01*
X207609356Y-82150543D01*
X207619321Y-82171613D01*
X207627173Y-82193557D01*
X207632837Y-82216166D01*
X207636256Y-82239221D01*
X207637400Y-82262500D01*
X207637400Y-82837500D01*
X207636256Y-82860779D01*
X207632837Y-82883834D01*
X207627173Y-82906443D01*
X207619321Y-82928387D01*
X207609356Y-82949457D01*
X207597374Y-82969448D01*
X207583490Y-82988168D01*
X207567838Y-83005438D01*
X207550568Y-83021090D01*
X207531848Y-83034974D01*
X207511857Y-83046956D01*
X207490787Y-83056921D01*
X207468843Y-83064773D01*
X207446234Y-83070437D01*
X207423179Y-83073856D01*
X207399900Y-83075000D01*
X206924900Y-83075000D01*
X206901621Y-83073856D01*
X206878566Y-83070437D01*
X206855957Y-83064773D01*
X206834013Y-83056921D01*
X206812943Y-83046956D01*
X206792952Y-83034974D01*
X206774232Y-83021090D01*
X206756962Y-83005438D01*
X206741310Y-82988168D01*
X206727426Y-82969448D01*
X206715444Y-82949457D01*
X206705479Y-82928387D01*
X206697627Y-82906443D01*
X206691963Y-82883834D01*
X206688544Y-82860779D01*
X206687400Y-82837500D01*
X206687400Y-82262500D01*
X206688544Y-82239221D01*
X206691963Y-82216166D01*
X206697627Y-82193557D01*
X206705479Y-82171613D01*
X206715444Y-82150543D01*
X206727426Y-82130552D01*
X206741310Y-82111832D01*
X206756962Y-82094562D01*
X206774232Y-82078910D01*
X206792952Y-82065026D01*
X206812943Y-82053044D01*
X206834013Y-82043079D01*
X206855957Y-82035227D01*
X206878566Y-82029563D01*
X206901621Y-82026144D01*
X206924900Y-82025000D01*
X207399900Y-82025000D01*
X207423179Y-82026144D01*
G37*
G36*
X217201379Y-91093144D02*
G01*
X217224434Y-91096563D01*
X217247043Y-91102227D01*
X217268987Y-91110079D01*
X217290057Y-91120044D01*
X217310048Y-91132026D01*
X217328768Y-91145910D01*
X217346038Y-91161562D01*
X217361690Y-91178832D01*
X217375574Y-91197552D01*
X217387556Y-91217543D01*
X217397521Y-91238613D01*
X217405373Y-91260557D01*
X217411037Y-91283166D01*
X217414456Y-91306221D01*
X217415600Y-91329500D01*
X217415600Y-91804500D01*
X217414456Y-91827779D01*
X217411037Y-91850834D01*
X217405373Y-91873443D01*
X217397521Y-91895387D01*
X217387556Y-91916457D01*
X217375574Y-91936448D01*
X217361690Y-91955168D01*
X217346038Y-91972438D01*
X217328768Y-91988090D01*
X217310048Y-92001974D01*
X217290057Y-92013956D01*
X217268987Y-92023921D01*
X217247043Y-92031773D01*
X217224434Y-92037437D01*
X217201379Y-92040856D01*
X217178100Y-92042000D01*
X216603100Y-92042000D01*
X216579821Y-92040856D01*
X216556766Y-92037437D01*
X216534157Y-92031773D01*
X216512213Y-92023921D01*
X216491143Y-92013956D01*
X216471152Y-92001974D01*
X216452432Y-91988090D01*
X216435162Y-91972438D01*
X216419510Y-91955168D01*
X216405626Y-91936448D01*
X216393644Y-91916457D01*
X216383679Y-91895387D01*
X216375827Y-91873443D01*
X216370163Y-91850834D01*
X216366744Y-91827779D01*
X216365600Y-91804500D01*
X216365600Y-91329500D01*
X216366744Y-91306221D01*
X216370163Y-91283166D01*
X216375827Y-91260557D01*
X216383679Y-91238613D01*
X216393644Y-91217543D01*
X216405626Y-91197552D01*
X216419510Y-91178832D01*
X216435162Y-91161562D01*
X216452432Y-91145910D01*
X216471152Y-91132026D01*
X216491143Y-91120044D01*
X216512213Y-91110079D01*
X216534157Y-91102227D01*
X216556766Y-91096563D01*
X216579821Y-91093144D01*
X216603100Y-91092000D01*
X217178100Y-91092000D01*
X217201379Y-91093144D01*
G37*
G36*
X215451379Y-91093144D02*
G01*
X215474434Y-91096563D01*
X215497043Y-91102227D01*
X215518987Y-91110079D01*
X215540057Y-91120044D01*
X215560048Y-91132026D01*
X215578768Y-91145910D01*
X215596038Y-91161562D01*
X215611690Y-91178832D01*
X215625574Y-91197552D01*
X215637556Y-91217543D01*
X215647521Y-91238613D01*
X215655373Y-91260557D01*
X215661037Y-91283166D01*
X215664456Y-91306221D01*
X215665600Y-91329500D01*
X215665600Y-91804500D01*
X215664456Y-91827779D01*
X215661037Y-91850834D01*
X215655373Y-91873443D01*
X215647521Y-91895387D01*
X215637556Y-91916457D01*
X215625574Y-91936448D01*
X215611690Y-91955168D01*
X215596038Y-91972438D01*
X215578768Y-91988090D01*
X215560048Y-92001974D01*
X215540057Y-92013956D01*
X215518987Y-92023921D01*
X215497043Y-92031773D01*
X215474434Y-92037437D01*
X215451379Y-92040856D01*
X215428100Y-92042000D01*
X214853100Y-92042000D01*
X214829821Y-92040856D01*
X214806766Y-92037437D01*
X214784157Y-92031773D01*
X214762213Y-92023921D01*
X214741143Y-92013956D01*
X214721152Y-92001974D01*
X214702432Y-91988090D01*
X214685162Y-91972438D01*
X214669510Y-91955168D01*
X214655626Y-91936448D01*
X214643644Y-91916457D01*
X214633679Y-91895387D01*
X214625827Y-91873443D01*
X214620163Y-91850834D01*
X214616744Y-91827779D01*
X214615600Y-91804500D01*
X214615600Y-91329500D01*
X214616744Y-91306221D01*
X214620163Y-91283166D01*
X214625827Y-91260557D01*
X214633679Y-91238613D01*
X214643644Y-91217543D01*
X214655626Y-91197552D01*
X214669510Y-91178832D01*
X214685162Y-91161562D01*
X214702432Y-91145910D01*
X214721152Y-91132026D01*
X214741143Y-91120044D01*
X214762213Y-91110079D01*
X214784157Y-91102227D01*
X214806766Y-91096563D01*
X214829821Y-91093144D01*
X214853100Y-91092000D01*
X215428100Y-91092000D01*
X215451379Y-91093144D01*
G37*
G36*
X237405705Y-95412804D02*
G01*
X237429973Y-95416404D01*
X237453772Y-95422365D01*
X237476871Y-95430630D01*
X237499050Y-95441120D01*
X237520093Y-95453732D01*
X237539799Y-95468347D01*
X237557977Y-95484823D01*
X237574453Y-95503001D01*
X237589068Y-95522707D01*
X237601680Y-95543750D01*
X237612170Y-95565929D01*
X237620435Y-95589028D01*
X237626396Y-95612827D01*
X237629996Y-95637095D01*
X237631200Y-95661599D01*
X237631200Y-96311601D01*
X237629996Y-96336105D01*
X237626396Y-96360373D01*
X237620435Y-96384172D01*
X237612170Y-96407271D01*
X237601680Y-96429450D01*
X237589068Y-96450493D01*
X237574453Y-96470199D01*
X237557977Y-96488377D01*
X237539799Y-96504853D01*
X237520093Y-96519468D01*
X237499050Y-96532080D01*
X237476871Y-96542570D01*
X237453772Y-96550835D01*
X237429973Y-96556796D01*
X237405705Y-96560396D01*
X237381201Y-96561600D01*
X236481199Y-96561600D01*
X236456695Y-96560396D01*
X236432427Y-96556796D01*
X236408628Y-96550835D01*
X236385529Y-96542570D01*
X236363350Y-96532080D01*
X236342307Y-96519468D01*
X236322601Y-96504853D01*
X236304423Y-96488377D01*
X236287947Y-96470199D01*
X236273332Y-96450493D01*
X236260720Y-96429450D01*
X236250230Y-96407271D01*
X236241965Y-96384172D01*
X236236004Y-96360373D01*
X236232404Y-96336105D01*
X236231200Y-96311601D01*
X236231200Y-95661599D01*
X236232404Y-95637095D01*
X236236004Y-95612827D01*
X236241965Y-95589028D01*
X236250230Y-95565929D01*
X236260720Y-95543750D01*
X236273332Y-95522707D01*
X236287947Y-95503001D01*
X236304423Y-95484823D01*
X236322601Y-95468347D01*
X236342307Y-95453732D01*
X236363350Y-95441120D01*
X236385529Y-95430630D01*
X236408628Y-95422365D01*
X236432427Y-95416404D01*
X236456695Y-95412804D01*
X236481199Y-95411600D01*
X237381201Y-95411600D01*
X237405705Y-95412804D01*
G37*
G36*
X237405705Y-97462804D02*
G01*
X237429973Y-97466404D01*
X237453772Y-97472365D01*
X237476871Y-97480630D01*
X237499050Y-97491120D01*
X237520093Y-97503732D01*
X237539799Y-97518347D01*
X237557977Y-97534823D01*
X237574453Y-97553001D01*
X237589068Y-97572707D01*
X237601680Y-97593750D01*
X237612170Y-97615929D01*
X237620435Y-97639028D01*
X237626396Y-97662827D01*
X237629996Y-97687095D01*
X237631200Y-97711599D01*
X237631200Y-98361601D01*
X237629996Y-98386105D01*
X237626396Y-98410373D01*
X237620435Y-98434172D01*
X237612170Y-98457271D01*
X237601680Y-98479450D01*
X237589068Y-98500493D01*
X237574453Y-98520199D01*
X237557977Y-98538377D01*
X237539799Y-98554853D01*
X237520093Y-98569468D01*
X237499050Y-98582080D01*
X237476871Y-98592570D01*
X237453772Y-98600835D01*
X237429973Y-98606796D01*
X237405705Y-98610396D01*
X237381201Y-98611600D01*
X236481199Y-98611600D01*
X236456695Y-98610396D01*
X236432427Y-98606796D01*
X236408628Y-98600835D01*
X236385529Y-98592570D01*
X236363350Y-98582080D01*
X236342307Y-98569468D01*
X236322601Y-98554853D01*
X236304423Y-98538377D01*
X236287947Y-98520199D01*
X236273332Y-98500493D01*
X236260720Y-98479450D01*
X236250230Y-98457271D01*
X236241965Y-98434172D01*
X236236004Y-98410373D01*
X236232404Y-98386105D01*
X236231200Y-98361601D01*
X236231200Y-97711599D01*
X236232404Y-97687095D01*
X236236004Y-97662827D01*
X236241965Y-97639028D01*
X236250230Y-97615929D01*
X236260720Y-97593750D01*
X236273332Y-97572707D01*
X236287947Y-97553001D01*
X236304423Y-97534823D01*
X236322601Y-97518347D01*
X236342307Y-97503732D01*
X236363350Y-97491120D01*
X236385529Y-97480630D01*
X236408628Y-97472365D01*
X236432427Y-97466404D01*
X236456695Y-97462804D01*
X236481199Y-97461600D01*
X237381201Y-97461600D01*
X237405705Y-97462804D01*
G37*
G36*
X231081105Y-88631004D02*
G01*
X231105373Y-88634604D01*
X231129172Y-88640565D01*
X231152271Y-88648830D01*
X231174450Y-88659320D01*
X231195493Y-88671932D01*
X231215199Y-88686547D01*
X231233377Y-88703023D01*
X231249853Y-88721201D01*
X231264468Y-88740907D01*
X231277080Y-88761950D01*
X231287570Y-88784129D01*
X231295835Y-88807228D01*
X231301796Y-88831027D01*
X231305396Y-88855295D01*
X231306600Y-88879799D01*
X231306600Y-89529801D01*
X231305396Y-89554305D01*
X231301796Y-89578573D01*
X231295835Y-89602372D01*
X231287570Y-89625471D01*
X231277080Y-89647650D01*
X231264468Y-89668693D01*
X231249853Y-89688399D01*
X231233377Y-89706577D01*
X231215199Y-89723053D01*
X231195493Y-89737668D01*
X231174450Y-89750280D01*
X231152271Y-89760770D01*
X231129172Y-89769035D01*
X231105373Y-89774996D01*
X231081105Y-89778596D01*
X231056601Y-89779800D01*
X230156599Y-89779800D01*
X230132095Y-89778596D01*
X230107827Y-89774996D01*
X230084028Y-89769035D01*
X230060929Y-89760770D01*
X230038750Y-89750280D01*
X230017707Y-89737668D01*
X229998001Y-89723053D01*
X229979823Y-89706577D01*
X229963347Y-89688399D01*
X229948732Y-89668693D01*
X229936120Y-89647650D01*
X229925630Y-89625471D01*
X229917365Y-89602372D01*
X229911404Y-89578573D01*
X229907804Y-89554305D01*
X229906600Y-89529801D01*
X229906600Y-88879799D01*
X229907804Y-88855295D01*
X229911404Y-88831027D01*
X229917365Y-88807228D01*
X229925630Y-88784129D01*
X229936120Y-88761950D01*
X229948732Y-88740907D01*
X229963347Y-88721201D01*
X229979823Y-88703023D01*
X229998001Y-88686547D01*
X230017707Y-88671932D01*
X230038750Y-88659320D01*
X230060929Y-88648830D01*
X230084028Y-88640565D01*
X230107827Y-88634604D01*
X230132095Y-88631004D01*
X230156599Y-88629800D01*
X231056601Y-88629800D01*
X231081105Y-88631004D01*
G37*
G36*
X231081105Y-90681004D02*
G01*
X231105373Y-90684604D01*
X231129172Y-90690565D01*
X231152271Y-90698830D01*
X231174450Y-90709320D01*
X231195493Y-90721932D01*
X231215199Y-90736547D01*
X231233377Y-90753023D01*
X231249853Y-90771201D01*
X231264468Y-90790907D01*
X231277080Y-90811950D01*
X231287570Y-90834129D01*
X231295835Y-90857228D01*
X231301796Y-90881027D01*
X231305396Y-90905295D01*
X231306600Y-90929799D01*
X231306600Y-91579801D01*
X231305396Y-91604305D01*
X231301796Y-91628573D01*
X231295835Y-91652372D01*
X231287570Y-91675471D01*
X231277080Y-91697650D01*
X231264468Y-91718693D01*
X231249853Y-91738399D01*
X231233377Y-91756577D01*
X231215199Y-91773053D01*
X231195493Y-91787668D01*
X231174450Y-91800280D01*
X231152271Y-91810770D01*
X231129172Y-91819035D01*
X231105373Y-91824996D01*
X231081105Y-91828596D01*
X231056601Y-91829800D01*
X230156599Y-91829800D01*
X230132095Y-91828596D01*
X230107827Y-91824996D01*
X230084028Y-91819035D01*
X230060929Y-91810770D01*
X230038750Y-91800280D01*
X230017707Y-91787668D01*
X229998001Y-91773053D01*
X229979823Y-91756577D01*
X229963347Y-91738399D01*
X229948732Y-91718693D01*
X229936120Y-91697650D01*
X229925630Y-91675471D01*
X229917365Y-91652372D01*
X229911404Y-91628573D01*
X229907804Y-91604305D01*
X229906600Y-91579801D01*
X229906600Y-90929799D01*
X229907804Y-90905295D01*
X229911404Y-90881027D01*
X229917365Y-90857228D01*
X229925630Y-90834129D01*
X229936120Y-90811950D01*
X229948732Y-90790907D01*
X229963347Y-90771201D01*
X229979823Y-90753023D01*
X229998001Y-90736547D01*
X230017707Y-90721932D01*
X230038750Y-90709320D01*
X230060929Y-90698830D01*
X230084028Y-90690565D01*
X230107827Y-90684604D01*
X230132095Y-90681004D01*
X230156599Y-90679800D01*
X231056601Y-90679800D01*
X231081105Y-90681004D01*
G37*
G36*
X237418204Y-80558604D02*
G01*
X237442473Y-80562204D01*
X237466271Y-80568165D01*
X237489371Y-80576430D01*
X237511549Y-80586920D01*
X237532593Y-80599533D01*
X237552298Y-80614147D01*
X237570477Y-80630623D01*
X237586953Y-80648802D01*
X237601567Y-80668507D01*
X237614180Y-80689551D01*
X237624670Y-80711729D01*
X237632935Y-80734829D01*
X237638896Y-80758627D01*
X237642496Y-80782896D01*
X237643700Y-80807400D01*
X237643700Y-82057400D01*
X237642496Y-82081904D01*
X237638896Y-82106173D01*
X237632935Y-82129971D01*
X237624670Y-82153071D01*
X237614180Y-82175249D01*
X237601567Y-82196293D01*
X237586953Y-82215998D01*
X237570477Y-82234177D01*
X237552298Y-82250653D01*
X237532593Y-82265267D01*
X237511549Y-82277880D01*
X237489371Y-82288370D01*
X237466271Y-82296635D01*
X237442473Y-82302596D01*
X237418204Y-82306196D01*
X237393700Y-82307400D01*
X236468700Y-82307400D01*
X236444196Y-82306196D01*
X236419927Y-82302596D01*
X236396129Y-82296635D01*
X236373029Y-82288370D01*
X236350851Y-82277880D01*
X236329807Y-82265267D01*
X236310102Y-82250653D01*
X236291923Y-82234177D01*
X236275447Y-82215998D01*
X236260833Y-82196293D01*
X236248220Y-82175249D01*
X236237730Y-82153071D01*
X236229465Y-82129971D01*
X236223504Y-82106173D01*
X236219904Y-82081904D01*
X236218700Y-82057400D01*
X236218700Y-80807400D01*
X236219904Y-80782896D01*
X236223504Y-80758627D01*
X236229465Y-80734829D01*
X236237730Y-80711729D01*
X236248220Y-80689551D01*
X236260833Y-80668507D01*
X236275447Y-80648802D01*
X236291923Y-80630623D01*
X236310102Y-80614147D01*
X236329807Y-80599533D01*
X236350851Y-80586920D01*
X236373029Y-80576430D01*
X236396129Y-80568165D01*
X236419927Y-80562204D01*
X236444196Y-80558604D01*
X236468700Y-80557400D01*
X237393700Y-80557400D01*
X237418204Y-80558604D01*
G37*
G36*
X234443204Y-80558604D02*
G01*
X234467473Y-80562204D01*
X234491271Y-80568165D01*
X234514371Y-80576430D01*
X234536549Y-80586920D01*
X234557593Y-80599533D01*
X234577298Y-80614147D01*
X234595477Y-80630623D01*
X234611953Y-80648802D01*
X234626567Y-80668507D01*
X234639180Y-80689551D01*
X234649670Y-80711729D01*
X234657935Y-80734829D01*
X234663896Y-80758627D01*
X234667496Y-80782896D01*
X234668700Y-80807400D01*
X234668700Y-82057400D01*
X234667496Y-82081904D01*
X234663896Y-82106173D01*
X234657935Y-82129971D01*
X234649670Y-82153071D01*
X234639180Y-82175249D01*
X234626567Y-82196293D01*
X234611953Y-82215998D01*
X234595477Y-82234177D01*
X234577298Y-82250653D01*
X234557593Y-82265267D01*
X234536549Y-82277880D01*
X234514371Y-82288370D01*
X234491271Y-82296635D01*
X234467473Y-82302596D01*
X234443204Y-82306196D01*
X234418700Y-82307400D01*
X233493700Y-82307400D01*
X233469196Y-82306196D01*
X233444927Y-82302596D01*
X233421129Y-82296635D01*
X233398029Y-82288370D01*
X233375851Y-82277880D01*
X233354807Y-82265267D01*
X233335102Y-82250653D01*
X233316923Y-82234177D01*
X233300447Y-82215998D01*
X233285833Y-82196293D01*
X233273220Y-82175249D01*
X233262730Y-82153071D01*
X233254465Y-82129971D01*
X233248504Y-82106173D01*
X233244904Y-82081904D01*
X233243700Y-82057400D01*
X233243700Y-80807400D01*
X233244904Y-80782896D01*
X233248504Y-80758627D01*
X233254465Y-80734829D01*
X233262730Y-80711729D01*
X233273220Y-80689551D01*
X233285833Y-80668507D01*
X233300447Y-80648802D01*
X233316923Y-80630623D01*
X233335102Y-80614147D01*
X233354807Y-80599533D01*
X233375851Y-80586920D01*
X233398029Y-80576430D01*
X233421129Y-80568165D01*
X233444927Y-80562204D01*
X233469196Y-80558604D01*
X233493700Y-80557400D01*
X234418700Y-80557400D01*
X234443204Y-80558604D01*
G37*
M02*
