G04 #@! TF.GenerationSoftware,KiCad,Pcbnew,5.1.5-52549c5~86~ubuntu18.04.1*
G04 #@! TF.CreationDate,2020-04-19T01:33:55+01:00*
G04 #@! TF.ProjectId,scot-controller,73636f74-2d63-46f6-9e74-726f6c6c6572,rev?*
G04 #@! TF.SameCoordinates,Original*
G04 #@! TF.FileFunction,Legend,Top*
G04 #@! TF.FilePolarity,Positive*
%FSLAX46Y46*%
G04 Gerber Fmt 4.6, Leading zero omitted, Abs format (unit mm)*
G04 Created by KiCad (PCBNEW 5.1.5-52549c5~86~ubuntu18.04.1) date 2020-04-19 01:33:55*
%MOMM*%
%LPD*%
G04 APERTURE LIST*
%ADD10C,0.150000*%
%ADD11C,0.300000*%
%ADD12C,0.450000*%
%ADD13C,0.400000*%
%ADD14C,0.120000*%
G04 APERTURE END LIST*
D10*
X211926419Y-78719510D02*
X211926419Y-79290938D01*
X210926419Y-78880224D02*
X211926419Y-79005224D01*
X210974038Y-79886176D02*
X210926419Y-79784986D01*
X210926419Y-79594510D01*
X210974038Y-79505224D01*
X211069276Y-79469510D01*
X211450228Y-79517129D01*
X211545466Y-79576652D01*
X211593085Y-79677843D01*
X211593085Y-79868319D01*
X211545466Y-79957605D01*
X211450228Y-79993319D01*
X211354990Y-79981414D01*
X211259752Y-79493319D01*
X210926419Y-80356414D02*
X211593085Y-80439748D01*
X211402609Y-80415938D02*
X211497847Y-80475462D01*
X211545466Y-80529033D01*
X211593085Y-80630224D01*
X211593085Y-80725462D01*
X210926419Y-80975462D02*
X211593085Y-81058795D01*
X211497847Y-81046891D02*
X211545466Y-81100462D01*
X211593085Y-81201652D01*
X211593085Y-81344510D01*
X211545466Y-81433795D01*
X211450228Y-81469510D01*
X210926419Y-81404033D01*
X211450228Y-81469510D02*
X211545466Y-81529033D01*
X211593085Y-81630224D01*
X211593085Y-81773081D01*
X211545466Y-81862367D01*
X211450228Y-81898081D01*
X210926419Y-81832605D01*
X210926419Y-82308795D02*
X211593085Y-82392129D01*
X211926419Y-82433795D02*
X211878800Y-82380224D01*
X211831180Y-82421891D01*
X211878800Y-82475462D01*
X211926419Y-82433795D01*
X211831180Y-82421891D01*
X211593085Y-82868319D02*
X210926419Y-82784986D01*
X211497847Y-82856414D02*
X211545466Y-82909986D01*
X211593085Y-83011176D01*
X211593085Y-83154033D01*
X211545466Y-83243319D01*
X211450228Y-83279033D01*
X210926419Y-83213557D01*
X210926419Y-84118319D02*
X211450228Y-84183795D01*
X211545466Y-84148081D01*
X211593085Y-84058795D01*
X211593085Y-83868319D01*
X211545466Y-83767129D01*
X210974038Y-84124272D02*
X210926419Y-84023081D01*
X210926419Y-83784986D01*
X210974038Y-83695700D01*
X211069276Y-83659986D01*
X211164514Y-83671891D01*
X211259752Y-83731414D01*
X211307371Y-83832605D01*
X211307371Y-84070700D01*
X211354990Y-84171891D01*
X211593085Y-84534986D02*
X211593085Y-84915938D01*
X211926419Y-84719510D02*
X211069276Y-84612367D01*
X210974038Y-84648081D01*
X210926419Y-84737367D01*
X210926419Y-84832605D01*
X210926419Y-85165938D02*
X211593085Y-85249272D01*
X211926419Y-85290938D02*
X211878800Y-85237367D01*
X211831180Y-85279033D01*
X211878800Y-85332605D01*
X211926419Y-85290938D01*
X211831180Y-85279033D01*
X210926419Y-85784986D02*
X210974038Y-85695700D01*
X211021657Y-85654033D01*
X211116895Y-85618319D01*
X211402609Y-85654033D01*
X211497847Y-85713557D01*
X211545466Y-85767129D01*
X211593085Y-85868319D01*
X211593085Y-86011176D01*
X211545466Y-86100462D01*
X211497847Y-86142129D01*
X211402609Y-86177843D01*
X211116895Y-86142129D01*
X211021657Y-86082605D01*
X210974038Y-86029033D01*
X210926419Y-85927843D01*
X210926419Y-85784986D01*
X211593085Y-86630224D02*
X210926419Y-86546891D01*
X211497847Y-86618319D02*
X211545466Y-86671891D01*
X211593085Y-86773081D01*
X211593085Y-86915938D01*
X211545466Y-87005224D01*
X211450228Y-87040938D01*
X210926419Y-86975462D01*
X224702238Y-77160280D02*
X224654619Y-77297185D01*
X224654619Y-77535280D01*
X224702238Y-77636471D01*
X224749857Y-77690042D01*
X224845095Y-77749566D01*
X224940333Y-77761471D01*
X225035571Y-77725757D01*
X225083190Y-77684090D01*
X225130809Y-77594804D01*
X225178428Y-77410280D01*
X225226047Y-77320995D01*
X225273666Y-77279328D01*
X225368904Y-77243614D01*
X225464142Y-77255519D01*
X225559380Y-77315042D01*
X225607000Y-77368614D01*
X225654619Y-77469804D01*
X225654619Y-77707900D01*
X225607000Y-77844804D01*
X224654619Y-78154328D02*
X225654619Y-78279328D01*
X224654619Y-78582900D02*
X225178428Y-78648376D01*
X225273666Y-78612661D01*
X225321285Y-78523376D01*
X225321285Y-78380519D01*
X225273666Y-78279328D01*
X225226047Y-78225757D01*
X224654619Y-79059090D02*
X225321285Y-79142423D01*
X225654619Y-79184090D02*
X225607000Y-79130519D01*
X225559380Y-79172185D01*
X225607000Y-79225757D01*
X225654619Y-79184090D01*
X225559380Y-79172185D01*
X224702238Y-79922185D02*
X224654619Y-79820995D01*
X224654619Y-79630519D01*
X224702238Y-79541233D01*
X224797476Y-79505519D01*
X225178428Y-79553138D01*
X225273666Y-79612661D01*
X225321285Y-79713852D01*
X225321285Y-79904328D01*
X225273666Y-79993614D01*
X225178428Y-80029328D01*
X225083190Y-80017423D01*
X224987952Y-79529328D01*
X224654619Y-80535280D02*
X224702238Y-80445995D01*
X224797476Y-80410280D01*
X225654619Y-80517423D01*
X224654619Y-81344804D02*
X225654619Y-81469804D01*
X224702238Y-81350757D02*
X224654619Y-81249566D01*
X224654619Y-81059090D01*
X224702238Y-80969804D01*
X224749857Y-80928138D01*
X224845095Y-80892423D01*
X225130809Y-80928138D01*
X225226047Y-80987661D01*
X225273666Y-81041233D01*
X225321285Y-81142423D01*
X225321285Y-81332900D01*
X225273666Y-81422185D01*
X223671285Y-77142423D02*
X223671285Y-77523376D01*
X224004619Y-77326947D02*
X223147476Y-77219804D01*
X223052238Y-77255519D01*
X223004619Y-77344804D01*
X223004619Y-77440042D01*
X223004619Y-77916233D02*
X223052238Y-77826947D01*
X223099857Y-77785280D01*
X223195095Y-77749566D01*
X223480809Y-77785280D01*
X223576047Y-77844804D01*
X223623666Y-77898376D01*
X223671285Y-77999566D01*
X223671285Y-78142423D01*
X223623666Y-78231709D01*
X223576047Y-78273376D01*
X223480809Y-78309090D01*
X223195095Y-78273376D01*
X223099857Y-78213852D01*
X223052238Y-78160280D01*
X223004619Y-78059090D01*
X223004619Y-77916233D01*
X223957000Y-80082900D02*
X224004619Y-79993614D01*
X224004619Y-79850757D01*
X223957000Y-79701947D01*
X223861761Y-79594804D01*
X223766523Y-79535280D01*
X223576047Y-79463852D01*
X223433190Y-79445995D01*
X223242714Y-79469804D01*
X223147476Y-79505519D01*
X223052238Y-79588852D01*
X223004619Y-79725757D01*
X223004619Y-79820995D01*
X223052238Y-79969804D01*
X223099857Y-80023376D01*
X223433190Y-80065042D01*
X223433190Y-79874566D01*
X223671285Y-80523376D02*
X223004619Y-80440042D01*
X223576047Y-80511471D02*
X223623666Y-80565042D01*
X223671285Y-80666233D01*
X223671285Y-80809090D01*
X223623666Y-80898376D01*
X223528428Y-80934090D01*
X223004619Y-80868614D01*
X223004619Y-81773376D02*
X224004619Y-81898376D01*
X223052238Y-81779328D02*
X223004619Y-81678138D01*
X223004619Y-81487661D01*
X223052238Y-81398376D01*
X223099857Y-81356709D01*
X223195095Y-81320995D01*
X223480809Y-81356709D01*
X223576047Y-81416233D01*
X223623666Y-81469804D01*
X223671285Y-81570995D01*
X223671285Y-81761471D01*
X223623666Y-81850757D01*
D11*
X220942742Y-67933000D02*
X221085600Y-68004428D01*
X221299885Y-68004428D01*
X221514171Y-67933000D01*
X221657028Y-67790142D01*
X221728457Y-67647285D01*
X221799885Y-67361571D01*
X221799885Y-67147285D01*
X221728457Y-66861571D01*
X221657028Y-66718714D01*
X221514171Y-66575857D01*
X221299885Y-66504428D01*
X221157028Y-66504428D01*
X220942742Y-66575857D01*
X220871314Y-66647285D01*
X220871314Y-67147285D01*
X221157028Y-67147285D01*
X218331314Y-66504428D02*
X219045600Y-66504428D01*
X219045600Y-68004428D01*
X216684171Y-66504428D02*
X216684171Y-68004428D01*
X216684171Y-67290142D02*
X215827028Y-67290142D01*
X215827028Y-66504428D02*
X215827028Y-68004428D01*
X205728142Y-67907600D02*
X205871000Y-67979028D01*
X206085285Y-67979028D01*
X206299571Y-67907600D01*
X206442428Y-67764742D01*
X206513857Y-67621885D01*
X206585285Y-67336171D01*
X206585285Y-67121885D01*
X206513857Y-66836171D01*
X206442428Y-66693314D01*
X206299571Y-66550457D01*
X206085285Y-66479028D01*
X205942428Y-66479028D01*
X205728142Y-66550457D01*
X205656714Y-66621885D01*
X205656714Y-67121885D01*
X205942428Y-67121885D01*
X203091314Y-66479028D02*
X203805600Y-66479028D01*
X203805600Y-67979028D01*
X201469571Y-66479028D02*
X201469571Y-67979028D01*
X201469571Y-67264742D02*
X200612428Y-67264742D01*
X200612428Y-66479028D02*
X200612428Y-67979028D01*
D12*
X204883090Y-109266704D02*
X205240233Y-109385752D01*
X205835471Y-109385752D01*
X206073566Y-109266704D01*
X206192614Y-109147657D01*
X206311661Y-108909561D01*
X206311661Y-108671466D01*
X206192614Y-108433371D01*
X206073566Y-108314323D01*
X205835471Y-108195276D01*
X205359280Y-108076228D01*
X205121185Y-107957180D01*
X205002138Y-107838133D01*
X204883090Y-107600038D01*
X204883090Y-107361942D01*
X205002138Y-107123847D01*
X205121185Y-107004800D01*
X205359280Y-106885752D01*
X205954519Y-106885752D01*
X206311661Y-107004800D01*
X208811661Y-109147657D02*
X208692614Y-109266704D01*
X208335471Y-109385752D01*
X208097376Y-109385752D01*
X207740233Y-109266704D01*
X207502138Y-109028609D01*
X207383090Y-108790514D01*
X207264042Y-108314323D01*
X207264042Y-107957180D01*
X207383090Y-107480990D01*
X207502138Y-107242895D01*
X207740233Y-107004800D01*
X208097376Y-106885752D01*
X208335471Y-106885752D01*
X208692614Y-107004800D01*
X208811661Y-107123847D01*
X210359280Y-106885752D02*
X210835471Y-106885752D01*
X211073566Y-107004800D01*
X211311661Y-107242895D01*
X211430709Y-107719085D01*
X211430709Y-108552419D01*
X211311661Y-109028609D01*
X211073566Y-109266704D01*
X210835471Y-109385752D01*
X210359280Y-109385752D01*
X210121185Y-109266704D01*
X209883090Y-109028609D01*
X209764042Y-108552419D01*
X209764042Y-107719085D01*
X209883090Y-107242895D01*
X210121185Y-107004800D01*
X210359280Y-106885752D01*
X212144995Y-106885752D02*
X213573566Y-106885752D01*
X212859280Y-109385752D02*
X212859280Y-106885752D01*
X217740233Y-109147657D02*
X217621185Y-109266704D01*
X217264042Y-109385752D01*
X217025947Y-109385752D01*
X216668804Y-109266704D01*
X216430709Y-109028609D01*
X216311661Y-108790514D01*
X216192614Y-108314323D01*
X216192614Y-107957180D01*
X216311661Y-107480990D01*
X216430709Y-107242895D01*
X216668804Y-107004800D01*
X217025947Y-106885752D01*
X217264042Y-106885752D01*
X217621185Y-107004800D01*
X217740233Y-107123847D01*
X219168804Y-109385752D02*
X218930709Y-109266704D01*
X218811661Y-109147657D01*
X218692614Y-108909561D01*
X218692614Y-108195276D01*
X218811661Y-107957180D01*
X218930709Y-107838133D01*
X219168804Y-107719085D01*
X219525947Y-107719085D01*
X219764042Y-107838133D01*
X219883090Y-107957180D01*
X220002138Y-108195276D01*
X220002138Y-108909561D01*
X219883090Y-109147657D01*
X219764042Y-109266704D01*
X219525947Y-109385752D01*
X219168804Y-109385752D01*
X221073566Y-107719085D02*
X221073566Y-109385752D01*
X221073566Y-107957180D02*
X221192614Y-107838133D01*
X221430709Y-107719085D01*
X221787852Y-107719085D01*
X222025947Y-107838133D01*
X222144995Y-108076228D01*
X222144995Y-109385752D01*
X222978328Y-107719085D02*
X223930709Y-107719085D01*
X223335471Y-106885752D02*
X223335471Y-109028609D01*
X223454519Y-109266704D01*
X223692614Y-109385752D01*
X223930709Y-109385752D01*
X224764042Y-109385752D02*
X224764042Y-107719085D01*
X224764042Y-108195276D02*
X224883090Y-107957180D01*
X225002138Y-107838133D01*
X225240233Y-107719085D01*
X225478328Y-107719085D01*
X226668804Y-109385752D02*
X226430709Y-109266704D01*
X226311661Y-109147657D01*
X226192614Y-108909561D01*
X226192614Y-108195276D01*
X226311661Y-107957180D01*
X226430709Y-107838133D01*
X226668804Y-107719085D01*
X227025947Y-107719085D01*
X227264042Y-107838133D01*
X227383090Y-107957180D01*
X227502138Y-108195276D01*
X227502138Y-108909561D01*
X227383090Y-109147657D01*
X227264042Y-109266704D01*
X227025947Y-109385752D01*
X226668804Y-109385752D01*
X228930709Y-109385752D02*
X228692614Y-109266704D01*
X228573566Y-109028609D01*
X228573566Y-106885752D01*
X230240233Y-109385752D02*
X230002138Y-109266704D01*
X229883090Y-109028609D01*
X229883090Y-106885752D01*
X232144995Y-109266704D02*
X231906900Y-109385752D01*
X231430709Y-109385752D01*
X231192614Y-109266704D01*
X231073566Y-109028609D01*
X231073566Y-108076228D01*
X231192614Y-107838133D01*
X231430709Y-107719085D01*
X231906900Y-107719085D01*
X232144995Y-107838133D01*
X232264042Y-108076228D01*
X232264042Y-108314323D01*
X231073566Y-108552419D01*
X233335471Y-109385752D02*
X233335471Y-107719085D01*
X233335471Y-108195276D02*
X233454519Y-107957180D01*
X233573566Y-107838133D01*
X233811661Y-107719085D01*
X234049757Y-107719085D01*
D11*
X205038614Y-114727800D02*
X205752900Y-114727800D01*
X204842185Y-115156371D02*
X205529685Y-113656371D01*
X205842185Y-115156371D01*
X206467185Y-114156371D02*
X206279685Y-115656371D01*
X206458257Y-114227800D02*
X206610042Y-114156371D01*
X206895757Y-114156371D01*
X207029685Y-114227800D01*
X207092185Y-114299228D01*
X207145757Y-114442085D01*
X207092185Y-114870657D01*
X207002900Y-115013514D01*
X206922542Y-115084942D01*
X206770757Y-115156371D01*
X206485042Y-115156371D01*
X206351114Y-115084942D01*
X207699328Y-115156371D02*
X207824328Y-114156371D01*
X207788614Y-114442085D02*
X207877900Y-114299228D01*
X207958257Y-114227800D01*
X208110042Y-114156371D01*
X208252900Y-114156371D01*
X208627900Y-115156371D02*
X208752900Y-114156371D01*
X208815400Y-113656371D02*
X208735042Y-113727800D01*
X208797542Y-113799228D01*
X208877900Y-113727800D01*
X208815400Y-113656371D01*
X208797542Y-113799228D01*
X209556471Y-115156371D02*
X209422542Y-115084942D01*
X209368971Y-114942085D01*
X209529685Y-113656371D01*
X211368971Y-113799228D02*
X211449328Y-113727800D01*
X211601114Y-113656371D01*
X211958257Y-113656371D01*
X212092185Y-113727800D01*
X212154685Y-113799228D01*
X212208257Y-113942085D01*
X212190400Y-114084942D01*
X212092185Y-114299228D01*
X211127900Y-115156371D01*
X212056471Y-115156371D01*
X213172542Y-113656371D02*
X213315400Y-113656371D01*
X213449328Y-113727800D01*
X213511828Y-113799228D01*
X213565400Y-113942085D01*
X213601114Y-114227800D01*
X213556471Y-114584942D01*
X213449328Y-114870657D01*
X213360042Y-115013514D01*
X213279685Y-115084942D01*
X213127900Y-115156371D01*
X212985042Y-115156371D01*
X212851114Y-115084942D01*
X212788614Y-115013514D01*
X212735042Y-114870657D01*
X212699328Y-114584942D01*
X212743971Y-114227800D01*
X212851114Y-113942085D01*
X212940400Y-113799228D01*
X213020757Y-113727800D01*
X213172542Y-113656371D01*
X214226114Y-113799228D02*
X214306471Y-113727800D01*
X214458257Y-113656371D01*
X214815400Y-113656371D01*
X214949328Y-113727800D01*
X215011828Y-113799228D01*
X215065400Y-113942085D01*
X215047542Y-114084942D01*
X214949328Y-114299228D01*
X213985042Y-115156371D01*
X214913614Y-115156371D01*
X216029685Y-113656371D02*
X216172542Y-113656371D01*
X216306471Y-113727800D01*
X216368971Y-113799228D01*
X216422542Y-113942085D01*
X216458257Y-114227800D01*
X216413614Y-114584942D01*
X216306471Y-114870657D01*
X216217185Y-115013514D01*
X216136828Y-115084942D01*
X215985042Y-115156371D01*
X215842185Y-115156371D01*
X215708257Y-115084942D01*
X215645757Y-115013514D01*
X215592185Y-114870657D01*
X215556471Y-114584942D01*
X215601114Y-114227800D01*
X215708257Y-113942085D01*
X215797542Y-113799228D01*
X215877900Y-113727800D01*
X216029685Y-113656371D01*
X205183471Y-112616371D02*
X205370971Y-111116371D01*
X205942400Y-111116371D01*
X206076328Y-111187800D01*
X206138828Y-111259228D01*
X206192400Y-111402085D01*
X206165614Y-111616371D01*
X206076328Y-111759228D01*
X205995971Y-111830657D01*
X205844185Y-111902085D01*
X205272757Y-111902085D01*
X206683471Y-112616371D02*
X206870971Y-111116371D01*
X207326328Y-112616371D02*
X207424542Y-111830657D01*
X207370971Y-111687800D01*
X207237042Y-111616371D01*
X207022757Y-111616371D01*
X206870971Y-111687800D01*
X206790614Y-111759228D01*
X208040614Y-112616371D02*
X208165614Y-111616371D01*
X208228114Y-111116371D02*
X208147757Y-111187800D01*
X208210257Y-111259228D01*
X208290614Y-111187800D01*
X208228114Y-111116371D01*
X208210257Y-111259228D01*
X208969185Y-112616371D02*
X208835257Y-112544942D01*
X208781685Y-112402085D01*
X208942400Y-111116371D01*
X210683471Y-112616371D02*
X210870971Y-111116371D01*
X211237042Y-112187800D01*
X211870971Y-111116371D01*
X211683471Y-112616371D01*
X212870971Y-111116371D02*
X213013828Y-111116371D01*
X213147757Y-111187800D01*
X213210257Y-111259228D01*
X213263828Y-111402085D01*
X213299542Y-111687800D01*
X213254900Y-112044942D01*
X213147757Y-112330657D01*
X213058471Y-112473514D01*
X212978114Y-112544942D01*
X212826328Y-112616371D01*
X212683471Y-112616371D01*
X212549542Y-112544942D01*
X212487042Y-112473514D01*
X212433471Y-112330657D01*
X212397757Y-112044942D01*
X212442400Y-111687800D01*
X212549542Y-111402085D01*
X212638828Y-111259228D01*
X212719185Y-111187800D01*
X212870971Y-111116371D01*
X213826328Y-112616371D02*
X214013828Y-111116371D01*
X214370971Y-111116371D01*
X214576328Y-111187800D01*
X214701328Y-111330657D01*
X214754900Y-111473514D01*
X214790614Y-111759228D01*
X214763828Y-111973514D01*
X214656685Y-112259228D01*
X214567400Y-112402085D01*
X214406685Y-112544942D01*
X214183471Y-112616371D01*
X213826328Y-112616371D01*
X215326328Y-112616371D02*
X215513828Y-111116371D01*
X216183471Y-112616371D01*
X216370971Y-111116371D01*
X217272757Y-111902085D02*
X217183471Y-112616371D01*
X216870971Y-111116371D02*
X217272757Y-111902085D01*
X217870971Y-111116371D01*
D13*
X231698800Y-72059800D02*
X229997000Y-72059800D01*
X230835200Y-71196200D02*
X230835200Y-72898000D01*
X240023066Y-67452761D02*
X239927828Y-67548000D01*
X239737352Y-67643238D01*
X239261161Y-67643238D01*
X239070685Y-67548000D01*
X238975447Y-67452761D01*
X238880209Y-67262285D01*
X238880209Y-67071809D01*
X238975447Y-66786095D01*
X240118304Y-65643238D01*
X238880209Y-65643238D01*
X237737352Y-66786095D02*
X237927828Y-66881333D01*
X238023066Y-66976571D01*
X238118304Y-67167047D01*
X238118304Y-67262285D01*
X238023066Y-67452761D01*
X237927828Y-67548000D01*
X237737352Y-67643238D01*
X237356400Y-67643238D01*
X237165923Y-67548000D01*
X237070685Y-67452761D01*
X236975447Y-67262285D01*
X236975447Y-67167047D01*
X237070685Y-66976571D01*
X237165923Y-66881333D01*
X237356400Y-66786095D01*
X237737352Y-66786095D01*
X237927828Y-66690857D01*
X238023066Y-66595619D01*
X238118304Y-66405142D01*
X238118304Y-66024190D01*
X238023066Y-65833714D01*
X237927828Y-65738476D01*
X237737352Y-65643238D01*
X237356400Y-65643238D01*
X237165923Y-65738476D01*
X237070685Y-65833714D01*
X236975447Y-66024190D01*
X236975447Y-66405142D01*
X237070685Y-66595619D01*
X237165923Y-66690857D01*
X237356400Y-66786095D01*
X236404019Y-67643238D02*
X235737352Y-65643238D01*
X235070685Y-67643238D01*
X232880209Y-65643238D02*
X232880209Y-67643238D01*
X231927828Y-65643238D02*
X231927828Y-67643238D01*
X230784971Y-65643238D01*
X230784971Y-67643238D01*
X212461314Y-65833714D02*
X212556552Y-65738476D01*
X212842266Y-65643238D01*
X213032742Y-65643238D01*
X213318457Y-65738476D01*
X213508933Y-65928952D01*
X213604171Y-66119428D01*
X213699409Y-66500380D01*
X213699409Y-66786095D01*
X213604171Y-67167047D01*
X213508933Y-67357523D01*
X213318457Y-67548000D01*
X213032742Y-67643238D01*
X212842266Y-67643238D01*
X212556552Y-67548000D01*
X212461314Y-67452761D01*
X211699409Y-66214666D02*
X210747028Y-66214666D01*
X211889885Y-65643238D02*
X211223219Y-67643238D01*
X210556552Y-65643238D01*
X209889885Y-65643238D02*
X209889885Y-67643238D01*
X208747028Y-65643238D01*
X208747028Y-67643238D01*
D14*
X219562467Y-91057000D02*
X219219933Y-91057000D01*
X219562467Y-92077000D02*
X219219933Y-92077000D01*
D10*
X201106400Y-84610400D02*
G75*
G03X201106400Y-85210400I0J-300000D01*
G01*
X206106400Y-85210400D02*
X206106400Y-81210400D01*
X201106400Y-84610400D02*
X201106400Y-81210400D01*
D14*
X221138800Y-92699000D02*
X221138800Y-98709000D01*
X214318800Y-94949000D02*
X214318800Y-98709000D01*
X221138800Y-98709000D02*
X219878800Y-98709000D01*
X214318800Y-98709000D02*
X215578800Y-98709000D01*
X212165000Y-73353452D02*
X212165000Y-72830948D01*
X210745000Y-73353452D02*
X210745000Y-72830948D01*
X210455000Y-77600800D02*
X210455000Y-76200800D01*
X211155000Y-75500800D02*
X211755000Y-75500800D01*
X212455000Y-76200800D02*
X212455000Y-77600800D01*
X211755000Y-78300800D02*
X211155000Y-78300800D01*
X211155000Y-78300800D02*
G75*
G02X210455000Y-77600800I0J700000D01*
G01*
X212455000Y-77600800D02*
G75*
G02X211755000Y-78300800I-700000J0D01*
G01*
X211755000Y-75500800D02*
G75*
G02X212455000Y-76200800I0J-700000D01*
G01*
X210455000Y-76200800D02*
G75*
G02X211155000Y-75500800I700000J0D01*
G01*
X222361000Y-78817000D02*
X222361000Y-80217000D01*
X221661000Y-80917000D02*
X221061000Y-80917000D01*
X220361000Y-80217000D02*
X220361000Y-78817000D01*
X221061000Y-78117000D02*
X221661000Y-78117000D01*
X221661000Y-78117000D02*
G75*
G02X222361000Y-78817000I0J-700000D01*
G01*
X220361000Y-78817000D02*
G75*
G02X221061000Y-78117000I700000J0D01*
G01*
X221061000Y-80917000D02*
G75*
G02X220361000Y-80217000I0J700000D01*
G01*
X222361000Y-80217000D02*
G75*
G02X221661000Y-80917000I-700000J0D01*
G01*
X207981000Y-68475200D02*
X207581000Y-68475200D01*
X207981000Y-69115200D02*
X207981000Y-68475200D01*
X199421000Y-75455200D02*
X199421000Y-68715200D01*
X207741000Y-75455200D02*
X207741000Y-68715200D01*
X207741000Y-68715200D02*
X199421000Y-68715200D01*
X207741000Y-75455200D02*
X199421000Y-75455200D01*
X207741000Y-74335200D02*
X199421000Y-74335200D01*
X207741000Y-69235200D02*
X199421000Y-69235200D01*
X223195600Y-68475200D02*
X222795600Y-68475200D01*
X223195600Y-69115200D02*
X223195600Y-68475200D01*
X214635600Y-75455200D02*
X214635600Y-68715200D01*
X222955600Y-75455200D02*
X222955600Y-68715200D01*
X222955600Y-68715200D02*
X214635600Y-68715200D01*
X222955600Y-75455200D02*
X214635600Y-75455200D01*
X222955600Y-74335200D02*
X214635600Y-74335200D01*
X222955600Y-69235200D02*
X214635600Y-69235200D01*
X238562600Y-68475200D02*
X238162600Y-68475200D01*
X238562600Y-69115200D02*
X238562600Y-68475200D01*
X232542600Y-75455200D02*
X232542600Y-68715200D01*
X238322600Y-75455200D02*
X238322600Y-68715200D01*
X238322600Y-68715200D02*
X232542600Y-68715200D01*
X238322600Y-75455200D02*
X232542600Y-75455200D01*
X238322600Y-74335200D02*
X232542600Y-74335200D01*
X238322600Y-69235200D02*
X232542600Y-69235200D01*
X231316600Y-97263852D02*
X231316600Y-96741348D01*
X229896600Y-97263852D02*
X229896600Y-96741348D01*
X203361548Y-90219600D02*
X203884052Y-90219600D01*
X203361548Y-88799600D02*
X203884052Y-88799600D01*
X203449133Y-88267000D02*
X203791667Y-88267000D01*
X203449133Y-87247000D02*
X203791667Y-87247000D01*
X207672400Y-81846267D02*
X207672400Y-81503733D01*
X206652400Y-81846267D02*
X206652400Y-81503733D01*
X215844333Y-92077000D02*
X216186867Y-92077000D01*
X215844333Y-91057000D02*
X216186867Y-91057000D01*
X237641200Y-97272852D02*
X237641200Y-96750348D01*
X236221200Y-97272852D02*
X236221200Y-96750348D01*
X231839400Y-82889200D02*
X239689400Y-82889200D01*
X239689400Y-82889200D02*
X239689400Y-94829200D01*
X239689400Y-94829200D02*
X231839400Y-94829200D01*
X231839400Y-94829200D02*
X231839400Y-82889200D01*
X233959400Y-82559200D02*
X231509400Y-82559200D01*
X231509400Y-82559200D02*
X231509400Y-84889200D01*
X231316600Y-90491052D02*
X231316600Y-89968548D01*
X229896600Y-90491052D02*
X229896600Y-89968548D01*
X234841636Y-82342400D02*
X236045764Y-82342400D01*
X234841636Y-80522400D02*
X236045764Y-80522400D01*
D10*
X219240933Y-90450942D02*
X219193314Y-90498561D01*
X219050457Y-90546180D01*
X218955219Y-90546180D01*
X218812361Y-90498561D01*
X218717123Y-90403323D01*
X218669504Y-90308085D01*
X218621885Y-90117609D01*
X218621885Y-89974752D01*
X218669504Y-89784276D01*
X218717123Y-89689038D01*
X218812361Y-89593800D01*
X218955219Y-89546180D01*
X219050457Y-89546180D01*
X219193314Y-89593800D01*
X219240933Y-89641419D01*
X219574266Y-89546180D02*
X220193314Y-89546180D01*
X219859980Y-89927133D01*
X220002838Y-89927133D01*
X220098076Y-89974752D01*
X220145695Y-90022371D01*
X220193314Y-90117609D01*
X220193314Y-90355704D01*
X220145695Y-90450942D01*
X220098076Y-90498561D01*
X220002838Y-90546180D01*
X219717123Y-90546180D01*
X219621885Y-90498561D01*
X219574266Y-90450942D01*
X200608780Y-84186590D02*
X199608780Y-84186590D01*
X200513542Y-83138971D02*
X200561161Y-83186590D01*
X200608780Y-83329447D01*
X200608780Y-83424685D01*
X200561161Y-83567542D01*
X200465923Y-83662780D01*
X200370685Y-83710400D01*
X200180209Y-83758019D01*
X200037352Y-83758019D01*
X199846876Y-83710400D01*
X199751638Y-83662780D01*
X199656400Y-83567542D01*
X199608780Y-83424685D01*
X199608780Y-83329447D01*
X199656400Y-83186590D01*
X199704019Y-83138971D01*
X200608780Y-82186590D02*
X200608780Y-82758019D01*
X200608780Y-82472304D02*
X199608780Y-82472304D01*
X199751638Y-82567542D01*
X199846876Y-82662780D01*
X199894495Y-82758019D01*
X221681180Y-97560904D02*
X222490704Y-97560904D01*
X222585942Y-97513285D01*
X222633561Y-97465666D01*
X222681180Y-97370428D01*
X222681180Y-97179952D01*
X222633561Y-97084714D01*
X222585942Y-97037095D01*
X222490704Y-96989476D01*
X221681180Y-96989476D01*
X222681180Y-95989476D02*
X222681180Y-96560904D01*
X222681180Y-96275190D02*
X221681180Y-96275190D01*
X221824038Y-96370428D01*
X221919276Y-96465666D01*
X221966895Y-96560904D01*
X210257380Y-73258866D02*
X209781190Y-73592200D01*
X210257380Y-73830295D02*
X209257380Y-73830295D01*
X209257380Y-73449342D01*
X209305000Y-73354104D01*
X209352619Y-73306485D01*
X209447857Y-73258866D01*
X209590714Y-73258866D01*
X209685952Y-73306485D01*
X209733571Y-73354104D01*
X209781190Y-73449342D01*
X209781190Y-73830295D01*
X210257380Y-72306485D02*
X210257380Y-72877914D01*
X210257380Y-72592200D02*
X209257380Y-72592200D01*
X209400238Y-72687438D01*
X209495476Y-72782676D01*
X209543095Y-72877914D01*
X209107380Y-77734133D02*
X209821666Y-77734133D01*
X209964523Y-77781752D01*
X210059761Y-77876990D01*
X210107380Y-78019847D01*
X210107380Y-78115085D01*
X210107380Y-77257942D02*
X209107380Y-77257942D01*
X209107380Y-76876990D01*
X209155000Y-76781752D01*
X209202619Y-76734133D01*
X209297857Y-76686514D01*
X209440714Y-76686514D01*
X209535952Y-76734133D01*
X209583571Y-76781752D01*
X209631190Y-76876990D01*
X209631190Y-77257942D01*
X209202619Y-76305561D02*
X209155000Y-76257942D01*
X209107380Y-76162704D01*
X209107380Y-75924609D01*
X209155000Y-75829371D01*
X209202619Y-75781752D01*
X209297857Y-75734133D01*
X209393095Y-75734133D01*
X209535952Y-75781752D01*
X210107380Y-76353180D01*
X210107380Y-75734133D01*
X218679780Y-80335333D02*
X219394066Y-80335333D01*
X219536923Y-80382952D01*
X219632161Y-80478190D01*
X219679780Y-80621047D01*
X219679780Y-80716285D01*
X219679780Y-79859142D02*
X218679780Y-79859142D01*
X218679780Y-79478190D01*
X218727400Y-79382952D01*
X218775019Y-79335333D01*
X218870257Y-79287714D01*
X219013114Y-79287714D01*
X219108352Y-79335333D01*
X219155971Y-79382952D01*
X219203590Y-79478190D01*
X219203590Y-79859142D01*
X219679780Y-78335333D02*
X219679780Y-78906761D01*
X219679780Y-78621047D02*
X218679780Y-78621047D01*
X218822638Y-78716285D01*
X218917876Y-78811523D01*
X218965495Y-78906761D01*
X197964466Y-74407780D02*
X197964466Y-75122066D01*
X197916847Y-75264923D01*
X197821609Y-75360161D01*
X197678752Y-75407780D01*
X197583514Y-75407780D01*
X198345419Y-74407780D02*
X198964466Y-74407780D01*
X198631133Y-74788733D01*
X198773990Y-74788733D01*
X198869228Y-74836352D01*
X198916847Y-74883971D01*
X198964466Y-74979209D01*
X198964466Y-75217304D01*
X198916847Y-75312542D01*
X198869228Y-75360161D01*
X198773990Y-75407780D01*
X198488276Y-75407780D01*
X198393038Y-75360161D01*
X198345419Y-75312542D01*
X213204466Y-74356980D02*
X213204466Y-75071266D01*
X213156847Y-75214123D01*
X213061609Y-75309361D01*
X212918752Y-75356980D01*
X212823514Y-75356980D01*
X213633038Y-74452219D02*
X213680657Y-74404600D01*
X213775895Y-74356980D01*
X214013990Y-74356980D01*
X214109228Y-74404600D01*
X214156847Y-74452219D01*
X214204466Y-74547457D01*
X214204466Y-74642695D01*
X214156847Y-74785552D01*
X213585419Y-75356980D01*
X214204466Y-75356980D01*
X231162266Y-74382380D02*
X231162266Y-75096666D01*
X231114647Y-75239523D01*
X231019409Y-75334761D01*
X230876552Y-75382380D01*
X230781314Y-75382380D01*
X232162266Y-75382380D02*
X231590838Y-75382380D01*
X231876552Y-75382380D02*
X231876552Y-74382380D01*
X231781314Y-74525238D01*
X231686076Y-74620476D01*
X231590838Y-74668095D01*
X228757171Y-97835933D02*
X228757171Y-98169266D01*
X229280980Y-98169266D02*
X228280980Y-98169266D01*
X228280980Y-97693076D01*
X228757171Y-96978790D02*
X228804790Y-96835933D01*
X228852409Y-96788314D01*
X228947647Y-96740695D01*
X229090504Y-96740695D01*
X229185742Y-96788314D01*
X229233361Y-96835933D01*
X229280980Y-96931171D01*
X229280980Y-97312123D01*
X228280980Y-97312123D01*
X228280980Y-96978790D01*
X228328600Y-96883552D01*
X228376219Y-96835933D01*
X228471457Y-96788314D01*
X228566695Y-96788314D01*
X228661933Y-96835933D01*
X228709552Y-96883552D01*
X228757171Y-96978790D01*
X228757171Y-97312123D01*
X229280980Y-95788314D02*
X229280980Y-96359742D01*
X229280980Y-96074028D02*
X228280980Y-96074028D01*
X228423838Y-96169266D01*
X228519076Y-96264504D01*
X228566695Y-96359742D01*
X200594933Y-89892142D02*
X200547314Y-89939761D01*
X200404457Y-89987380D01*
X200309219Y-89987380D01*
X200166361Y-89939761D01*
X200071123Y-89844523D01*
X200023504Y-89749285D01*
X199975885Y-89558809D01*
X199975885Y-89415952D01*
X200023504Y-89225476D01*
X200071123Y-89130238D01*
X200166361Y-89035000D01*
X200309219Y-88987380D01*
X200404457Y-88987380D01*
X200547314Y-89035000D01*
X200594933Y-89082619D01*
X201166361Y-89415952D02*
X201071123Y-89368333D01*
X201023504Y-89320714D01*
X200975885Y-89225476D01*
X200975885Y-89177857D01*
X201023504Y-89082619D01*
X201071123Y-89035000D01*
X201166361Y-88987380D01*
X201356838Y-88987380D01*
X201452076Y-89035000D01*
X201499695Y-89082619D01*
X201547314Y-89177857D01*
X201547314Y-89225476D01*
X201499695Y-89320714D01*
X201452076Y-89368333D01*
X201356838Y-89415952D01*
X201166361Y-89415952D01*
X201071123Y-89463571D01*
X201023504Y-89511190D01*
X200975885Y-89606428D01*
X200975885Y-89796904D01*
X201023504Y-89892142D01*
X201071123Y-89939761D01*
X201166361Y-89987380D01*
X201356838Y-89987380D01*
X201452076Y-89939761D01*
X201499695Y-89892142D01*
X201547314Y-89796904D01*
X201547314Y-89606428D01*
X201499695Y-89511190D01*
X201452076Y-89463571D01*
X201356838Y-89415952D01*
X200747333Y-88114142D02*
X200699714Y-88161761D01*
X200556857Y-88209380D01*
X200461619Y-88209380D01*
X200318761Y-88161761D01*
X200223523Y-88066523D01*
X200175904Y-87971285D01*
X200128285Y-87780809D01*
X200128285Y-87637952D01*
X200175904Y-87447476D01*
X200223523Y-87352238D01*
X200318761Y-87257000D01*
X200461619Y-87209380D01*
X200556857Y-87209380D01*
X200699714Y-87257000D01*
X200747333Y-87304619D01*
X201080666Y-87209380D02*
X201747333Y-87209380D01*
X201318761Y-88209380D01*
X209043542Y-82589666D02*
X209091161Y-82637285D01*
X209138780Y-82780142D01*
X209138780Y-82875380D01*
X209091161Y-83018238D01*
X208995923Y-83113476D01*
X208900685Y-83161095D01*
X208710209Y-83208714D01*
X208567352Y-83208714D01*
X208376876Y-83161095D01*
X208281638Y-83113476D01*
X208186400Y-83018238D01*
X208138780Y-82875380D01*
X208138780Y-82780142D01*
X208186400Y-82637285D01*
X208234019Y-82589666D01*
X208138780Y-81732523D02*
X208138780Y-81923000D01*
X208186400Y-82018238D01*
X208234019Y-82065857D01*
X208376876Y-82161095D01*
X208567352Y-82208714D01*
X208948304Y-82208714D01*
X209043542Y-82161095D01*
X209091161Y-82113476D01*
X209138780Y-82018238D01*
X209138780Y-81827761D01*
X209091161Y-81732523D01*
X209043542Y-81684904D01*
X208948304Y-81637285D01*
X208710209Y-81637285D01*
X208614971Y-81684904D01*
X208567352Y-81732523D01*
X208519733Y-81827761D01*
X208519733Y-82018238D01*
X208567352Y-82113476D01*
X208614971Y-82161095D01*
X208710209Y-82208714D01*
X215848933Y-90494142D02*
X215801314Y-90541761D01*
X215658457Y-90589380D01*
X215563219Y-90589380D01*
X215420361Y-90541761D01*
X215325123Y-90446523D01*
X215277504Y-90351285D01*
X215229885Y-90160809D01*
X215229885Y-90017952D01*
X215277504Y-89827476D01*
X215325123Y-89732238D01*
X215420361Y-89637000D01*
X215563219Y-89589380D01*
X215658457Y-89589380D01*
X215801314Y-89637000D01*
X215848933Y-89684619D01*
X216753695Y-89589380D02*
X216277504Y-89589380D01*
X216229885Y-90065571D01*
X216277504Y-90017952D01*
X216372742Y-89970333D01*
X216610838Y-89970333D01*
X216706076Y-90017952D01*
X216753695Y-90065571D01*
X216801314Y-90160809D01*
X216801314Y-90398904D01*
X216753695Y-90494142D01*
X216706076Y-90541761D01*
X216610838Y-90589380D01*
X216372742Y-90589380D01*
X216277504Y-90541761D01*
X216229885Y-90494142D01*
X235638342Y-97178266D02*
X235685961Y-97225885D01*
X235733580Y-97368742D01*
X235733580Y-97463980D01*
X235685961Y-97606838D01*
X235590723Y-97702076D01*
X235495485Y-97749695D01*
X235305009Y-97797314D01*
X235162152Y-97797314D01*
X234971676Y-97749695D01*
X234876438Y-97702076D01*
X234781200Y-97606838D01*
X234733580Y-97463980D01*
X234733580Y-97368742D01*
X234781200Y-97225885D01*
X234828819Y-97178266D01*
X235066914Y-96321123D02*
X235733580Y-96321123D01*
X234685961Y-96559219D02*
X235400247Y-96797314D01*
X235400247Y-96178266D01*
X240121780Y-85571104D02*
X240931304Y-85571104D01*
X241026542Y-85523485D01*
X241074161Y-85475866D01*
X241121780Y-85380628D01*
X241121780Y-85190152D01*
X241074161Y-85094914D01*
X241026542Y-85047295D01*
X240931304Y-84999676D01*
X240121780Y-84999676D01*
X240217019Y-84571104D02*
X240169400Y-84523485D01*
X240121780Y-84428247D01*
X240121780Y-84190152D01*
X240169400Y-84094914D01*
X240217019Y-84047295D01*
X240312257Y-83999676D01*
X240407495Y-83999676D01*
X240550352Y-84047295D01*
X241121780Y-84618723D01*
X241121780Y-83999676D01*
X230963742Y-87466466D02*
X231011361Y-87514085D01*
X231058980Y-87656942D01*
X231058980Y-87752180D01*
X231011361Y-87895038D01*
X230916123Y-87990276D01*
X230820885Y-88037895D01*
X230630409Y-88085514D01*
X230487552Y-88085514D01*
X230297076Y-88037895D01*
X230201838Y-87990276D01*
X230106600Y-87895038D01*
X230058980Y-87752180D01*
X230058980Y-87656942D01*
X230106600Y-87514085D01*
X230154219Y-87466466D01*
X230154219Y-87085514D02*
X230106600Y-87037895D01*
X230058980Y-86942657D01*
X230058980Y-86704561D01*
X230106600Y-86609323D01*
X230154219Y-86561704D01*
X230249457Y-86514085D01*
X230344695Y-86514085D01*
X230487552Y-86561704D01*
X231058980Y-87133133D01*
X231058980Y-86514085D01*
X235277033Y-79969542D02*
X235229414Y-80017161D01*
X235086557Y-80064780D01*
X234991319Y-80064780D01*
X234848461Y-80017161D01*
X234753223Y-79921923D01*
X234705604Y-79826685D01*
X234657985Y-79636209D01*
X234657985Y-79493352D01*
X234705604Y-79302876D01*
X234753223Y-79207638D01*
X234848461Y-79112400D01*
X234991319Y-79064780D01*
X235086557Y-79064780D01*
X235229414Y-79112400D01*
X235277033Y-79160019D01*
X236229414Y-80064780D02*
X235657985Y-80064780D01*
X235943700Y-80064780D02*
X235943700Y-79064780D01*
X235848461Y-79207638D01*
X235753223Y-79302876D01*
X235657985Y-79350495D01*
M02*
