G04 #@! TF.GenerationSoftware,KiCad,Pcbnew,5.1.5-52549c5~86~ubuntu18.04.1*
G04 #@! TF.CreationDate,2020-04-19T01:33:55+01:00*
G04 #@! TF.ProjectId,scot-controller,73636f74-2d63-46f6-9e74-726f6c6c6572,rev?*
G04 #@! TF.SameCoordinates,Original*
G04 #@! TF.FileFunction,Soldermask,Bot*
G04 #@! TF.FilePolarity,Negative*
%FSLAX46Y46*%
G04 Gerber Fmt 4.6, Leading zero omitted, Abs format (unit mm)*
G04 Created by KiCad (PCBNEW 5.1.5-52549c5~86~ubuntu18.04.1) date 2020-04-19 01:33:55*
%MOMM*%
%LPD*%
G04 APERTURE LIST*
%ADD10C,0.100000*%
G04 APERTURE END LIST*
D10*
G36*
X195320228Y-112537903D02*
G01*
X195475100Y-112602053D01*
X195614481Y-112695185D01*
X195733015Y-112813719D01*
X195826147Y-112953100D01*
X195890297Y-113107972D01*
X195923000Y-113272384D01*
X195923000Y-113440016D01*
X195890297Y-113604428D01*
X195826147Y-113759300D01*
X195733015Y-113898681D01*
X195614481Y-114017215D01*
X195475100Y-114110347D01*
X195320228Y-114174497D01*
X195155816Y-114207200D01*
X194988184Y-114207200D01*
X194823772Y-114174497D01*
X194668900Y-114110347D01*
X194529519Y-114017215D01*
X194410985Y-113898681D01*
X194317853Y-113759300D01*
X194253703Y-113604428D01*
X194221000Y-113440016D01*
X194221000Y-113272384D01*
X194253703Y-113107972D01*
X194317853Y-112953100D01*
X194410985Y-112813719D01*
X194529519Y-112695185D01*
X194668900Y-112602053D01*
X194823772Y-112537903D01*
X194988184Y-112505200D01*
X195155816Y-112505200D01*
X195320228Y-112537903D01*
G37*
G36*
X195320228Y-109997903D02*
G01*
X195475100Y-110062053D01*
X195614481Y-110155185D01*
X195733015Y-110273719D01*
X195826147Y-110413100D01*
X195890297Y-110567972D01*
X195923000Y-110732384D01*
X195923000Y-110900016D01*
X195890297Y-111064428D01*
X195826147Y-111219300D01*
X195733015Y-111358681D01*
X195614481Y-111477215D01*
X195475100Y-111570347D01*
X195320228Y-111634497D01*
X195155816Y-111667200D01*
X194988184Y-111667200D01*
X194823772Y-111634497D01*
X194668900Y-111570347D01*
X194529519Y-111477215D01*
X194410985Y-111358681D01*
X194317853Y-111219300D01*
X194253703Y-111064428D01*
X194221000Y-110900016D01*
X194221000Y-110732384D01*
X194253703Y-110567972D01*
X194317853Y-110413100D01*
X194410985Y-110273719D01*
X194529519Y-110155185D01*
X194668900Y-110062053D01*
X194823772Y-109997903D01*
X194988184Y-109965200D01*
X195155816Y-109965200D01*
X195320228Y-109997903D01*
G37*
G36*
X195320228Y-107457903D02*
G01*
X195475100Y-107522053D01*
X195614481Y-107615185D01*
X195733015Y-107733719D01*
X195826147Y-107873100D01*
X195890297Y-108027972D01*
X195923000Y-108192384D01*
X195923000Y-108360016D01*
X195890297Y-108524428D01*
X195826147Y-108679300D01*
X195733015Y-108818681D01*
X195614481Y-108937215D01*
X195475100Y-109030347D01*
X195320228Y-109094497D01*
X195155816Y-109127200D01*
X194988184Y-109127200D01*
X194823772Y-109094497D01*
X194668900Y-109030347D01*
X194529519Y-108937215D01*
X194410985Y-108818681D01*
X194317853Y-108679300D01*
X194253703Y-108524428D01*
X194221000Y-108360016D01*
X194221000Y-108192384D01*
X194253703Y-108027972D01*
X194317853Y-107873100D01*
X194410985Y-107733719D01*
X194529519Y-107615185D01*
X194668900Y-107522053D01*
X194823772Y-107457903D01*
X194988184Y-107425200D01*
X195155816Y-107425200D01*
X195320228Y-107457903D01*
G37*
G36*
X195320228Y-104917903D02*
G01*
X195475100Y-104982053D01*
X195614481Y-105075185D01*
X195733015Y-105193719D01*
X195826147Y-105333100D01*
X195890297Y-105487972D01*
X195923000Y-105652384D01*
X195923000Y-105820016D01*
X195890297Y-105984428D01*
X195826147Y-106139300D01*
X195733015Y-106278681D01*
X195614481Y-106397215D01*
X195475100Y-106490347D01*
X195320228Y-106554497D01*
X195155816Y-106587200D01*
X194988184Y-106587200D01*
X194823772Y-106554497D01*
X194668900Y-106490347D01*
X194529519Y-106397215D01*
X194410985Y-106278681D01*
X194317853Y-106139300D01*
X194253703Y-105984428D01*
X194221000Y-105820016D01*
X194221000Y-105652384D01*
X194253703Y-105487972D01*
X194317853Y-105333100D01*
X194410985Y-105193719D01*
X194529519Y-105075185D01*
X194668900Y-104982053D01*
X194823772Y-104917903D01*
X194988184Y-104885200D01*
X195155816Y-104885200D01*
X195320228Y-104917903D01*
G37*
G36*
X244183000Y-105067200D02*
G01*
X242481000Y-105067200D01*
X242481000Y-103365200D01*
X244183000Y-103365200D01*
X244183000Y-105067200D01*
G37*
G36*
X195320228Y-102377903D02*
G01*
X195475100Y-102442053D01*
X195614481Y-102535185D01*
X195733015Y-102653719D01*
X195826147Y-102793100D01*
X195890297Y-102947972D01*
X195923000Y-103112384D01*
X195923000Y-103280016D01*
X195890297Y-103444428D01*
X195826147Y-103599300D01*
X195733015Y-103738681D01*
X195614481Y-103857215D01*
X195475100Y-103950347D01*
X195320228Y-104014497D01*
X195155816Y-104047200D01*
X194988184Y-104047200D01*
X194823772Y-104014497D01*
X194668900Y-103950347D01*
X194529519Y-103857215D01*
X194410985Y-103738681D01*
X194317853Y-103599300D01*
X194253703Y-103444428D01*
X194221000Y-103280016D01*
X194221000Y-103112384D01*
X194253703Y-102947972D01*
X194317853Y-102793100D01*
X194410985Y-102653719D01*
X194529519Y-102535185D01*
X194668900Y-102442053D01*
X194823772Y-102377903D01*
X194988184Y-102345200D01*
X195155816Y-102345200D01*
X195320228Y-102377903D01*
G37*
G36*
X243580228Y-100857903D02*
G01*
X243735100Y-100922053D01*
X243874481Y-101015185D01*
X243993015Y-101133719D01*
X244086147Y-101273100D01*
X244150297Y-101427972D01*
X244183000Y-101592384D01*
X244183000Y-101760016D01*
X244150297Y-101924428D01*
X244086147Y-102079300D01*
X243993015Y-102218681D01*
X243874481Y-102337215D01*
X243735100Y-102430347D01*
X243580228Y-102494497D01*
X243415816Y-102527200D01*
X243248184Y-102527200D01*
X243083772Y-102494497D01*
X242928900Y-102430347D01*
X242789519Y-102337215D01*
X242670985Y-102218681D01*
X242577853Y-102079300D01*
X242513703Y-101924428D01*
X242481000Y-101760016D01*
X242481000Y-101592384D01*
X242513703Y-101427972D01*
X242577853Y-101273100D01*
X242670985Y-101133719D01*
X242789519Y-101015185D01*
X242928900Y-100922053D01*
X243083772Y-100857903D01*
X243248184Y-100825200D01*
X243415816Y-100825200D01*
X243580228Y-100857903D01*
G37*
G36*
X195320228Y-99837903D02*
G01*
X195475100Y-99902053D01*
X195614481Y-99995185D01*
X195733015Y-100113719D01*
X195826147Y-100253100D01*
X195890297Y-100407972D01*
X195923000Y-100572384D01*
X195923000Y-100740016D01*
X195890297Y-100904428D01*
X195826147Y-101059300D01*
X195733015Y-101198681D01*
X195614481Y-101317215D01*
X195475100Y-101410347D01*
X195320228Y-101474497D01*
X195155816Y-101507200D01*
X194988184Y-101507200D01*
X194823772Y-101474497D01*
X194668900Y-101410347D01*
X194529519Y-101317215D01*
X194410985Y-101198681D01*
X194317853Y-101059300D01*
X194253703Y-100904428D01*
X194221000Y-100740016D01*
X194221000Y-100572384D01*
X194253703Y-100407972D01*
X194317853Y-100253100D01*
X194410985Y-100113719D01*
X194529519Y-99995185D01*
X194668900Y-99902053D01*
X194823772Y-99837903D01*
X194988184Y-99805200D01*
X195155816Y-99805200D01*
X195320228Y-99837903D01*
G37*
G36*
X243580228Y-98317903D02*
G01*
X243735100Y-98382053D01*
X243874481Y-98475185D01*
X243993015Y-98593719D01*
X244086147Y-98733100D01*
X244150297Y-98887972D01*
X244183000Y-99052384D01*
X244183000Y-99220016D01*
X244150297Y-99384428D01*
X244086147Y-99539300D01*
X243993015Y-99678681D01*
X243874481Y-99797215D01*
X243735100Y-99890347D01*
X243580228Y-99954497D01*
X243415816Y-99987200D01*
X243248184Y-99987200D01*
X243083772Y-99954497D01*
X242928900Y-99890347D01*
X242789519Y-99797215D01*
X242670985Y-99678681D01*
X242577853Y-99539300D01*
X242513703Y-99384428D01*
X242481000Y-99220016D01*
X242481000Y-99052384D01*
X242513703Y-98887972D01*
X242577853Y-98733100D01*
X242670985Y-98593719D01*
X242789519Y-98475185D01*
X242928900Y-98382053D01*
X243083772Y-98317903D01*
X243248184Y-98285200D01*
X243415816Y-98285200D01*
X243580228Y-98317903D01*
G37*
G36*
X195320228Y-97297903D02*
G01*
X195475100Y-97362053D01*
X195614481Y-97455185D01*
X195733015Y-97573719D01*
X195826147Y-97713100D01*
X195890297Y-97867972D01*
X195923000Y-98032384D01*
X195923000Y-98200016D01*
X195890297Y-98364428D01*
X195826147Y-98519300D01*
X195733015Y-98658681D01*
X195614481Y-98777215D01*
X195475100Y-98870347D01*
X195320228Y-98934497D01*
X195155816Y-98967200D01*
X194988184Y-98967200D01*
X194823772Y-98934497D01*
X194668900Y-98870347D01*
X194529519Y-98777215D01*
X194410985Y-98658681D01*
X194317853Y-98519300D01*
X194253703Y-98364428D01*
X194221000Y-98200016D01*
X194221000Y-98032384D01*
X194253703Y-97867972D01*
X194317853Y-97713100D01*
X194410985Y-97573719D01*
X194529519Y-97455185D01*
X194668900Y-97362053D01*
X194823772Y-97297903D01*
X194988184Y-97265200D01*
X195155816Y-97265200D01*
X195320228Y-97297903D01*
G37*
G36*
X243580228Y-95777903D02*
G01*
X243735100Y-95842053D01*
X243874481Y-95935185D01*
X243993015Y-96053719D01*
X244086147Y-96193100D01*
X244150297Y-96347972D01*
X244183000Y-96512384D01*
X244183000Y-96680016D01*
X244150297Y-96844428D01*
X244086147Y-96999300D01*
X243993015Y-97138681D01*
X243874481Y-97257215D01*
X243735100Y-97350347D01*
X243580228Y-97414497D01*
X243415816Y-97447200D01*
X243248184Y-97447200D01*
X243083772Y-97414497D01*
X242928900Y-97350347D01*
X242789519Y-97257215D01*
X242670985Y-97138681D01*
X242577853Y-96999300D01*
X242513703Y-96844428D01*
X242481000Y-96680016D01*
X242481000Y-96512384D01*
X242513703Y-96347972D01*
X242577853Y-96193100D01*
X242670985Y-96053719D01*
X242789519Y-95935185D01*
X242928900Y-95842053D01*
X243083772Y-95777903D01*
X243248184Y-95745200D01*
X243415816Y-95745200D01*
X243580228Y-95777903D01*
G37*
G36*
X195320228Y-94757903D02*
G01*
X195475100Y-94822053D01*
X195614481Y-94915185D01*
X195733015Y-95033719D01*
X195826147Y-95173100D01*
X195890297Y-95327972D01*
X195923000Y-95492384D01*
X195923000Y-95660016D01*
X195890297Y-95824428D01*
X195826147Y-95979300D01*
X195733015Y-96118681D01*
X195614481Y-96237215D01*
X195475100Y-96330347D01*
X195320228Y-96394497D01*
X195155816Y-96427200D01*
X194988184Y-96427200D01*
X194823772Y-96394497D01*
X194668900Y-96330347D01*
X194529519Y-96237215D01*
X194410985Y-96118681D01*
X194317853Y-95979300D01*
X194253703Y-95824428D01*
X194221000Y-95660016D01*
X194221000Y-95492384D01*
X194253703Y-95327972D01*
X194317853Y-95173100D01*
X194410985Y-95033719D01*
X194529519Y-94915185D01*
X194668900Y-94822053D01*
X194823772Y-94757903D01*
X194988184Y-94725200D01*
X195155816Y-94725200D01*
X195320228Y-94757903D01*
G37*
G36*
X243580228Y-93237903D02*
G01*
X243735100Y-93302053D01*
X243874481Y-93395185D01*
X243993015Y-93513719D01*
X244086147Y-93653100D01*
X244150297Y-93807972D01*
X244183000Y-93972384D01*
X244183000Y-94140016D01*
X244150297Y-94304428D01*
X244086147Y-94459300D01*
X243993015Y-94598681D01*
X243874481Y-94717215D01*
X243735100Y-94810347D01*
X243580228Y-94874497D01*
X243415816Y-94907200D01*
X243248184Y-94907200D01*
X243083772Y-94874497D01*
X242928900Y-94810347D01*
X242789519Y-94717215D01*
X242670985Y-94598681D01*
X242577853Y-94459300D01*
X242513703Y-94304428D01*
X242481000Y-94140016D01*
X242481000Y-93972384D01*
X242513703Y-93807972D01*
X242577853Y-93653100D01*
X242670985Y-93513719D01*
X242789519Y-93395185D01*
X242928900Y-93302053D01*
X243083772Y-93237903D01*
X243248184Y-93205200D01*
X243415816Y-93205200D01*
X243580228Y-93237903D01*
G37*
G36*
X195320228Y-92217903D02*
G01*
X195475100Y-92282053D01*
X195614481Y-92375185D01*
X195733015Y-92493719D01*
X195826147Y-92633100D01*
X195890297Y-92787972D01*
X195923000Y-92952384D01*
X195923000Y-93120016D01*
X195890297Y-93284428D01*
X195826147Y-93439300D01*
X195733015Y-93578681D01*
X195614481Y-93697215D01*
X195475100Y-93790347D01*
X195320228Y-93854497D01*
X195155816Y-93887200D01*
X194988184Y-93887200D01*
X194823772Y-93854497D01*
X194668900Y-93790347D01*
X194529519Y-93697215D01*
X194410985Y-93578681D01*
X194317853Y-93439300D01*
X194253703Y-93284428D01*
X194221000Y-93120016D01*
X194221000Y-92952384D01*
X194253703Y-92787972D01*
X194317853Y-92633100D01*
X194410985Y-92493719D01*
X194529519Y-92375185D01*
X194668900Y-92282053D01*
X194823772Y-92217903D01*
X194988184Y-92185200D01*
X195155816Y-92185200D01*
X195320228Y-92217903D01*
G37*
G36*
X243580228Y-90697903D02*
G01*
X243735100Y-90762053D01*
X243874481Y-90855185D01*
X243993015Y-90973719D01*
X244086147Y-91113100D01*
X244150297Y-91267972D01*
X244183000Y-91432384D01*
X244183000Y-91600016D01*
X244150297Y-91764428D01*
X244086147Y-91919300D01*
X243993015Y-92058681D01*
X243874481Y-92177215D01*
X243735100Y-92270347D01*
X243580228Y-92334497D01*
X243415816Y-92367200D01*
X243248184Y-92367200D01*
X243083772Y-92334497D01*
X242928900Y-92270347D01*
X242789519Y-92177215D01*
X242670985Y-92058681D01*
X242577853Y-91919300D01*
X242513703Y-91764428D01*
X242481000Y-91600016D01*
X242481000Y-91432384D01*
X242513703Y-91267972D01*
X242577853Y-91113100D01*
X242670985Y-90973719D01*
X242789519Y-90855185D01*
X242928900Y-90762053D01*
X243083772Y-90697903D01*
X243248184Y-90665200D01*
X243415816Y-90665200D01*
X243580228Y-90697903D01*
G37*
G36*
X234537971Y-90592063D02*
G01*
X234616423Y-90599790D01*
X234717082Y-90630325D01*
X234767413Y-90645592D01*
X234906565Y-90719971D01*
X235028533Y-90820067D01*
X235128629Y-90942035D01*
X235203008Y-91081187D01*
X235212689Y-91113103D01*
X235248810Y-91232177D01*
X235264275Y-91389200D01*
X235248810Y-91546223D01*
X235232492Y-91600015D01*
X235203008Y-91697213D01*
X235128629Y-91836365D01*
X235028533Y-91958333D01*
X234906565Y-92058429D01*
X234767413Y-92132808D01*
X234717082Y-92148075D01*
X234616423Y-92178610D01*
X234549512Y-92185200D01*
X234498746Y-92190200D01*
X233420054Y-92190200D01*
X233369288Y-92185200D01*
X233302377Y-92178610D01*
X233201718Y-92148075D01*
X233151387Y-92132808D01*
X233012235Y-92058429D01*
X232890267Y-91958333D01*
X232790171Y-91836365D01*
X232715792Y-91697213D01*
X232686308Y-91600015D01*
X232669990Y-91546223D01*
X232654525Y-91389200D01*
X232669990Y-91232177D01*
X232706111Y-91113103D01*
X232715792Y-91081187D01*
X232790171Y-90942035D01*
X232890267Y-90820067D01*
X233012235Y-90719971D01*
X233151387Y-90645592D01*
X233201718Y-90630325D01*
X233302377Y-90599790D01*
X233380829Y-90592063D01*
X233420054Y-90588200D01*
X234498746Y-90588200D01*
X234537971Y-90592063D01*
G37*
G36*
X195320228Y-89677903D02*
G01*
X195475100Y-89742053D01*
X195614481Y-89835185D01*
X195733015Y-89953719D01*
X195826147Y-90093100D01*
X195890297Y-90247972D01*
X195923000Y-90412384D01*
X195923000Y-90580016D01*
X195890297Y-90744428D01*
X195826147Y-90899300D01*
X195733015Y-91038681D01*
X195614481Y-91157215D01*
X195475100Y-91250347D01*
X195320228Y-91314497D01*
X195155816Y-91347200D01*
X194988184Y-91347200D01*
X194823772Y-91314497D01*
X194668900Y-91250347D01*
X194529519Y-91157215D01*
X194410985Y-91038681D01*
X194317853Y-90899300D01*
X194253703Y-90744428D01*
X194221000Y-90580016D01*
X194221000Y-90412384D01*
X194253703Y-90247972D01*
X194317853Y-90093100D01*
X194410985Y-89953719D01*
X194529519Y-89835185D01*
X194668900Y-89742053D01*
X194823772Y-89677903D01*
X194988184Y-89645200D01*
X195155816Y-89645200D01*
X195320228Y-89677903D01*
G37*
G36*
X243580228Y-88157903D02*
G01*
X243735100Y-88222053D01*
X243874481Y-88315185D01*
X243993015Y-88433719D01*
X244086147Y-88573100D01*
X244150297Y-88727972D01*
X244183000Y-88892384D01*
X244183000Y-89060016D01*
X244150297Y-89224428D01*
X244086147Y-89379300D01*
X243993015Y-89518681D01*
X243874481Y-89637215D01*
X243735100Y-89730347D01*
X243580228Y-89794497D01*
X243415816Y-89827200D01*
X243248184Y-89827200D01*
X243083772Y-89794497D01*
X242928900Y-89730347D01*
X242789519Y-89637215D01*
X242670985Y-89518681D01*
X242577853Y-89379300D01*
X242513703Y-89224428D01*
X242481000Y-89060016D01*
X242481000Y-88892384D01*
X242513703Y-88727972D01*
X242577853Y-88573100D01*
X242670985Y-88433719D01*
X242789519Y-88315185D01*
X242928900Y-88222053D01*
X243083772Y-88157903D01*
X243248184Y-88125200D01*
X243415816Y-88125200D01*
X243580228Y-88157903D01*
G37*
G36*
X234537971Y-88052063D02*
G01*
X234616423Y-88059790D01*
X234717082Y-88090325D01*
X234767413Y-88105592D01*
X234906565Y-88179971D01*
X235028533Y-88280067D01*
X235128629Y-88402035D01*
X235203008Y-88541187D01*
X235212689Y-88573103D01*
X235248810Y-88692177D01*
X235264275Y-88849200D01*
X235248810Y-89006223D01*
X235232492Y-89060015D01*
X235203008Y-89157213D01*
X235128629Y-89296365D01*
X235028533Y-89418333D01*
X234906565Y-89518429D01*
X234767413Y-89592808D01*
X234717082Y-89608075D01*
X234616423Y-89638610D01*
X234549512Y-89645200D01*
X234498746Y-89650200D01*
X233420054Y-89650200D01*
X233369288Y-89645200D01*
X233302377Y-89638610D01*
X233201718Y-89608075D01*
X233151387Y-89592808D01*
X233012235Y-89518429D01*
X232890267Y-89418333D01*
X232790171Y-89296365D01*
X232715792Y-89157213D01*
X232686308Y-89060015D01*
X232669990Y-89006223D01*
X232654525Y-88849200D01*
X232669990Y-88692177D01*
X232706111Y-88573103D01*
X232715792Y-88541187D01*
X232790171Y-88402035D01*
X232890267Y-88280067D01*
X233012235Y-88179971D01*
X233151387Y-88105592D01*
X233201718Y-88090325D01*
X233302377Y-88059790D01*
X233380829Y-88052063D01*
X233420054Y-88048200D01*
X234498746Y-88048200D01*
X234537971Y-88052063D01*
G37*
G36*
X195320228Y-85617903D02*
G01*
X195475100Y-85682053D01*
X195614481Y-85775185D01*
X195733015Y-85893719D01*
X195826147Y-86033100D01*
X195890297Y-86187972D01*
X195923000Y-86352384D01*
X195923000Y-86520016D01*
X195890297Y-86684428D01*
X195826147Y-86839300D01*
X195733015Y-86978681D01*
X195614481Y-87097215D01*
X195475100Y-87190347D01*
X195320228Y-87254497D01*
X195155816Y-87287200D01*
X194988184Y-87287200D01*
X194823772Y-87254497D01*
X194668900Y-87190347D01*
X194529519Y-87097215D01*
X194410985Y-86978681D01*
X194317853Y-86839300D01*
X194253703Y-86684428D01*
X194221000Y-86520016D01*
X194221000Y-86352384D01*
X194253703Y-86187972D01*
X194317853Y-86033100D01*
X194410985Y-85893719D01*
X194529519Y-85775185D01*
X194668900Y-85682053D01*
X194823772Y-85617903D01*
X194988184Y-85585200D01*
X195155816Y-85585200D01*
X195320228Y-85617903D01*
G37*
G36*
X243580228Y-85617903D02*
G01*
X243735100Y-85682053D01*
X243874481Y-85775185D01*
X243993015Y-85893719D01*
X244086147Y-86033100D01*
X244150297Y-86187972D01*
X244183000Y-86352384D01*
X244183000Y-86520016D01*
X244150297Y-86684428D01*
X244086147Y-86839300D01*
X243993015Y-86978681D01*
X243874481Y-87097215D01*
X243735100Y-87190347D01*
X243580228Y-87254497D01*
X243415816Y-87287200D01*
X243248184Y-87287200D01*
X243083772Y-87254497D01*
X242928900Y-87190347D01*
X242789519Y-87097215D01*
X242670985Y-86978681D01*
X242577853Y-86839300D01*
X242513703Y-86684428D01*
X242481000Y-86520016D01*
X242481000Y-86352384D01*
X242513703Y-86187972D01*
X242577853Y-86033100D01*
X242670985Y-85893719D01*
X242789519Y-85775185D01*
X242928900Y-85682053D01*
X243083772Y-85617903D01*
X243248184Y-85585200D01*
X243415816Y-85585200D01*
X243580228Y-85617903D01*
G37*
G36*
X235260400Y-87110200D02*
G01*
X232658400Y-87110200D01*
X232658400Y-85508200D01*
X235260400Y-85508200D01*
X235260400Y-87110200D01*
G37*
G36*
X195320228Y-83077903D02*
G01*
X195475100Y-83142053D01*
X195614481Y-83235185D01*
X195733015Y-83353719D01*
X195826147Y-83493100D01*
X195890297Y-83647972D01*
X195923000Y-83812384D01*
X195923000Y-83980016D01*
X195890297Y-84144428D01*
X195826147Y-84299300D01*
X195733015Y-84438681D01*
X195614481Y-84557215D01*
X195475100Y-84650347D01*
X195320228Y-84714497D01*
X195155816Y-84747200D01*
X194988184Y-84747200D01*
X194823772Y-84714497D01*
X194668900Y-84650347D01*
X194529519Y-84557215D01*
X194410985Y-84438681D01*
X194317853Y-84299300D01*
X194253703Y-84144428D01*
X194221000Y-83980016D01*
X194221000Y-83812384D01*
X194253703Y-83647972D01*
X194317853Y-83493100D01*
X194410985Y-83353719D01*
X194529519Y-83235185D01*
X194668900Y-83142053D01*
X194823772Y-83077903D01*
X194988184Y-83045200D01*
X195155816Y-83045200D01*
X195320228Y-83077903D01*
G37*
G36*
X243580228Y-80537903D02*
G01*
X243735100Y-80602053D01*
X243874481Y-80695185D01*
X243993015Y-80813719D01*
X244086147Y-80953100D01*
X244150297Y-81107972D01*
X244183000Y-81272384D01*
X244183000Y-81440016D01*
X244150297Y-81604428D01*
X244086147Y-81759300D01*
X243993015Y-81898681D01*
X243874481Y-82017215D01*
X243735100Y-82110347D01*
X243580228Y-82174497D01*
X243415816Y-82207200D01*
X243248184Y-82207200D01*
X243083772Y-82174497D01*
X242928900Y-82110347D01*
X242789519Y-82017215D01*
X242670985Y-81898681D01*
X242577853Y-81759300D01*
X242513703Y-81604428D01*
X242481000Y-81440016D01*
X242481000Y-81272384D01*
X242513703Y-81107972D01*
X242577853Y-80953100D01*
X242670985Y-80813719D01*
X242789519Y-80695185D01*
X242928900Y-80602053D01*
X243083772Y-80537903D01*
X243248184Y-80505200D01*
X243415816Y-80505200D01*
X243580228Y-80537903D01*
G37*
G36*
X195320228Y-80537903D02*
G01*
X195475100Y-80602053D01*
X195614481Y-80695185D01*
X195733015Y-80813719D01*
X195826147Y-80953100D01*
X195890297Y-81107972D01*
X195923000Y-81272384D01*
X195923000Y-81440016D01*
X195890297Y-81604428D01*
X195826147Y-81759300D01*
X195733015Y-81898681D01*
X195614481Y-82017215D01*
X195475100Y-82110347D01*
X195320228Y-82174497D01*
X195155816Y-82207200D01*
X194988184Y-82207200D01*
X194823772Y-82174497D01*
X194668900Y-82110347D01*
X194529519Y-82017215D01*
X194410985Y-81898681D01*
X194317853Y-81759300D01*
X194253703Y-81604428D01*
X194221000Y-81440016D01*
X194221000Y-81272384D01*
X194253703Y-81107972D01*
X194317853Y-80953100D01*
X194410985Y-80813719D01*
X194529519Y-80695185D01*
X194668900Y-80602053D01*
X194823772Y-80537903D01*
X194988184Y-80505200D01*
X195155816Y-80505200D01*
X195320228Y-80537903D01*
G37*
G36*
X243580228Y-77997903D02*
G01*
X243735100Y-78062053D01*
X243874481Y-78155185D01*
X243993015Y-78273719D01*
X244086147Y-78413100D01*
X244150297Y-78567972D01*
X244183000Y-78732384D01*
X244183000Y-78900016D01*
X244150297Y-79064428D01*
X244086147Y-79219300D01*
X243993015Y-79358681D01*
X243874481Y-79477215D01*
X243735100Y-79570347D01*
X243580228Y-79634497D01*
X243415816Y-79667200D01*
X243248184Y-79667200D01*
X243083772Y-79634497D01*
X242928900Y-79570347D01*
X242789519Y-79477215D01*
X242670985Y-79358681D01*
X242577853Y-79219300D01*
X242513703Y-79064428D01*
X242481000Y-78900016D01*
X242481000Y-78732384D01*
X242513703Y-78567972D01*
X242577853Y-78413100D01*
X242670985Y-78273719D01*
X242789519Y-78155185D01*
X242928900Y-78062053D01*
X243083772Y-77997903D01*
X243248184Y-77965200D01*
X243415816Y-77965200D01*
X243580228Y-77997903D01*
G37*
G36*
X195320228Y-77997903D02*
G01*
X195475100Y-78062053D01*
X195614481Y-78155185D01*
X195733015Y-78273719D01*
X195826147Y-78413100D01*
X195890297Y-78567972D01*
X195923000Y-78732384D01*
X195923000Y-78900016D01*
X195890297Y-79064428D01*
X195826147Y-79219300D01*
X195733015Y-79358681D01*
X195614481Y-79477215D01*
X195475100Y-79570347D01*
X195320228Y-79634497D01*
X195155816Y-79667200D01*
X194988184Y-79667200D01*
X194823772Y-79634497D01*
X194668900Y-79570347D01*
X194529519Y-79477215D01*
X194410985Y-79358681D01*
X194317853Y-79219300D01*
X194253703Y-79064428D01*
X194221000Y-78900016D01*
X194221000Y-78732384D01*
X194253703Y-78567972D01*
X194317853Y-78413100D01*
X194410985Y-78273719D01*
X194529519Y-78155185D01*
X194668900Y-78062053D01*
X194823772Y-77997903D01*
X194988184Y-77965200D01*
X195155816Y-77965200D01*
X195320228Y-77997903D01*
G37*
G36*
X243580228Y-75457903D02*
G01*
X243735100Y-75522053D01*
X243874481Y-75615185D01*
X243993015Y-75733719D01*
X244086147Y-75873100D01*
X244150297Y-76027972D01*
X244183000Y-76192384D01*
X244183000Y-76360016D01*
X244150297Y-76524428D01*
X244086147Y-76679300D01*
X243993015Y-76818681D01*
X243874481Y-76937215D01*
X243735100Y-77030347D01*
X243580228Y-77094497D01*
X243415816Y-77127200D01*
X243248184Y-77127200D01*
X243083772Y-77094497D01*
X242928900Y-77030347D01*
X242789519Y-76937215D01*
X242670985Y-76818681D01*
X242577853Y-76679300D01*
X242513703Y-76524428D01*
X242481000Y-76360016D01*
X242481000Y-76192384D01*
X242513703Y-76027972D01*
X242577853Y-75873100D01*
X242670985Y-75733719D01*
X242789519Y-75615185D01*
X242928900Y-75522053D01*
X243083772Y-75457903D01*
X243248184Y-75425200D01*
X243415816Y-75425200D01*
X243580228Y-75457903D01*
G37*
G36*
X195320228Y-75457903D02*
G01*
X195475100Y-75522053D01*
X195614481Y-75615185D01*
X195733015Y-75733719D01*
X195826147Y-75873100D01*
X195890297Y-76027972D01*
X195923000Y-76192384D01*
X195923000Y-76360016D01*
X195890297Y-76524428D01*
X195826147Y-76679300D01*
X195733015Y-76818681D01*
X195614481Y-76937215D01*
X195475100Y-77030347D01*
X195320228Y-77094497D01*
X195155816Y-77127200D01*
X194988184Y-77127200D01*
X194823772Y-77094497D01*
X194668900Y-77030347D01*
X194529519Y-76937215D01*
X194410985Y-76818681D01*
X194317853Y-76679300D01*
X194253703Y-76524428D01*
X194221000Y-76360016D01*
X194221000Y-76192384D01*
X194253703Y-76027972D01*
X194317853Y-75873100D01*
X194410985Y-75733719D01*
X194529519Y-75615185D01*
X194668900Y-75522053D01*
X194823772Y-75457903D01*
X194988184Y-75425200D01*
X195155816Y-75425200D01*
X195320228Y-75457903D01*
G37*
G36*
X195320228Y-72917903D02*
G01*
X195475100Y-72982053D01*
X195614481Y-73075185D01*
X195733015Y-73193719D01*
X195826147Y-73333100D01*
X195890297Y-73487972D01*
X195923000Y-73652384D01*
X195923000Y-73820016D01*
X195890297Y-73984428D01*
X195826147Y-74139300D01*
X195733015Y-74278681D01*
X195614481Y-74397215D01*
X195475100Y-74490347D01*
X195320228Y-74554497D01*
X195155816Y-74587200D01*
X194988184Y-74587200D01*
X194823772Y-74554497D01*
X194668900Y-74490347D01*
X194529519Y-74397215D01*
X194410985Y-74278681D01*
X194317853Y-74139300D01*
X194253703Y-73984428D01*
X194221000Y-73820016D01*
X194221000Y-73652384D01*
X194253703Y-73487972D01*
X194317853Y-73333100D01*
X194410985Y-73193719D01*
X194529519Y-73075185D01*
X194668900Y-72982053D01*
X194823772Y-72917903D01*
X194988184Y-72885200D01*
X195155816Y-72885200D01*
X195320228Y-72917903D01*
G37*
G36*
X243580228Y-72917903D02*
G01*
X243735100Y-72982053D01*
X243874481Y-73075185D01*
X243993015Y-73193719D01*
X244086147Y-73333100D01*
X244150297Y-73487972D01*
X244183000Y-73652384D01*
X244183000Y-73820016D01*
X244150297Y-73984428D01*
X244086147Y-74139300D01*
X243993015Y-74278681D01*
X243874481Y-74397215D01*
X243735100Y-74490347D01*
X243580228Y-74554497D01*
X243415816Y-74587200D01*
X243248184Y-74587200D01*
X243083772Y-74554497D01*
X242928900Y-74490347D01*
X242789519Y-74397215D01*
X242670985Y-74278681D01*
X242577853Y-74139300D01*
X242513703Y-73984428D01*
X242481000Y-73820016D01*
X242481000Y-73652384D01*
X242513703Y-73487972D01*
X242577853Y-73333100D01*
X242670985Y-73193719D01*
X242789519Y-73075185D01*
X242928900Y-72982053D01*
X243083772Y-72917903D01*
X243248184Y-72885200D01*
X243415816Y-72885200D01*
X243580228Y-72917903D01*
G37*
G36*
X222436600Y-73186200D02*
G01*
X220234600Y-73186200D01*
X220234600Y-70984200D01*
X222436600Y-70984200D01*
X222436600Y-73186200D01*
G37*
G36*
X201255794Y-71005355D02*
G01*
X201362150Y-71026511D01*
X201562520Y-71109507D01*
X201742844Y-71229995D01*
X201896205Y-71383356D01*
X202016693Y-71563680D01*
X202016693Y-71563681D01*
X202089181Y-71738681D01*
X202099689Y-71764051D01*
X202142000Y-71976760D01*
X202142000Y-72193640D01*
X202099689Y-72406349D01*
X202016693Y-72606720D01*
X201896205Y-72787044D01*
X201742844Y-72940405D01*
X201562520Y-73060893D01*
X201362150Y-73143889D01*
X201255795Y-73165044D01*
X201149440Y-73186200D01*
X200932560Y-73186200D01*
X200826205Y-73165044D01*
X200719850Y-73143889D01*
X200619666Y-73102391D01*
X200519480Y-73060893D01*
X200339156Y-72940405D01*
X200185795Y-72787044D01*
X200065307Y-72606720D01*
X199982311Y-72406349D01*
X199940000Y-72193640D01*
X199940000Y-71976760D01*
X199982311Y-71764051D01*
X199992820Y-71738681D01*
X200065307Y-71563681D01*
X200065307Y-71563680D01*
X200185795Y-71383356D01*
X200339156Y-71229995D01*
X200519480Y-71109507D01*
X200619666Y-71068009D01*
X200719850Y-71026511D01*
X200826205Y-71005356D01*
X200932560Y-70984200D01*
X201149440Y-70984200D01*
X201255794Y-71005355D01*
G37*
G36*
X203795794Y-71005355D02*
G01*
X203902150Y-71026511D01*
X204102520Y-71109507D01*
X204282844Y-71229995D01*
X204436205Y-71383356D01*
X204556693Y-71563680D01*
X204556693Y-71563681D01*
X204629181Y-71738681D01*
X204639689Y-71764051D01*
X204682000Y-71976760D01*
X204682000Y-72193640D01*
X204639689Y-72406349D01*
X204556693Y-72606720D01*
X204436205Y-72787044D01*
X204282844Y-72940405D01*
X204102520Y-73060893D01*
X203902150Y-73143889D01*
X203795795Y-73165044D01*
X203689440Y-73186200D01*
X203472560Y-73186200D01*
X203366205Y-73165044D01*
X203259850Y-73143889D01*
X203159666Y-73102391D01*
X203059480Y-73060893D01*
X202879156Y-72940405D01*
X202725795Y-72787044D01*
X202605307Y-72606720D01*
X202522311Y-72406349D01*
X202480000Y-72193640D01*
X202480000Y-71976760D01*
X202522311Y-71764051D01*
X202532820Y-71738681D01*
X202605307Y-71563681D01*
X202605307Y-71563680D01*
X202725795Y-71383356D01*
X202879156Y-71229995D01*
X203059480Y-71109507D01*
X203159666Y-71068009D01*
X203259850Y-71026511D01*
X203366205Y-71005356D01*
X203472560Y-70984200D01*
X203689440Y-70984200D01*
X203795794Y-71005355D01*
G37*
G36*
X207222000Y-73186200D02*
G01*
X205020000Y-73186200D01*
X205020000Y-70984200D01*
X207222000Y-70984200D01*
X207222000Y-73186200D01*
G37*
G36*
X216470394Y-71005355D02*
G01*
X216576750Y-71026511D01*
X216777120Y-71109507D01*
X216957444Y-71229995D01*
X217110805Y-71383356D01*
X217231293Y-71563680D01*
X217231293Y-71563681D01*
X217303781Y-71738681D01*
X217314289Y-71764051D01*
X217356600Y-71976760D01*
X217356600Y-72193640D01*
X217314289Y-72406349D01*
X217231293Y-72606720D01*
X217110805Y-72787044D01*
X216957444Y-72940405D01*
X216777120Y-73060893D01*
X216576750Y-73143889D01*
X216470395Y-73165044D01*
X216364040Y-73186200D01*
X216147160Y-73186200D01*
X216040805Y-73165044D01*
X215934450Y-73143889D01*
X215834266Y-73102391D01*
X215734080Y-73060893D01*
X215553756Y-72940405D01*
X215400395Y-72787044D01*
X215279907Y-72606720D01*
X215196911Y-72406349D01*
X215154600Y-72193640D01*
X215154600Y-71976760D01*
X215196911Y-71764051D01*
X215207420Y-71738681D01*
X215279907Y-71563681D01*
X215279907Y-71563680D01*
X215400395Y-71383356D01*
X215553756Y-71229995D01*
X215734080Y-71109507D01*
X215834266Y-71068009D01*
X215934450Y-71026511D01*
X216040805Y-71005356D01*
X216147160Y-70984200D01*
X216364040Y-70984200D01*
X216470394Y-71005355D01*
G37*
G36*
X219010394Y-71005355D02*
G01*
X219116750Y-71026511D01*
X219317120Y-71109507D01*
X219497444Y-71229995D01*
X219650805Y-71383356D01*
X219771293Y-71563680D01*
X219771293Y-71563681D01*
X219843781Y-71738681D01*
X219854289Y-71764051D01*
X219896600Y-71976760D01*
X219896600Y-72193640D01*
X219854289Y-72406349D01*
X219771293Y-72606720D01*
X219650805Y-72787044D01*
X219497444Y-72940405D01*
X219317120Y-73060893D01*
X219116750Y-73143889D01*
X219010395Y-73165044D01*
X218904040Y-73186200D01*
X218687160Y-73186200D01*
X218580805Y-73165044D01*
X218474450Y-73143889D01*
X218374266Y-73102391D01*
X218274080Y-73060893D01*
X218093756Y-72940405D01*
X217940395Y-72787044D01*
X217819907Y-72606720D01*
X217736911Y-72406349D01*
X217694600Y-72193640D01*
X217694600Y-71976760D01*
X217736911Y-71764051D01*
X217747420Y-71738681D01*
X217819907Y-71563681D01*
X217819907Y-71563680D01*
X217940395Y-71383356D01*
X218093756Y-71229995D01*
X218274080Y-71109507D01*
X218374266Y-71068009D01*
X218474450Y-71026511D01*
X218580805Y-71005356D01*
X218687160Y-70984200D01*
X218904040Y-70984200D01*
X219010394Y-71005355D01*
G37*
G36*
X234377394Y-71005355D02*
G01*
X234483750Y-71026511D01*
X234684120Y-71109507D01*
X234864444Y-71229995D01*
X235017805Y-71383356D01*
X235138293Y-71563680D01*
X235138293Y-71563681D01*
X235210781Y-71738681D01*
X235221289Y-71764051D01*
X235263600Y-71976760D01*
X235263600Y-72193640D01*
X235221289Y-72406349D01*
X235138293Y-72606720D01*
X235017805Y-72787044D01*
X234864444Y-72940405D01*
X234684120Y-73060893D01*
X234483750Y-73143889D01*
X234377395Y-73165044D01*
X234271040Y-73186200D01*
X234054160Y-73186200D01*
X233947805Y-73165044D01*
X233841450Y-73143889D01*
X233741266Y-73102391D01*
X233641080Y-73060893D01*
X233460756Y-72940405D01*
X233307395Y-72787044D01*
X233186907Y-72606720D01*
X233103911Y-72406349D01*
X233061600Y-72193640D01*
X233061600Y-71976760D01*
X233103911Y-71764051D01*
X233114420Y-71738681D01*
X233186907Y-71563681D01*
X233186907Y-71563680D01*
X233307395Y-71383356D01*
X233460756Y-71229995D01*
X233641080Y-71109507D01*
X233741266Y-71068009D01*
X233841450Y-71026511D01*
X233947805Y-71005356D01*
X234054160Y-70984200D01*
X234271040Y-70984200D01*
X234377394Y-71005355D01*
G37*
G36*
X237803600Y-73186200D02*
G01*
X235601600Y-73186200D01*
X235601600Y-70984200D01*
X237803600Y-70984200D01*
X237803600Y-73186200D01*
G37*
G36*
X243580228Y-70377903D02*
G01*
X243735100Y-70442053D01*
X243874481Y-70535185D01*
X243993015Y-70653719D01*
X244086147Y-70793100D01*
X244150297Y-70947972D01*
X244183000Y-71112384D01*
X244183000Y-71280016D01*
X244150297Y-71444428D01*
X244086147Y-71599300D01*
X243993015Y-71738681D01*
X243874481Y-71857215D01*
X243735100Y-71950347D01*
X243580228Y-72014497D01*
X243415816Y-72047200D01*
X243248184Y-72047200D01*
X243083772Y-72014497D01*
X242928900Y-71950347D01*
X242789519Y-71857215D01*
X242670985Y-71738681D01*
X242577853Y-71599300D01*
X242513703Y-71444428D01*
X242481000Y-71280016D01*
X242481000Y-71112384D01*
X242513703Y-70947972D01*
X242577853Y-70793100D01*
X242670985Y-70653719D01*
X242789519Y-70535185D01*
X242928900Y-70442053D01*
X243083772Y-70377903D01*
X243248184Y-70345200D01*
X243415816Y-70345200D01*
X243580228Y-70377903D01*
G37*
G36*
X195320228Y-70377903D02*
G01*
X195475100Y-70442053D01*
X195614481Y-70535185D01*
X195733015Y-70653719D01*
X195826147Y-70793100D01*
X195890297Y-70947972D01*
X195923000Y-71112384D01*
X195923000Y-71280016D01*
X195890297Y-71444428D01*
X195826147Y-71599300D01*
X195733015Y-71738681D01*
X195614481Y-71857215D01*
X195475100Y-71950347D01*
X195320228Y-72014497D01*
X195155816Y-72047200D01*
X194988184Y-72047200D01*
X194823772Y-72014497D01*
X194668900Y-71950347D01*
X194529519Y-71857215D01*
X194410985Y-71738681D01*
X194317853Y-71599300D01*
X194253703Y-71444428D01*
X194221000Y-71280016D01*
X194221000Y-71112384D01*
X194253703Y-70947972D01*
X194317853Y-70793100D01*
X194410985Y-70653719D01*
X194529519Y-70535185D01*
X194668900Y-70442053D01*
X194823772Y-70377903D01*
X194988184Y-70345200D01*
X195155816Y-70345200D01*
X195320228Y-70377903D01*
G37*
G36*
X243580228Y-67837903D02*
G01*
X243735100Y-67902053D01*
X243874481Y-67995185D01*
X243993015Y-68113719D01*
X244086147Y-68253100D01*
X244150297Y-68407972D01*
X244183000Y-68572384D01*
X244183000Y-68740016D01*
X244150297Y-68904428D01*
X244086147Y-69059300D01*
X243993015Y-69198681D01*
X243874481Y-69317215D01*
X243735100Y-69410347D01*
X243580228Y-69474497D01*
X243415816Y-69507200D01*
X243248184Y-69507200D01*
X243083772Y-69474497D01*
X242928900Y-69410347D01*
X242789519Y-69317215D01*
X242670985Y-69198681D01*
X242577853Y-69059300D01*
X242513703Y-68904428D01*
X242481000Y-68740016D01*
X242481000Y-68572384D01*
X242513703Y-68407972D01*
X242577853Y-68253100D01*
X242670985Y-68113719D01*
X242789519Y-67995185D01*
X242928900Y-67902053D01*
X243083772Y-67837903D01*
X243248184Y-67805200D01*
X243415816Y-67805200D01*
X243580228Y-67837903D01*
G37*
G36*
X195320228Y-67837903D02*
G01*
X195475100Y-67902053D01*
X195614481Y-67995185D01*
X195733015Y-68113719D01*
X195826147Y-68253100D01*
X195890297Y-68407972D01*
X195923000Y-68572384D01*
X195923000Y-68740016D01*
X195890297Y-68904428D01*
X195826147Y-69059300D01*
X195733015Y-69198681D01*
X195614481Y-69317215D01*
X195475100Y-69410347D01*
X195320228Y-69474497D01*
X195155816Y-69507200D01*
X194988184Y-69507200D01*
X194823772Y-69474497D01*
X194668900Y-69410347D01*
X194529519Y-69317215D01*
X194410985Y-69198681D01*
X194317853Y-69059300D01*
X194253703Y-68904428D01*
X194221000Y-68740016D01*
X194221000Y-68572384D01*
X194253703Y-68407972D01*
X194317853Y-68253100D01*
X194410985Y-68113719D01*
X194529519Y-67995185D01*
X194668900Y-67902053D01*
X194823772Y-67837903D01*
X194988184Y-67805200D01*
X195155816Y-67805200D01*
X195320228Y-67837903D01*
G37*
M02*
