G04 #@! TF.GenerationSoftware,KiCad,Pcbnew,5.1.5-52549c5~86~ubuntu18.04.1*
G04 #@! TF.CreationDate,2020-04-19T01:33:55+01:00*
G04 #@! TF.ProjectId,scot-controller,73636f74-2d63-46f6-9e74-726f6c6c6572,rev?*
G04 #@! TF.SameCoordinates,Original*
G04 #@! TF.FileFunction,Soldermask,Top*
G04 #@! TF.FilePolarity,Negative*
%FSLAX46Y46*%
G04 Gerber Fmt 4.6, Leading zero omitted, Abs format (unit mm)*
G04 Created by KiCad (PCBNEW 5.1.5-52549c5~86~ubuntu18.04.1) date 2020-04-19 01:33:55*
%MOMM*%
%LPD*%
G04 APERTURE LIST*
%ADD10C,0.100000*%
G04 APERTURE END LIST*
D10*
G36*
X195320228Y-112537903D02*
G01*
X195475100Y-112602053D01*
X195614481Y-112695185D01*
X195733015Y-112813719D01*
X195826147Y-112953100D01*
X195890297Y-113107972D01*
X195923000Y-113272384D01*
X195923000Y-113440016D01*
X195890297Y-113604428D01*
X195826147Y-113759300D01*
X195733015Y-113898681D01*
X195614481Y-114017215D01*
X195475100Y-114110347D01*
X195320228Y-114174497D01*
X195155816Y-114207200D01*
X194988184Y-114207200D01*
X194823772Y-114174497D01*
X194668900Y-114110347D01*
X194529519Y-114017215D01*
X194410985Y-113898681D01*
X194317853Y-113759300D01*
X194253703Y-113604428D01*
X194221000Y-113440016D01*
X194221000Y-113272384D01*
X194253703Y-113107972D01*
X194317853Y-112953100D01*
X194410985Y-112813719D01*
X194529519Y-112695185D01*
X194668900Y-112602053D01*
X194823772Y-112537903D01*
X194988184Y-112505200D01*
X195155816Y-112505200D01*
X195320228Y-112537903D01*
G37*
G36*
X195320228Y-109997903D02*
G01*
X195475100Y-110062053D01*
X195614481Y-110155185D01*
X195733015Y-110273719D01*
X195826147Y-110413100D01*
X195890297Y-110567972D01*
X195923000Y-110732384D01*
X195923000Y-110900016D01*
X195890297Y-111064428D01*
X195826147Y-111219300D01*
X195733015Y-111358681D01*
X195614481Y-111477215D01*
X195475100Y-111570347D01*
X195320228Y-111634497D01*
X195155816Y-111667200D01*
X194988184Y-111667200D01*
X194823772Y-111634497D01*
X194668900Y-111570347D01*
X194529519Y-111477215D01*
X194410985Y-111358681D01*
X194317853Y-111219300D01*
X194253703Y-111064428D01*
X194221000Y-110900016D01*
X194221000Y-110732384D01*
X194253703Y-110567972D01*
X194317853Y-110413100D01*
X194410985Y-110273719D01*
X194529519Y-110155185D01*
X194668900Y-110062053D01*
X194823772Y-109997903D01*
X194988184Y-109965200D01*
X195155816Y-109965200D01*
X195320228Y-109997903D01*
G37*
G36*
X195320228Y-107457903D02*
G01*
X195475100Y-107522053D01*
X195614481Y-107615185D01*
X195733015Y-107733719D01*
X195826147Y-107873100D01*
X195890297Y-108027972D01*
X195923000Y-108192384D01*
X195923000Y-108360016D01*
X195890297Y-108524428D01*
X195826147Y-108679300D01*
X195733015Y-108818681D01*
X195614481Y-108937215D01*
X195475100Y-109030347D01*
X195320228Y-109094497D01*
X195155816Y-109127200D01*
X194988184Y-109127200D01*
X194823772Y-109094497D01*
X194668900Y-109030347D01*
X194529519Y-108937215D01*
X194410985Y-108818681D01*
X194317853Y-108679300D01*
X194253703Y-108524428D01*
X194221000Y-108360016D01*
X194221000Y-108192384D01*
X194253703Y-108027972D01*
X194317853Y-107873100D01*
X194410985Y-107733719D01*
X194529519Y-107615185D01*
X194668900Y-107522053D01*
X194823772Y-107457903D01*
X194988184Y-107425200D01*
X195155816Y-107425200D01*
X195320228Y-107457903D01*
G37*
G36*
X195320228Y-104917903D02*
G01*
X195475100Y-104982053D01*
X195614481Y-105075185D01*
X195733015Y-105193719D01*
X195826147Y-105333100D01*
X195890297Y-105487972D01*
X195923000Y-105652384D01*
X195923000Y-105820016D01*
X195890297Y-105984428D01*
X195826147Y-106139300D01*
X195733015Y-106278681D01*
X195614481Y-106397215D01*
X195475100Y-106490347D01*
X195320228Y-106554497D01*
X195155816Y-106587200D01*
X194988184Y-106587200D01*
X194823772Y-106554497D01*
X194668900Y-106490347D01*
X194529519Y-106397215D01*
X194410985Y-106278681D01*
X194317853Y-106139300D01*
X194253703Y-105984428D01*
X194221000Y-105820016D01*
X194221000Y-105652384D01*
X194253703Y-105487972D01*
X194317853Y-105333100D01*
X194410985Y-105193719D01*
X194529519Y-105075185D01*
X194668900Y-104982053D01*
X194823772Y-104917903D01*
X194988184Y-104885200D01*
X195155816Y-104885200D01*
X195320228Y-104917903D01*
G37*
G36*
X244183000Y-105067200D02*
G01*
X242481000Y-105067200D01*
X242481000Y-103365200D01*
X244183000Y-103365200D01*
X244183000Y-105067200D01*
G37*
G36*
X195320228Y-102377903D02*
G01*
X195475100Y-102442053D01*
X195614481Y-102535185D01*
X195733015Y-102653719D01*
X195826147Y-102793100D01*
X195890297Y-102947972D01*
X195923000Y-103112384D01*
X195923000Y-103280016D01*
X195890297Y-103444428D01*
X195826147Y-103599300D01*
X195733015Y-103738681D01*
X195614481Y-103857215D01*
X195475100Y-103950347D01*
X195320228Y-104014497D01*
X195155816Y-104047200D01*
X194988184Y-104047200D01*
X194823772Y-104014497D01*
X194668900Y-103950347D01*
X194529519Y-103857215D01*
X194410985Y-103738681D01*
X194317853Y-103599300D01*
X194253703Y-103444428D01*
X194221000Y-103280016D01*
X194221000Y-103112384D01*
X194253703Y-102947972D01*
X194317853Y-102793100D01*
X194410985Y-102653719D01*
X194529519Y-102535185D01*
X194668900Y-102442053D01*
X194823772Y-102377903D01*
X194988184Y-102345200D01*
X195155816Y-102345200D01*
X195320228Y-102377903D01*
G37*
G36*
X243580228Y-100857903D02*
G01*
X243735100Y-100922053D01*
X243874481Y-101015185D01*
X243993015Y-101133719D01*
X244086147Y-101273100D01*
X244150297Y-101427972D01*
X244183000Y-101592384D01*
X244183000Y-101760016D01*
X244150297Y-101924428D01*
X244086147Y-102079300D01*
X243993015Y-102218681D01*
X243874481Y-102337215D01*
X243735100Y-102430347D01*
X243580228Y-102494497D01*
X243415816Y-102527200D01*
X243248184Y-102527200D01*
X243083772Y-102494497D01*
X242928900Y-102430347D01*
X242789519Y-102337215D01*
X242670985Y-102218681D01*
X242577853Y-102079300D01*
X242513703Y-101924428D01*
X242481000Y-101760016D01*
X242481000Y-101592384D01*
X242513703Y-101427972D01*
X242577853Y-101273100D01*
X242670985Y-101133719D01*
X242789519Y-101015185D01*
X242928900Y-100922053D01*
X243083772Y-100857903D01*
X243248184Y-100825200D01*
X243415816Y-100825200D01*
X243580228Y-100857903D01*
G37*
G36*
X195320228Y-99837903D02*
G01*
X195475100Y-99902053D01*
X195614481Y-99995185D01*
X195733015Y-100113719D01*
X195826147Y-100253100D01*
X195890297Y-100407972D01*
X195923000Y-100572384D01*
X195923000Y-100740016D01*
X195890297Y-100904428D01*
X195826147Y-101059300D01*
X195733015Y-101198681D01*
X195614481Y-101317215D01*
X195475100Y-101410347D01*
X195320228Y-101474497D01*
X195155816Y-101507200D01*
X194988184Y-101507200D01*
X194823772Y-101474497D01*
X194668900Y-101410347D01*
X194529519Y-101317215D01*
X194410985Y-101198681D01*
X194317853Y-101059300D01*
X194253703Y-100904428D01*
X194221000Y-100740016D01*
X194221000Y-100572384D01*
X194253703Y-100407972D01*
X194317853Y-100253100D01*
X194410985Y-100113719D01*
X194529519Y-99995185D01*
X194668900Y-99902053D01*
X194823772Y-99837903D01*
X194988184Y-99805200D01*
X195155816Y-99805200D01*
X195320228Y-99837903D01*
G37*
G36*
X219679800Y-101000000D02*
G01*
X215777800Y-101000000D01*
X215777800Y-98898000D01*
X219679800Y-98898000D01*
X219679800Y-101000000D01*
G37*
G36*
X243580228Y-98317903D02*
G01*
X243735100Y-98382053D01*
X243874481Y-98475185D01*
X243993015Y-98593719D01*
X244086147Y-98733100D01*
X244150297Y-98887972D01*
X244183000Y-99052384D01*
X244183000Y-99220016D01*
X244150297Y-99384428D01*
X244086147Y-99539300D01*
X243993015Y-99678681D01*
X243874481Y-99797215D01*
X243735100Y-99890347D01*
X243580228Y-99954497D01*
X243415816Y-99987200D01*
X243248184Y-99987200D01*
X243083772Y-99954497D01*
X242928900Y-99890347D01*
X242789519Y-99797215D01*
X242670985Y-99678681D01*
X242577853Y-99539300D01*
X242513703Y-99384428D01*
X242481000Y-99220016D01*
X242481000Y-99052384D01*
X242513703Y-98887972D01*
X242577853Y-98733100D01*
X242670985Y-98593719D01*
X242789519Y-98475185D01*
X242928900Y-98382053D01*
X243083772Y-98317903D01*
X243248184Y-98285200D01*
X243415816Y-98285200D01*
X243580228Y-98317903D01*
G37*
G36*
X195320228Y-97297903D02*
G01*
X195475100Y-97362053D01*
X195614481Y-97455185D01*
X195733015Y-97573719D01*
X195826147Y-97713100D01*
X195890297Y-97867972D01*
X195923000Y-98032384D01*
X195923000Y-98200016D01*
X195890297Y-98364428D01*
X195826147Y-98519300D01*
X195733015Y-98658681D01*
X195614481Y-98777215D01*
X195475100Y-98870347D01*
X195320228Y-98934497D01*
X195155816Y-98967200D01*
X194988184Y-98967200D01*
X194823772Y-98934497D01*
X194668900Y-98870347D01*
X194529519Y-98777215D01*
X194410985Y-98658681D01*
X194317853Y-98519300D01*
X194253703Y-98364428D01*
X194221000Y-98200016D01*
X194221000Y-98032384D01*
X194253703Y-97867972D01*
X194317853Y-97713100D01*
X194410985Y-97573719D01*
X194529519Y-97455185D01*
X194668900Y-97362053D01*
X194823772Y-97297903D01*
X194988184Y-97265200D01*
X195155816Y-97265200D01*
X195320228Y-97297903D01*
G37*
G36*
X237519874Y-97415065D02*
G01*
X237557567Y-97426499D01*
X237592303Y-97445066D01*
X237622748Y-97470052D01*
X237647734Y-97500497D01*
X237666301Y-97535233D01*
X237677735Y-97572926D01*
X237682200Y-97618261D01*
X237682200Y-98454939D01*
X237677735Y-98500274D01*
X237666301Y-98537967D01*
X237647734Y-98572703D01*
X237622748Y-98603148D01*
X237592303Y-98628134D01*
X237557567Y-98646701D01*
X237519874Y-98658135D01*
X237474539Y-98662600D01*
X236387861Y-98662600D01*
X236342526Y-98658135D01*
X236304833Y-98646701D01*
X236270097Y-98628134D01*
X236239652Y-98603148D01*
X236214666Y-98572703D01*
X236196099Y-98537967D01*
X236184665Y-98500274D01*
X236180200Y-98454939D01*
X236180200Y-97618261D01*
X236184665Y-97572926D01*
X236196099Y-97535233D01*
X236214666Y-97500497D01*
X236239652Y-97470052D01*
X236270097Y-97445066D01*
X236304833Y-97426499D01*
X236342526Y-97415065D01*
X236387861Y-97410600D01*
X237474539Y-97410600D01*
X237519874Y-97415065D01*
G37*
G36*
X231195274Y-97406065D02*
G01*
X231232967Y-97417499D01*
X231267703Y-97436066D01*
X231298148Y-97461052D01*
X231323134Y-97491497D01*
X231341701Y-97526233D01*
X231353135Y-97563926D01*
X231357600Y-97609261D01*
X231357600Y-98445939D01*
X231353135Y-98491274D01*
X231341701Y-98528967D01*
X231323134Y-98563703D01*
X231298148Y-98594148D01*
X231267703Y-98619134D01*
X231232967Y-98637701D01*
X231195274Y-98649135D01*
X231149939Y-98653600D01*
X230063261Y-98653600D01*
X230017926Y-98649135D01*
X229980233Y-98637701D01*
X229945497Y-98619134D01*
X229915052Y-98594148D01*
X229890066Y-98563703D01*
X229871499Y-98528967D01*
X229860065Y-98491274D01*
X229855600Y-98445939D01*
X229855600Y-97609261D01*
X229860065Y-97563926D01*
X229871499Y-97526233D01*
X229890066Y-97491497D01*
X229915052Y-97461052D01*
X229945497Y-97436066D01*
X229980233Y-97417499D01*
X230017926Y-97406065D01*
X230063261Y-97401600D01*
X231149939Y-97401600D01*
X231195274Y-97406065D01*
G37*
G36*
X243580228Y-95777903D02*
G01*
X243735100Y-95842053D01*
X243874481Y-95935185D01*
X243993015Y-96053719D01*
X244086147Y-96193100D01*
X244150297Y-96347972D01*
X244183000Y-96512384D01*
X244183000Y-96680016D01*
X244150297Y-96844428D01*
X244086147Y-96999300D01*
X243993015Y-97138681D01*
X243874481Y-97257215D01*
X243735100Y-97350347D01*
X243580228Y-97414497D01*
X243415816Y-97447200D01*
X243248184Y-97447200D01*
X243083772Y-97414497D01*
X242928900Y-97350347D01*
X242789519Y-97257215D01*
X242670985Y-97138681D01*
X242577853Y-96999300D01*
X242513703Y-96844428D01*
X242481000Y-96680016D01*
X242481000Y-96512384D01*
X242513703Y-96347972D01*
X242577853Y-96193100D01*
X242670985Y-96053719D01*
X242789519Y-95935185D01*
X242928900Y-95842053D01*
X243083772Y-95777903D01*
X243248184Y-95745200D01*
X243415816Y-95745200D01*
X243580228Y-95777903D01*
G37*
G36*
X237519874Y-95365065D02*
G01*
X237557567Y-95376499D01*
X237592303Y-95395066D01*
X237622748Y-95420052D01*
X237647734Y-95450497D01*
X237666301Y-95485233D01*
X237677735Y-95522926D01*
X237682200Y-95568261D01*
X237682200Y-96404939D01*
X237677735Y-96450274D01*
X237666301Y-96487967D01*
X237647734Y-96522703D01*
X237622748Y-96553148D01*
X237592303Y-96578134D01*
X237557567Y-96596701D01*
X237519874Y-96608135D01*
X237474539Y-96612600D01*
X236387861Y-96612600D01*
X236342526Y-96608135D01*
X236304833Y-96596701D01*
X236270097Y-96578134D01*
X236239652Y-96553148D01*
X236214666Y-96522703D01*
X236196099Y-96487967D01*
X236184665Y-96450274D01*
X236180200Y-96404939D01*
X236180200Y-95568261D01*
X236184665Y-95522926D01*
X236196099Y-95485233D01*
X236214666Y-95450497D01*
X236239652Y-95420052D01*
X236270097Y-95395066D01*
X236304833Y-95376499D01*
X236342526Y-95365065D01*
X236387861Y-95360600D01*
X237474539Y-95360600D01*
X237519874Y-95365065D01*
G37*
G36*
X231195274Y-95356065D02*
G01*
X231232967Y-95367499D01*
X231267703Y-95386066D01*
X231298148Y-95411052D01*
X231323134Y-95441497D01*
X231341701Y-95476233D01*
X231353135Y-95513926D01*
X231357600Y-95559261D01*
X231357600Y-96395939D01*
X231353135Y-96441274D01*
X231341701Y-96478967D01*
X231323134Y-96513703D01*
X231298148Y-96544148D01*
X231267703Y-96569134D01*
X231232967Y-96587701D01*
X231195274Y-96599135D01*
X231149939Y-96603600D01*
X230063261Y-96603600D01*
X230017926Y-96599135D01*
X229980233Y-96587701D01*
X229945497Y-96569134D01*
X229915052Y-96544148D01*
X229890066Y-96513703D01*
X229871499Y-96478967D01*
X229860065Y-96441274D01*
X229855600Y-96395939D01*
X229855600Y-95559261D01*
X229860065Y-95513926D01*
X229871499Y-95476233D01*
X229890066Y-95441497D01*
X229915052Y-95411052D01*
X229945497Y-95386066D01*
X229980233Y-95367499D01*
X230017926Y-95356065D01*
X230063261Y-95351600D01*
X231149939Y-95351600D01*
X231195274Y-95356065D01*
G37*
G36*
X195320228Y-94757903D02*
G01*
X195475100Y-94822053D01*
X195614481Y-94915185D01*
X195733015Y-95033719D01*
X195826147Y-95173100D01*
X195890297Y-95327972D01*
X195923000Y-95492384D01*
X195923000Y-95660016D01*
X195890297Y-95824428D01*
X195826147Y-95979300D01*
X195733015Y-96118681D01*
X195614481Y-96237215D01*
X195475100Y-96330347D01*
X195320228Y-96394497D01*
X195155816Y-96427200D01*
X194988184Y-96427200D01*
X194823772Y-96394497D01*
X194668900Y-96330347D01*
X194529519Y-96237215D01*
X194410985Y-96118681D01*
X194317853Y-95979300D01*
X194253703Y-95824428D01*
X194221000Y-95660016D01*
X194221000Y-95492384D01*
X194253703Y-95327972D01*
X194317853Y-95173100D01*
X194410985Y-95033719D01*
X194529519Y-94915185D01*
X194668900Y-94822053D01*
X194823772Y-94757903D01*
X194988184Y-94725200D01*
X195155816Y-94725200D01*
X195320228Y-94757903D01*
G37*
G36*
X243580228Y-93237903D02*
G01*
X243735100Y-93302053D01*
X243874481Y-93395185D01*
X243993015Y-93513719D01*
X244086147Y-93653100D01*
X244150297Y-93807972D01*
X244183000Y-93972384D01*
X244183000Y-94140016D01*
X244150297Y-94304428D01*
X244086147Y-94459300D01*
X243993015Y-94598681D01*
X243874481Y-94717215D01*
X243735100Y-94810347D01*
X243580228Y-94874497D01*
X243415816Y-94907200D01*
X243248184Y-94907200D01*
X243083772Y-94874497D01*
X242928900Y-94810347D01*
X242789519Y-94717215D01*
X242670985Y-94598681D01*
X242577853Y-94459300D01*
X242513703Y-94304428D01*
X242481000Y-94140016D01*
X242481000Y-93972384D01*
X242513703Y-93807972D01*
X242577853Y-93653100D01*
X242670985Y-93513719D01*
X242789519Y-93395185D01*
X242928900Y-93302053D01*
X243083772Y-93237903D01*
X243248184Y-93205200D01*
X243415816Y-93205200D01*
X243580228Y-93237903D01*
G37*
G36*
X218529800Y-94700000D02*
G01*
X216927800Y-94700000D01*
X216927800Y-92598000D01*
X218529800Y-92598000D01*
X218529800Y-94700000D01*
G37*
G36*
X220829800Y-94700000D02*
G01*
X219227800Y-94700000D01*
X219227800Y-92598000D01*
X220829800Y-92598000D01*
X220829800Y-94700000D01*
G37*
G36*
X216229800Y-94700000D02*
G01*
X214627800Y-94700000D01*
X214627800Y-92598000D01*
X216229800Y-92598000D01*
X216229800Y-94700000D01*
G37*
G36*
X195320228Y-92217903D02*
G01*
X195475100Y-92282053D01*
X195614481Y-92375185D01*
X195733015Y-92493719D01*
X195826147Y-92633100D01*
X195890297Y-92787972D01*
X195923000Y-92952384D01*
X195923000Y-93120016D01*
X195890297Y-93284428D01*
X195826147Y-93439300D01*
X195733015Y-93578681D01*
X195614481Y-93697215D01*
X195475100Y-93790347D01*
X195320228Y-93854497D01*
X195155816Y-93887200D01*
X194988184Y-93887200D01*
X194823772Y-93854497D01*
X194668900Y-93790347D01*
X194529519Y-93697215D01*
X194410985Y-93578681D01*
X194317853Y-93439300D01*
X194253703Y-93284428D01*
X194221000Y-93120016D01*
X194221000Y-92952384D01*
X194253703Y-92787972D01*
X194317853Y-92633100D01*
X194410985Y-92493719D01*
X194529519Y-92375185D01*
X194668900Y-92282053D01*
X194823772Y-92217903D01*
X194988184Y-92185200D01*
X195155816Y-92185200D01*
X195320228Y-92217903D01*
G37*
G36*
X243580228Y-90697903D02*
G01*
X243735100Y-90762053D01*
X243874481Y-90855185D01*
X243993015Y-90973719D01*
X244086147Y-91113100D01*
X244150297Y-91267972D01*
X244183000Y-91432384D01*
X244183000Y-91600016D01*
X244150297Y-91764428D01*
X244086147Y-91919300D01*
X243993015Y-92058681D01*
X243874481Y-92177215D01*
X243735100Y-92270347D01*
X243580228Y-92334497D01*
X243415816Y-92367200D01*
X243248184Y-92367200D01*
X243083772Y-92334497D01*
X242928900Y-92270347D01*
X242789519Y-92177215D01*
X242670985Y-92058681D01*
X242577853Y-91919300D01*
X242513703Y-91764428D01*
X242481000Y-91600016D01*
X242481000Y-91432384D01*
X242513703Y-91267972D01*
X242577853Y-91113100D01*
X242670985Y-90973719D01*
X242789519Y-90855185D01*
X242928900Y-90762053D01*
X243083772Y-90697903D01*
X243248184Y-90665200D01*
X243415816Y-90665200D01*
X243580228Y-90697903D01*
G37*
G36*
X234537971Y-90592063D02*
G01*
X234616423Y-90599790D01*
X234712056Y-90628800D01*
X234767413Y-90645592D01*
X234906565Y-90719971D01*
X235028533Y-90820067D01*
X235128629Y-90942035D01*
X235203008Y-91081187D01*
X235212689Y-91113103D01*
X235248810Y-91232177D01*
X235264275Y-91389200D01*
X235248810Y-91546223D01*
X235232492Y-91600015D01*
X235203008Y-91697213D01*
X235128629Y-91836365D01*
X235028533Y-91958333D01*
X234906565Y-92058429D01*
X234767413Y-92132808D01*
X234717082Y-92148075D01*
X234616423Y-92178610D01*
X234549512Y-92185200D01*
X234498746Y-92190200D01*
X233420054Y-92190200D01*
X233369288Y-92185200D01*
X233302377Y-92178610D01*
X233201718Y-92148075D01*
X233151387Y-92132808D01*
X233012235Y-92058429D01*
X232890267Y-91958333D01*
X232790171Y-91836365D01*
X232715792Y-91697213D01*
X232686308Y-91600015D01*
X232669990Y-91546223D01*
X232654525Y-91389200D01*
X232669990Y-91232177D01*
X232706111Y-91113103D01*
X232715792Y-91081187D01*
X232790171Y-90942035D01*
X232890267Y-90820067D01*
X233012235Y-90719971D01*
X233151387Y-90645592D01*
X233206744Y-90628800D01*
X233302377Y-90599790D01*
X233380829Y-90592063D01*
X233420054Y-90588200D01*
X234498746Y-90588200D01*
X234537971Y-90592063D01*
G37*
G36*
X217305099Y-91045445D02*
G01*
X217342595Y-91056820D01*
X217377154Y-91075292D01*
X217407447Y-91100153D01*
X217432308Y-91130446D01*
X217450780Y-91165005D01*
X217462155Y-91202501D01*
X217466600Y-91247638D01*
X217466600Y-91886362D01*
X217462155Y-91931499D01*
X217450780Y-91968995D01*
X217432308Y-92003554D01*
X217407447Y-92033847D01*
X217377154Y-92058708D01*
X217342595Y-92077180D01*
X217305099Y-92088555D01*
X217259962Y-92093000D01*
X216521238Y-92093000D01*
X216476101Y-92088555D01*
X216438605Y-92077180D01*
X216404046Y-92058708D01*
X216373753Y-92033847D01*
X216348892Y-92003554D01*
X216330420Y-91968995D01*
X216319045Y-91931499D01*
X216314600Y-91886362D01*
X216314600Y-91247638D01*
X216319045Y-91202501D01*
X216330420Y-91165005D01*
X216348892Y-91130446D01*
X216373753Y-91100153D01*
X216404046Y-91075292D01*
X216438605Y-91056820D01*
X216476101Y-91045445D01*
X216521238Y-91041000D01*
X217259962Y-91041000D01*
X217305099Y-91045445D01*
G37*
G36*
X215555099Y-91045445D02*
G01*
X215592595Y-91056820D01*
X215627154Y-91075292D01*
X215657447Y-91100153D01*
X215682308Y-91130446D01*
X215700780Y-91165005D01*
X215712155Y-91202501D01*
X215716600Y-91247638D01*
X215716600Y-91886362D01*
X215712155Y-91931499D01*
X215700780Y-91968995D01*
X215682308Y-92003554D01*
X215657447Y-92033847D01*
X215627154Y-92058708D01*
X215592595Y-92077180D01*
X215555099Y-92088555D01*
X215509962Y-92093000D01*
X214771238Y-92093000D01*
X214726101Y-92088555D01*
X214688605Y-92077180D01*
X214654046Y-92058708D01*
X214623753Y-92033847D01*
X214598892Y-92003554D01*
X214580420Y-91968995D01*
X214569045Y-91931499D01*
X214564600Y-91886362D01*
X214564600Y-91247638D01*
X214569045Y-91202501D01*
X214580420Y-91165005D01*
X214598892Y-91130446D01*
X214623753Y-91100153D01*
X214654046Y-91075292D01*
X214688605Y-91056820D01*
X214726101Y-91045445D01*
X214771238Y-91041000D01*
X215509962Y-91041000D01*
X215555099Y-91045445D01*
G37*
G36*
X220680699Y-91045445D02*
G01*
X220718195Y-91056820D01*
X220752754Y-91075292D01*
X220783047Y-91100153D01*
X220807908Y-91130446D01*
X220826380Y-91165005D01*
X220837755Y-91202501D01*
X220842200Y-91247638D01*
X220842200Y-91886362D01*
X220837755Y-91931499D01*
X220826380Y-91968995D01*
X220807908Y-92003554D01*
X220783047Y-92033847D01*
X220752754Y-92058708D01*
X220718195Y-92077180D01*
X220680699Y-92088555D01*
X220635562Y-92093000D01*
X219896838Y-92093000D01*
X219851701Y-92088555D01*
X219814205Y-92077180D01*
X219779646Y-92058708D01*
X219749353Y-92033847D01*
X219724492Y-92003554D01*
X219706020Y-91968995D01*
X219694645Y-91931499D01*
X219690200Y-91886362D01*
X219690200Y-91247638D01*
X219694645Y-91202501D01*
X219706020Y-91165005D01*
X219724492Y-91130446D01*
X219749353Y-91100153D01*
X219779646Y-91075292D01*
X219814205Y-91056820D01*
X219851701Y-91045445D01*
X219896838Y-91041000D01*
X220635562Y-91041000D01*
X220680699Y-91045445D01*
G37*
G36*
X218930699Y-91045445D02*
G01*
X218968195Y-91056820D01*
X219002754Y-91075292D01*
X219033047Y-91100153D01*
X219057908Y-91130446D01*
X219076380Y-91165005D01*
X219087755Y-91202501D01*
X219092200Y-91247638D01*
X219092200Y-91886362D01*
X219087755Y-91931499D01*
X219076380Y-91968995D01*
X219057908Y-92003554D01*
X219033047Y-92033847D01*
X219002754Y-92058708D01*
X218968195Y-92077180D01*
X218930699Y-92088555D01*
X218885562Y-92093000D01*
X218146838Y-92093000D01*
X218101701Y-92088555D01*
X218064205Y-92077180D01*
X218029646Y-92058708D01*
X217999353Y-92033847D01*
X217974492Y-92003554D01*
X217956020Y-91968995D01*
X217944645Y-91931499D01*
X217940200Y-91886362D01*
X217940200Y-91247638D01*
X217944645Y-91202501D01*
X217956020Y-91165005D01*
X217974492Y-91130446D01*
X217999353Y-91100153D01*
X218029646Y-91075292D01*
X218064205Y-91056820D01*
X218101701Y-91045445D01*
X218146838Y-91041000D01*
X218885562Y-91041000D01*
X218930699Y-91045445D01*
G37*
G36*
X231195274Y-90633265D02*
G01*
X231232967Y-90644699D01*
X231267703Y-90663266D01*
X231298148Y-90688252D01*
X231323134Y-90718697D01*
X231341701Y-90753433D01*
X231353135Y-90791126D01*
X231357600Y-90836461D01*
X231357600Y-91673139D01*
X231353135Y-91718474D01*
X231341701Y-91756167D01*
X231323134Y-91790903D01*
X231298148Y-91821348D01*
X231267703Y-91846334D01*
X231232967Y-91864901D01*
X231195274Y-91876335D01*
X231149939Y-91880800D01*
X230063261Y-91880800D01*
X230017926Y-91876335D01*
X229980233Y-91864901D01*
X229945497Y-91846334D01*
X229915052Y-91821348D01*
X229890066Y-91790903D01*
X229871499Y-91756167D01*
X229860065Y-91718474D01*
X229855600Y-91673139D01*
X229855600Y-90836461D01*
X229860065Y-90791126D01*
X229871499Y-90753433D01*
X229890066Y-90718697D01*
X229915052Y-90688252D01*
X229945497Y-90663266D01*
X229980233Y-90644699D01*
X230017926Y-90633265D01*
X230063261Y-90628800D01*
X231149939Y-90628800D01*
X231195274Y-90633265D01*
G37*
G36*
X195320228Y-89677903D02*
G01*
X195475100Y-89742053D01*
X195614481Y-89835185D01*
X195733015Y-89953719D01*
X195826147Y-90093100D01*
X195890297Y-90247972D01*
X195923000Y-90412384D01*
X195923000Y-90580016D01*
X195890297Y-90744428D01*
X195826147Y-90899300D01*
X195733015Y-91038681D01*
X195614481Y-91157215D01*
X195475100Y-91250347D01*
X195320228Y-91314497D01*
X195155816Y-91347200D01*
X194988184Y-91347200D01*
X194823772Y-91314497D01*
X194668900Y-91250347D01*
X194529519Y-91157215D01*
X194410985Y-91038681D01*
X194317853Y-90899300D01*
X194253703Y-90744428D01*
X194221000Y-90580016D01*
X194221000Y-90412384D01*
X194253703Y-90247972D01*
X194317853Y-90093100D01*
X194410985Y-89953719D01*
X194529519Y-89835185D01*
X194668900Y-89742053D01*
X194823772Y-89677903D01*
X194988184Y-89645200D01*
X195155816Y-89645200D01*
X195320228Y-89677903D01*
G37*
G36*
X205111474Y-88763065D02*
G01*
X205149167Y-88774499D01*
X205183903Y-88793066D01*
X205214348Y-88818052D01*
X205239334Y-88848497D01*
X205257901Y-88883233D01*
X205269335Y-88920926D01*
X205273800Y-88966261D01*
X205273800Y-90052939D01*
X205269335Y-90098274D01*
X205257901Y-90135967D01*
X205239334Y-90170703D01*
X205214348Y-90201148D01*
X205183903Y-90226134D01*
X205149167Y-90244701D01*
X205111474Y-90256135D01*
X205066139Y-90260600D01*
X204229461Y-90260600D01*
X204184126Y-90256135D01*
X204146433Y-90244701D01*
X204111697Y-90226134D01*
X204081252Y-90201148D01*
X204056266Y-90170703D01*
X204037699Y-90135967D01*
X204026265Y-90098274D01*
X204021800Y-90052939D01*
X204021800Y-88966261D01*
X204026265Y-88920926D01*
X204037699Y-88883233D01*
X204056266Y-88848497D01*
X204081252Y-88818052D01*
X204111697Y-88793066D01*
X204146433Y-88774499D01*
X204184126Y-88763065D01*
X204229461Y-88758600D01*
X205066139Y-88758600D01*
X205111474Y-88763065D01*
G37*
G36*
X203061474Y-88763065D02*
G01*
X203099167Y-88774499D01*
X203133903Y-88793066D01*
X203164348Y-88818052D01*
X203189334Y-88848497D01*
X203207901Y-88883233D01*
X203219335Y-88920926D01*
X203223800Y-88966261D01*
X203223800Y-90052939D01*
X203219335Y-90098274D01*
X203207901Y-90135967D01*
X203189334Y-90170703D01*
X203164348Y-90201148D01*
X203133903Y-90226134D01*
X203099167Y-90244701D01*
X203061474Y-90256135D01*
X203016139Y-90260600D01*
X202179461Y-90260600D01*
X202134126Y-90256135D01*
X202096433Y-90244701D01*
X202061697Y-90226134D01*
X202031252Y-90201148D01*
X202006266Y-90170703D01*
X201987699Y-90135967D01*
X201976265Y-90098274D01*
X201971800Y-90052939D01*
X201971800Y-88966261D01*
X201976265Y-88920926D01*
X201987699Y-88883233D01*
X202006266Y-88848497D01*
X202031252Y-88818052D01*
X202061697Y-88793066D01*
X202096433Y-88774499D01*
X202134126Y-88763065D01*
X202179461Y-88758600D01*
X203016139Y-88758600D01*
X203061474Y-88763065D01*
G37*
G36*
X231195274Y-88583265D02*
G01*
X231232967Y-88594699D01*
X231267703Y-88613266D01*
X231298148Y-88638252D01*
X231323134Y-88668697D01*
X231341701Y-88703433D01*
X231353135Y-88741126D01*
X231357600Y-88786461D01*
X231357600Y-89623139D01*
X231353135Y-89668474D01*
X231341701Y-89706167D01*
X231323134Y-89740903D01*
X231298148Y-89771348D01*
X231267703Y-89796334D01*
X231232967Y-89814901D01*
X231195274Y-89826335D01*
X231149939Y-89830800D01*
X230063261Y-89830800D01*
X230017926Y-89826335D01*
X229980233Y-89814901D01*
X229945497Y-89796334D01*
X229915052Y-89771348D01*
X229890066Y-89740903D01*
X229871499Y-89706167D01*
X229860065Y-89668474D01*
X229855600Y-89623139D01*
X229855600Y-88786461D01*
X229860065Y-88741126D01*
X229871499Y-88703433D01*
X229890066Y-88668697D01*
X229915052Y-88638252D01*
X229945497Y-88613266D01*
X229980233Y-88594699D01*
X230017926Y-88583265D01*
X230063261Y-88578800D01*
X231149939Y-88578800D01*
X231195274Y-88583265D01*
G37*
G36*
X243580228Y-88157903D02*
G01*
X243735100Y-88222053D01*
X243874481Y-88315185D01*
X243993015Y-88433719D01*
X244086147Y-88573100D01*
X244150297Y-88727972D01*
X244183000Y-88892384D01*
X244183000Y-89060016D01*
X244150297Y-89224428D01*
X244086147Y-89379300D01*
X243993015Y-89518681D01*
X243874481Y-89637215D01*
X243735100Y-89730347D01*
X243580228Y-89794497D01*
X243415816Y-89827200D01*
X243248184Y-89827200D01*
X243083772Y-89794497D01*
X242928900Y-89730347D01*
X242789519Y-89637215D01*
X242670985Y-89518681D01*
X242577853Y-89379300D01*
X242513703Y-89224428D01*
X242481000Y-89060016D01*
X242481000Y-88892384D01*
X242513703Y-88727972D01*
X242577853Y-88573100D01*
X242670985Y-88433719D01*
X242789519Y-88315185D01*
X242928900Y-88222053D01*
X243083772Y-88157903D01*
X243248184Y-88125200D01*
X243415816Y-88125200D01*
X243580228Y-88157903D01*
G37*
G36*
X234537971Y-88052063D02*
G01*
X234616423Y-88059790D01*
X234717082Y-88090325D01*
X234767413Y-88105592D01*
X234906565Y-88179971D01*
X235028533Y-88280067D01*
X235128629Y-88402035D01*
X235203008Y-88541187D01*
X235215772Y-88583265D01*
X235248810Y-88692177D01*
X235264275Y-88849200D01*
X235248810Y-89006223D01*
X235232492Y-89060015D01*
X235203008Y-89157213D01*
X235128629Y-89296365D01*
X235028533Y-89418333D01*
X234906565Y-89518429D01*
X234767413Y-89592808D01*
X234717082Y-89608075D01*
X234616423Y-89638610D01*
X234549512Y-89645200D01*
X234498746Y-89650200D01*
X233420054Y-89650200D01*
X233369288Y-89645200D01*
X233302377Y-89638610D01*
X233201718Y-89608075D01*
X233151387Y-89592808D01*
X233012235Y-89518429D01*
X232890267Y-89418333D01*
X232790171Y-89296365D01*
X232715792Y-89157213D01*
X232686308Y-89060015D01*
X232669990Y-89006223D01*
X232654525Y-88849200D01*
X232669990Y-88692177D01*
X232703028Y-88583265D01*
X232715792Y-88541187D01*
X232790171Y-88402035D01*
X232890267Y-88280067D01*
X233012235Y-88179971D01*
X233151387Y-88105592D01*
X233201718Y-88090325D01*
X233302377Y-88059790D01*
X233380829Y-88052063D01*
X233420054Y-88048200D01*
X234498746Y-88048200D01*
X234537971Y-88052063D01*
G37*
G36*
X204909899Y-87235445D02*
G01*
X204947395Y-87246820D01*
X204981954Y-87265292D01*
X205012247Y-87290153D01*
X205037108Y-87320446D01*
X205055580Y-87355005D01*
X205066955Y-87392501D01*
X205071400Y-87437638D01*
X205071400Y-88076362D01*
X205066955Y-88121499D01*
X205055580Y-88158995D01*
X205037108Y-88193554D01*
X205012247Y-88223847D01*
X204981954Y-88248708D01*
X204947395Y-88267180D01*
X204909899Y-88278555D01*
X204864762Y-88283000D01*
X204126038Y-88283000D01*
X204080901Y-88278555D01*
X204043405Y-88267180D01*
X204008846Y-88248708D01*
X203978553Y-88223847D01*
X203953692Y-88193554D01*
X203935220Y-88158995D01*
X203923845Y-88121499D01*
X203919400Y-88076362D01*
X203919400Y-87437638D01*
X203923845Y-87392501D01*
X203935220Y-87355005D01*
X203953692Y-87320446D01*
X203978553Y-87290153D01*
X204008846Y-87265292D01*
X204043405Y-87246820D01*
X204080901Y-87235445D01*
X204126038Y-87231000D01*
X204864762Y-87231000D01*
X204909899Y-87235445D01*
G37*
G36*
X203159899Y-87235445D02*
G01*
X203197395Y-87246820D01*
X203231954Y-87265292D01*
X203262247Y-87290153D01*
X203287108Y-87320446D01*
X203305580Y-87355005D01*
X203316955Y-87392501D01*
X203321400Y-87437638D01*
X203321400Y-88076362D01*
X203316955Y-88121499D01*
X203305580Y-88158995D01*
X203287108Y-88193554D01*
X203262247Y-88223847D01*
X203231954Y-88248708D01*
X203197395Y-88267180D01*
X203159899Y-88278555D01*
X203114762Y-88283000D01*
X202376038Y-88283000D01*
X202330901Y-88278555D01*
X202293405Y-88267180D01*
X202258846Y-88248708D01*
X202228553Y-88223847D01*
X202203692Y-88193554D01*
X202185220Y-88158995D01*
X202173845Y-88121499D01*
X202169400Y-88076362D01*
X202169400Y-87437638D01*
X202173845Y-87392501D01*
X202185220Y-87355005D01*
X202203692Y-87320446D01*
X202228553Y-87290153D01*
X202258846Y-87265292D01*
X202293405Y-87246820D01*
X202330901Y-87235445D01*
X202376038Y-87231000D01*
X203114762Y-87231000D01*
X203159899Y-87235445D01*
G37*
G36*
X243580228Y-85617903D02*
G01*
X243735100Y-85682053D01*
X243874481Y-85775185D01*
X243993015Y-85893719D01*
X244086147Y-86033100D01*
X244150297Y-86187972D01*
X244183000Y-86352384D01*
X244183000Y-86520016D01*
X244150297Y-86684428D01*
X244086147Y-86839300D01*
X243993015Y-86978681D01*
X243874481Y-87097215D01*
X243735100Y-87190347D01*
X243580228Y-87254497D01*
X243415816Y-87287200D01*
X243248184Y-87287200D01*
X243083772Y-87254497D01*
X242928900Y-87190347D01*
X242789519Y-87097215D01*
X242670985Y-86978681D01*
X242577853Y-86839300D01*
X242513703Y-86684428D01*
X242481000Y-86520016D01*
X242481000Y-86352384D01*
X242513703Y-86187972D01*
X242577853Y-86033100D01*
X242670985Y-85893719D01*
X242789519Y-85775185D01*
X242928900Y-85682053D01*
X243083772Y-85617903D01*
X243248184Y-85585200D01*
X243415816Y-85585200D01*
X243580228Y-85617903D01*
G37*
G36*
X195320228Y-85617903D02*
G01*
X195475100Y-85682053D01*
X195614481Y-85775185D01*
X195733015Y-85893719D01*
X195826147Y-86033100D01*
X195890297Y-86187972D01*
X195923000Y-86352384D01*
X195923000Y-86520016D01*
X195890297Y-86684428D01*
X195826147Y-86839300D01*
X195733015Y-86978681D01*
X195614481Y-87097215D01*
X195475100Y-87190347D01*
X195320228Y-87254497D01*
X195155816Y-87287200D01*
X194988184Y-87287200D01*
X194823772Y-87254497D01*
X194668900Y-87190347D01*
X194529519Y-87097215D01*
X194410985Y-86978681D01*
X194317853Y-86839300D01*
X194253703Y-86684428D01*
X194221000Y-86520016D01*
X194221000Y-86352384D01*
X194253703Y-86187972D01*
X194317853Y-86033100D01*
X194410985Y-85893719D01*
X194529519Y-85775185D01*
X194668900Y-85682053D01*
X194823772Y-85617903D01*
X194988184Y-85585200D01*
X195155816Y-85585200D01*
X195320228Y-85617903D01*
G37*
G36*
X235260400Y-87110200D02*
G01*
X232658400Y-87110200D01*
X232658400Y-85508200D01*
X235260400Y-85508200D01*
X235260400Y-87110200D01*
G37*
G36*
X203322400Y-86736400D02*
G01*
X202620400Y-86736400D01*
X202620400Y-85084400D01*
X203322400Y-85084400D01*
X203322400Y-86736400D01*
G37*
G36*
X204592400Y-86736400D02*
G01*
X203890400Y-86736400D01*
X203890400Y-85084400D01*
X204592400Y-85084400D01*
X204592400Y-86736400D01*
G37*
G36*
X205862400Y-86736400D02*
G01*
X205160400Y-86736400D01*
X205160400Y-85084400D01*
X205862400Y-85084400D01*
X205862400Y-86736400D01*
G37*
G36*
X202052400Y-86736400D02*
G01*
X201350400Y-86736400D01*
X201350400Y-85084400D01*
X202052400Y-85084400D01*
X202052400Y-86736400D01*
G37*
G36*
X195320228Y-83077903D02*
G01*
X195475100Y-83142053D01*
X195614481Y-83235185D01*
X195733015Y-83353719D01*
X195826147Y-83493100D01*
X195890297Y-83647972D01*
X195923000Y-83812384D01*
X195923000Y-83980016D01*
X195890297Y-84144428D01*
X195826147Y-84299300D01*
X195733015Y-84438681D01*
X195614481Y-84557215D01*
X195475100Y-84650347D01*
X195320228Y-84714497D01*
X195155816Y-84747200D01*
X194988184Y-84747200D01*
X194823772Y-84714497D01*
X194668900Y-84650347D01*
X194529519Y-84557215D01*
X194410985Y-84438681D01*
X194317853Y-84299300D01*
X194253703Y-84144428D01*
X194221000Y-83980016D01*
X194221000Y-83812384D01*
X194253703Y-83647972D01*
X194317853Y-83493100D01*
X194410985Y-83353719D01*
X194529519Y-83235185D01*
X194668900Y-83142053D01*
X194823772Y-83077903D01*
X194988184Y-83045200D01*
X195155816Y-83045200D01*
X195320228Y-83077903D01*
G37*
G36*
X205157400Y-84411400D02*
G01*
X202055400Y-84411400D01*
X202055400Y-82009400D01*
X205157400Y-82009400D01*
X205157400Y-84411400D01*
G37*
G36*
X207526899Y-81978445D02*
G01*
X207564395Y-81989820D01*
X207598954Y-82008292D01*
X207629247Y-82033153D01*
X207654108Y-82063446D01*
X207672580Y-82098005D01*
X207683955Y-82135501D01*
X207688400Y-82180638D01*
X207688400Y-82919362D01*
X207683955Y-82964499D01*
X207672580Y-83001995D01*
X207654108Y-83036554D01*
X207629247Y-83066847D01*
X207598954Y-83091708D01*
X207564395Y-83110180D01*
X207526899Y-83121555D01*
X207481762Y-83126000D01*
X206843038Y-83126000D01*
X206797901Y-83121555D01*
X206760405Y-83110180D01*
X206725846Y-83091708D01*
X206695553Y-83066847D01*
X206670692Y-83036554D01*
X206652220Y-83001995D01*
X206640845Y-82964499D01*
X206636400Y-82919362D01*
X206636400Y-82180638D01*
X206640845Y-82135501D01*
X206652220Y-82098005D01*
X206670692Y-82063446D01*
X206695553Y-82033153D01*
X206725846Y-82008292D01*
X206760405Y-81989820D01*
X206797901Y-81978445D01*
X206843038Y-81974000D01*
X207481762Y-81974000D01*
X207526899Y-81978445D01*
G37*
G36*
X234569262Y-80510581D02*
G01*
X234604181Y-80521174D01*
X234636363Y-80538376D01*
X234664573Y-80561527D01*
X234687724Y-80589737D01*
X234704926Y-80621919D01*
X234715519Y-80656838D01*
X234719700Y-80699295D01*
X234719700Y-82165505D01*
X234715519Y-82207962D01*
X234704926Y-82242881D01*
X234687724Y-82275063D01*
X234664573Y-82303273D01*
X234636363Y-82326424D01*
X234604181Y-82343626D01*
X234569262Y-82354219D01*
X234526805Y-82358400D01*
X233385595Y-82358400D01*
X233343138Y-82354219D01*
X233308219Y-82343626D01*
X233276037Y-82326424D01*
X233247827Y-82303273D01*
X233224676Y-82275063D01*
X233207474Y-82242881D01*
X233196881Y-82207962D01*
X233192700Y-82165505D01*
X233192700Y-80699295D01*
X233196881Y-80656838D01*
X233207474Y-80621919D01*
X233224676Y-80589737D01*
X233247827Y-80561527D01*
X233276037Y-80538376D01*
X233308219Y-80521174D01*
X233343138Y-80510581D01*
X233385595Y-80506400D01*
X234526805Y-80506400D01*
X234569262Y-80510581D01*
G37*
G36*
X237544262Y-80510581D02*
G01*
X237579181Y-80521174D01*
X237611363Y-80538376D01*
X237639573Y-80561527D01*
X237662724Y-80589737D01*
X237679926Y-80621919D01*
X237690519Y-80656838D01*
X237694700Y-80699295D01*
X237694700Y-82165505D01*
X237690519Y-82207962D01*
X237679926Y-82242881D01*
X237662724Y-82275063D01*
X237639573Y-82303273D01*
X237611363Y-82326424D01*
X237579181Y-82343626D01*
X237544262Y-82354219D01*
X237501805Y-82358400D01*
X236360595Y-82358400D01*
X236318138Y-82354219D01*
X236283219Y-82343626D01*
X236251037Y-82326424D01*
X236222827Y-82303273D01*
X236199676Y-82275063D01*
X236182474Y-82242881D01*
X236171881Y-82207962D01*
X236167700Y-82165505D01*
X236167700Y-80699295D01*
X236171881Y-80656838D01*
X236182474Y-80621919D01*
X236199676Y-80589737D01*
X236222827Y-80561527D01*
X236251037Y-80538376D01*
X236283219Y-80521174D01*
X236318138Y-80510581D01*
X236360595Y-80506400D01*
X237501805Y-80506400D01*
X237544262Y-80510581D01*
G37*
G36*
X243580228Y-80537903D02*
G01*
X243735100Y-80602053D01*
X243874481Y-80695185D01*
X243993015Y-80813719D01*
X244086147Y-80953100D01*
X244150297Y-81107972D01*
X244183000Y-81272384D01*
X244183000Y-81440016D01*
X244150297Y-81604428D01*
X244086147Y-81759300D01*
X243993015Y-81898681D01*
X243874481Y-82017215D01*
X243735100Y-82110347D01*
X243580228Y-82174497D01*
X243415816Y-82207200D01*
X243248184Y-82207200D01*
X243083772Y-82174497D01*
X242928900Y-82110347D01*
X242789519Y-82017215D01*
X242670985Y-81898681D01*
X242577853Y-81759300D01*
X242513703Y-81604428D01*
X242481000Y-81440016D01*
X242481000Y-81272384D01*
X242513703Y-81107972D01*
X242577853Y-80953100D01*
X242670985Y-80813719D01*
X242789519Y-80695185D01*
X242928900Y-80602053D01*
X243083772Y-80537903D01*
X243248184Y-80505200D01*
X243415816Y-80505200D01*
X243580228Y-80537903D01*
G37*
G36*
X195320228Y-80537903D02*
G01*
X195475100Y-80602053D01*
X195614481Y-80695185D01*
X195733015Y-80813719D01*
X195826147Y-80953100D01*
X195890297Y-81107972D01*
X195923000Y-81272384D01*
X195923000Y-81440016D01*
X195890297Y-81604428D01*
X195826147Y-81759300D01*
X195733015Y-81898681D01*
X195614481Y-82017215D01*
X195475100Y-82110347D01*
X195320228Y-82174497D01*
X195155816Y-82207200D01*
X194988184Y-82207200D01*
X194823772Y-82174497D01*
X194668900Y-82110347D01*
X194529519Y-82017215D01*
X194410985Y-81898681D01*
X194317853Y-81759300D01*
X194253703Y-81604428D01*
X194221000Y-81440016D01*
X194221000Y-81272384D01*
X194253703Y-81107972D01*
X194317853Y-80953100D01*
X194410985Y-80813719D01*
X194529519Y-80695185D01*
X194668900Y-80602053D01*
X194823772Y-80537903D01*
X194988184Y-80505200D01*
X195155816Y-80505200D01*
X195320228Y-80537903D01*
G37*
G36*
X207526899Y-80228445D02*
G01*
X207564395Y-80239820D01*
X207598954Y-80258292D01*
X207629247Y-80283153D01*
X207654108Y-80313446D01*
X207672580Y-80348005D01*
X207683955Y-80385501D01*
X207688400Y-80430638D01*
X207688400Y-81169362D01*
X207683955Y-81214499D01*
X207672580Y-81251995D01*
X207654108Y-81286554D01*
X207629247Y-81316847D01*
X207598954Y-81341708D01*
X207564395Y-81360180D01*
X207526899Y-81371555D01*
X207481762Y-81376000D01*
X206843038Y-81376000D01*
X206797901Y-81371555D01*
X206760405Y-81360180D01*
X206725846Y-81341708D01*
X206695553Y-81316847D01*
X206670692Y-81286554D01*
X206652220Y-81251995D01*
X206640845Y-81214499D01*
X206636400Y-81169362D01*
X206636400Y-80430638D01*
X206640845Y-80385501D01*
X206652220Y-80348005D01*
X206670692Y-80313446D01*
X206695553Y-80283153D01*
X206725846Y-80258292D01*
X206760405Y-80239820D01*
X206797901Y-80228445D01*
X206843038Y-80224000D01*
X207481762Y-80224000D01*
X207526899Y-80228445D01*
G37*
G36*
X204592400Y-81336400D02*
G01*
X203890400Y-81336400D01*
X203890400Y-79684400D01*
X204592400Y-79684400D01*
X204592400Y-81336400D01*
G37*
G36*
X205862400Y-81336400D02*
G01*
X205160400Y-81336400D01*
X205160400Y-79684400D01*
X205862400Y-79684400D01*
X205862400Y-81336400D01*
G37*
G36*
X202052400Y-81336400D02*
G01*
X201350400Y-81336400D01*
X201350400Y-79684400D01*
X202052400Y-79684400D01*
X202052400Y-81336400D01*
G37*
G36*
X203322400Y-81336400D02*
G01*
X202620400Y-81336400D01*
X202620400Y-79684400D01*
X203322400Y-79684400D01*
X203322400Y-81336400D01*
G37*
G36*
X221623199Y-78316954D02*
G01*
X221635450Y-78317556D01*
X221653869Y-78317556D01*
X221676149Y-78319750D01*
X221760233Y-78336476D01*
X221781660Y-78342976D01*
X221860858Y-78375780D01*
X221866303Y-78378691D01*
X221866309Y-78378693D01*
X221875169Y-78383429D01*
X221875173Y-78383432D01*
X221880614Y-78386340D01*
X221951899Y-78433971D01*
X221969204Y-78448172D01*
X222029828Y-78508796D01*
X222044029Y-78526101D01*
X222091660Y-78597386D01*
X222094568Y-78602827D01*
X222094571Y-78602831D01*
X222099307Y-78611691D01*
X222099309Y-78611697D01*
X222102220Y-78617142D01*
X222135024Y-78696340D01*
X222141524Y-78717767D01*
X222158250Y-78801851D01*
X222160444Y-78824131D01*
X222160444Y-78842550D01*
X222161046Y-78854801D01*
X222162852Y-78873139D01*
X222162852Y-79360860D01*
X222161263Y-79376999D01*
X222158348Y-79386608D01*
X222153610Y-79395472D01*
X222147237Y-79403237D01*
X222134794Y-79413448D01*
X222124425Y-79420378D01*
X222107098Y-79437705D01*
X222093485Y-79458080D01*
X222084109Y-79480720D01*
X222079329Y-79504753D01*
X222079330Y-79529257D01*
X222084112Y-79553290D01*
X222093490Y-79575929D01*
X222107105Y-79596302D01*
X222124432Y-79613629D01*
X222134802Y-79620558D01*
X222147237Y-79630763D01*
X222153610Y-79638528D01*
X222158348Y-79647392D01*
X222161263Y-79657001D01*
X222162852Y-79673140D01*
X222162852Y-80160862D01*
X222161046Y-80179199D01*
X222160444Y-80191450D01*
X222160444Y-80209869D01*
X222158250Y-80232149D01*
X222141524Y-80316233D01*
X222135024Y-80337660D01*
X222102220Y-80416858D01*
X222099309Y-80422303D01*
X222099307Y-80422309D01*
X222094571Y-80431169D01*
X222094568Y-80431173D01*
X222091660Y-80436614D01*
X222044029Y-80507899D01*
X222029828Y-80525204D01*
X221969204Y-80585828D01*
X221951899Y-80600029D01*
X221880614Y-80647660D01*
X221875173Y-80650568D01*
X221875169Y-80650571D01*
X221866309Y-80655307D01*
X221866303Y-80655309D01*
X221860858Y-80658220D01*
X221781660Y-80691024D01*
X221760233Y-80697524D01*
X221676149Y-80714250D01*
X221653869Y-80716444D01*
X221635450Y-80716444D01*
X221623199Y-80717046D01*
X221604862Y-80718852D01*
X221117138Y-80718852D01*
X221098801Y-80717046D01*
X221086550Y-80716444D01*
X221068131Y-80716444D01*
X221045851Y-80714250D01*
X220961767Y-80697524D01*
X220940340Y-80691024D01*
X220861142Y-80658220D01*
X220855697Y-80655309D01*
X220855691Y-80655307D01*
X220846831Y-80650571D01*
X220846827Y-80650568D01*
X220841386Y-80647660D01*
X220770101Y-80600029D01*
X220752796Y-80585828D01*
X220692172Y-80525204D01*
X220677971Y-80507899D01*
X220630340Y-80436614D01*
X220627432Y-80431173D01*
X220627429Y-80431169D01*
X220622693Y-80422309D01*
X220622691Y-80422303D01*
X220619780Y-80416858D01*
X220586976Y-80337660D01*
X220580476Y-80316233D01*
X220563750Y-80232149D01*
X220561556Y-80209869D01*
X220561556Y-80191450D01*
X220560954Y-80179199D01*
X220559148Y-80160862D01*
X220559148Y-79673140D01*
X220560737Y-79657001D01*
X220563652Y-79647392D01*
X220568390Y-79638528D01*
X220574763Y-79630763D01*
X220587206Y-79620552D01*
X220597575Y-79613622D01*
X220614902Y-79596295D01*
X220628515Y-79575920D01*
X220637891Y-79553280D01*
X220642671Y-79529247D01*
X220642670Y-79504743D01*
X220637888Y-79480710D01*
X220628510Y-79458071D01*
X220614895Y-79437698D01*
X220597568Y-79420371D01*
X220587198Y-79413442D01*
X220574763Y-79403237D01*
X220568390Y-79395472D01*
X220563652Y-79386608D01*
X220560737Y-79376999D01*
X220559148Y-79360860D01*
X220559148Y-78873139D01*
X220560954Y-78854801D01*
X220561556Y-78842550D01*
X220561556Y-78824131D01*
X220563750Y-78801851D01*
X220580476Y-78717767D01*
X220586976Y-78696340D01*
X220619780Y-78617142D01*
X220622691Y-78611697D01*
X220622693Y-78611691D01*
X220627429Y-78602831D01*
X220627432Y-78602827D01*
X220630340Y-78597386D01*
X220677971Y-78526101D01*
X220692172Y-78508796D01*
X220752796Y-78448172D01*
X220770101Y-78433971D01*
X220841386Y-78386340D01*
X220846827Y-78383432D01*
X220846831Y-78383429D01*
X220855691Y-78378693D01*
X220855697Y-78378691D01*
X220861142Y-78375780D01*
X220940340Y-78342976D01*
X220961767Y-78336476D01*
X221045851Y-78319750D01*
X221068131Y-78317556D01*
X221086550Y-78317556D01*
X221098801Y-78316954D01*
X221117139Y-78315148D01*
X221604861Y-78315148D01*
X221623199Y-78316954D01*
G37*
G36*
X195320228Y-77997903D02*
G01*
X195475100Y-78062053D01*
X195614481Y-78155185D01*
X195733015Y-78273719D01*
X195826147Y-78413100D01*
X195890297Y-78567972D01*
X195923000Y-78732384D01*
X195923000Y-78900016D01*
X195890297Y-79064428D01*
X195826147Y-79219300D01*
X195733015Y-79358681D01*
X195614481Y-79477215D01*
X195475100Y-79570347D01*
X195320228Y-79634497D01*
X195155816Y-79667200D01*
X194988184Y-79667200D01*
X194823772Y-79634497D01*
X194668900Y-79570347D01*
X194529519Y-79477215D01*
X194410985Y-79358681D01*
X194317853Y-79219300D01*
X194253703Y-79064428D01*
X194221000Y-78900016D01*
X194221000Y-78732384D01*
X194253703Y-78567972D01*
X194317853Y-78413100D01*
X194410985Y-78273719D01*
X194529519Y-78155185D01*
X194668900Y-78062053D01*
X194823772Y-77997903D01*
X194988184Y-77965200D01*
X195155816Y-77965200D01*
X195320228Y-77997903D01*
G37*
G36*
X243580228Y-77997903D02*
G01*
X243735100Y-78062053D01*
X243874481Y-78155185D01*
X243993015Y-78273719D01*
X244086147Y-78413100D01*
X244150297Y-78567972D01*
X244183000Y-78732384D01*
X244183000Y-78900016D01*
X244150297Y-79064428D01*
X244086147Y-79219300D01*
X243993015Y-79358681D01*
X243874481Y-79477215D01*
X243735100Y-79570347D01*
X243580228Y-79634497D01*
X243415816Y-79667200D01*
X243248184Y-79667200D01*
X243083772Y-79634497D01*
X242928900Y-79570347D01*
X242789519Y-79477215D01*
X242670985Y-79358681D01*
X242577853Y-79219300D01*
X242513703Y-79064428D01*
X242481000Y-78900016D01*
X242481000Y-78732384D01*
X242513703Y-78567972D01*
X242577853Y-78413100D01*
X242670985Y-78273719D01*
X242789519Y-78155185D01*
X242928900Y-78062053D01*
X243083772Y-77997903D01*
X243248184Y-77965200D01*
X243415816Y-77965200D01*
X243580228Y-77997903D01*
G37*
G36*
X211717199Y-75700754D02*
G01*
X211729450Y-75701356D01*
X211747869Y-75701356D01*
X211770149Y-75703550D01*
X211854233Y-75720276D01*
X211875660Y-75726776D01*
X211954858Y-75759580D01*
X211960303Y-75762491D01*
X211960309Y-75762493D01*
X211969169Y-75767229D01*
X211969173Y-75767232D01*
X211974614Y-75770140D01*
X212045899Y-75817771D01*
X212063204Y-75831972D01*
X212123828Y-75892596D01*
X212138029Y-75909901D01*
X212185660Y-75981186D01*
X212188568Y-75986627D01*
X212188571Y-75986631D01*
X212193307Y-75995491D01*
X212193309Y-75995497D01*
X212196220Y-76000942D01*
X212229024Y-76080140D01*
X212235524Y-76101567D01*
X212252250Y-76185651D01*
X212254444Y-76207931D01*
X212254444Y-76226350D01*
X212255046Y-76238601D01*
X212256852Y-76256939D01*
X212256852Y-76744660D01*
X212255263Y-76760799D01*
X212252348Y-76770408D01*
X212247610Y-76779272D01*
X212241237Y-76787037D01*
X212228794Y-76797248D01*
X212218425Y-76804178D01*
X212201098Y-76821505D01*
X212187485Y-76841880D01*
X212178109Y-76864520D01*
X212173329Y-76888553D01*
X212173330Y-76913057D01*
X212178112Y-76937090D01*
X212187490Y-76959729D01*
X212201105Y-76980102D01*
X212218432Y-76997429D01*
X212228802Y-77004358D01*
X212241237Y-77014563D01*
X212247610Y-77022328D01*
X212252348Y-77031192D01*
X212255263Y-77040801D01*
X212256852Y-77056940D01*
X212256852Y-77544662D01*
X212255046Y-77562999D01*
X212254444Y-77575250D01*
X212254444Y-77593669D01*
X212252250Y-77615949D01*
X212235524Y-77700033D01*
X212229024Y-77721460D01*
X212196220Y-77800658D01*
X212193309Y-77806103D01*
X212193307Y-77806109D01*
X212188571Y-77814969D01*
X212188568Y-77814973D01*
X212185660Y-77820414D01*
X212138029Y-77891699D01*
X212123828Y-77909004D01*
X212063204Y-77969628D01*
X212045899Y-77983829D01*
X211974614Y-78031460D01*
X211969173Y-78034368D01*
X211969169Y-78034371D01*
X211960309Y-78039107D01*
X211960303Y-78039109D01*
X211954858Y-78042020D01*
X211875660Y-78074824D01*
X211854233Y-78081324D01*
X211770149Y-78098050D01*
X211747869Y-78100244D01*
X211729450Y-78100244D01*
X211717199Y-78100846D01*
X211698862Y-78102652D01*
X211211138Y-78102652D01*
X211192801Y-78100846D01*
X211180550Y-78100244D01*
X211162131Y-78100244D01*
X211139851Y-78098050D01*
X211055767Y-78081324D01*
X211034340Y-78074824D01*
X210955142Y-78042020D01*
X210949697Y-78039109D01*
X210949691Y-78039107D01*
X210940831Y-78034371D01*
X210940827Y-78034368D01*
X210935386Y-78031460D01*
X210864101Y-77983829D01*
X210846796Y-77969628D01*
X210786172Y-77909004D01*
X210771971Y-77891699D01*
X210724340Y-77820414D01*
X210721432Y-77814973D01*
X210721429Y-77814969D01*
X210716693Y-77806109D01*
X210716691Y-77806103D01*
X210713780Y-77800658D01*
X210680976Y-77721460D01*
X210674476Y-77700033D01*
X210657750Y-77615949D01*
X210655556Y-77593669D01*
X210655556Y-77575250D01*
X210654954Y-77562999D01*
X210653148Y-77544662D01*
X210653148Y-77056940D01*
X210654737Y-77040801D01*
X210657652Y-77031192D01*
X210662390Y-77022328D01*
X210668763Y-77014563D01*
X210681206Y-77004352D01*
X210691575Y-76997422D01*
X210708902Y-76980095D01*
X210722515Y-76959720D01*
X210731891Y-76937080D01*
X210736671Y-76913047D01*
X210736670Y-76888543D01*
X210731888Y-76864510D01*
X210722510Y-76841871D01*
X210708895Y-76821498D01*
X210691568Y-76804171D01*
X210681198Y-76797242D01*
X210668763Y-76787037D01*
X210662390Y-76779272D01*
X210657652Y-76770408D01*
X210654737Y-76760799D01*
X210653148Y-76744660D01*
X210653148Y-76256938D01*
X210654954Y-76238601D01*
X210655556Y-76226350D01*
X210655556Y-76207931D01*
X210657750Y-76185651D01*
X210674476Y-76101567D01*
X210680976Y-76080140D01*
X210713780Y-76000942D01*
X210716691Y-75995497D01*
X210716693Y-75995491D01*
X210721429Y-75986631D01*
X210721432Y-75986627D01*
X210724340Y-75981186D01*
X210771971Y-75909901D01*
X210786172Y-75892596D01*
X210846796Y-75831972D01*
X210864101Y-75817771D01*
X210935386Y-75770140D01*
X210940827Y-75767232D01*
X210940831Y-75767229D01*
X210949691Y-75762493D01*
X210949697Y-75762491D01*
X210955142Y-75759580D01*
X211034340Y-75726776D01*
X211055767Y-75720276D01*
X211139851Y-75703550D01*
X211162131Y-75701356D01*
X211180550Y-75701356D01*
X211192801Y-75700754D01*
X211211139Y-75698948D01*
X211698861Y-75698948D01*
X211717199Y-75700754D01*
G37*
G36*
X243580228Y-75457903D02*
G01*
X243735100Y-75522053D01*
X243874481Y-75615185D01*
X243993015Y-75733719D01*
X244086147Y-75873100D01*
X244150297Y-76027972D01*
X244183000Y-76192384D01*
X244183000Y-76360016D01*
X244150297Y-76524428D01*
X244086147Y-76679300D01*
X243993015Y-76818681D01*
X243874481Y-76937215D01*
X243735100Y-77030347D01*
X243580228Y-77094497D01*
X243415816Y-77127200D01*
X243248184Y-77127200D01*
X243083772Y-77094497D01*
X242928900Y-77030347D01*
X242789519Y-76937215D01*
X242670985Y-76818681D01*
X242577853Y-76679300D01*
X242513703Y-76524428D01*
X242481000Y-76360016D01*
X242481000Y-76192384D01*
X242513703Y-76027972D01*
X242577853Y-75873100D01*
X242670985Y-75733719D01*
X242789519Y-75615185D01*
X242928900Y-75522053D01*
X243083772Y-75457903D01*
X243248184Y-75425200D01*
X243415816Y-75425200D01*
X243580228Y-75457903D01*
G37*
G36*
X195320228Y-75457903D02*
G01*
X195475100Y-75522053D01*
X195614481Y-75615185D01*
X195733015Y-75733719D01*
X195826147Y-75873100D01*
X195890297Y-76027972D01*
X195923000Y-76192384D01*
X195923000Y-76360016D01*
X195890297Y-76524428D01*
X195826147Y-76679300D01*
X195733015Y-76818681D01*
X195614481Y-76937215D01*
X195475100Y-77030347D01*
X195320228Y-77094497D01*
X195155816Y-77127200D01*
X194988184Y-77127200D01*
X194823772Y-77094497D01*
X194668900Y-77030347D01*
X194529519Y-76937215D01*
X194410985Y-76818681D01*
X194317853Y-76679300D01*
X194253703Y-76524428D01*
X194221000Y-76360016D01*
X194221000Y-76192384D01*
X194253703Y-76027972D01*
X194317853Y-75873100D01*
X194410985Y-75733719D01*
X194529519Y-75615185D01*
X194668900Y-75522053D01*
X194823772Y-75457903D01*
X194988184Y-75425200D01*
X195155816Y-75425200D01*
X195320228Y-75457903D01*
G37*
G36*
X212043674Y-73495665D02*
G01*
X212081367Y-73507099D01*
X212116103Y-73525666D01*
X212146548Y-73550652D01*
X212171534Y-73581097D01*
X212190101Y-73615833D01*
X212201535Y-73653526D01*
X212206000Y-73698861D01*
X212206000Y-74535539D01*
X212201535Y-74580874D01*
X212190101Y-74618567D01*
X212171534Y-74653303D01*
X212146548Y-74683748D01*
X212116103Y-74708734D01*
X212081367Y-74727301D01*
X212043674Y-74738735D01*
X211998339Y-74743200D01*
X210911661Y-74743200D01*
X210866326Y-74738735D01*
X210828633Y-74727301D01*
X210793897Y-74708734D01*
X210763452Y-74683748D01*
X210738466Y-74653303D01*
X210719899Y-74618567D01*
X210708465Y-74580874D01*
X210704000Y-74535539D01*
X210704000Y-73698861D01*
X210708465Y-73653526D01*
X210719899Y-73615833D01*
X210738466Y-73581097D01*
X210763452Y-73550652D01*
X210793897Y-73525666D01*
X210828633Y-73507099D01*
X210866326Y-73495665D01*
X210911661Y-73491200D01*
X211998339Y-73491200D01*
X212043674Y-73495665D01*
G37*
G36*
X195320228Y-72917903D02*
G01*
X195475100Y-72982053D01*
X195614481Y-73075185D01*
X195733015Y-73193719D01*
X195826147Y-73333100D01*
X195890297Y-73487972D01*
X195923000Y-73652384D01*
X195923000Y-73820016D01*
X195890297Y-73984428D01*
X195826147Y-74139300D01*
X195733015Y-74278681D01*
X195614481Y-74397215D01*
X195475100Y-74490347D01*
X195320228Y-74554497D01*
X195155816Y-74587200D01*
X194988184Y-74587200D01*
X194823772Y-74554497D01*
X194668900Y-74490347D01*
X194529519Y-74397215D01*
X194410985Y-74278681D01*
X194317853Y-74139300D01*
X194253703Y-73984428D01*
X194221000Y-73820016D01*
X194221000Y-73652384D01*
X194253703Y-73487972D01*
X194317853Y-73333100D01*
X194410985Y-73193719D01*
X194529519Y-73075185D01*
X194668900Y-72982053D01*
X194823772Y-72917903D01*
X194988184Y-72885200D01*
X195155816Y-72885200D01*
X195320228Y-72917903D01*
G37*
G36*
X243580228Y-72917903D02*
G01*
X243735100Y-72982053D01*
X243874481Y-73075185D01*
X243993015Y-73193719D01*
X244086147Y-73333100D01*
X244150297Y-73487972D01*
X244183000Y-73652384D01*
X244183000Y-73820016D01*
X244150297Y-73984428D01*
X244086147Y-74139300D01*
X243993015Y-74278681D01*
X243874481Y-74397215D01*
X243735100Y-74490347D01*
X243580228Y-74554497D01*
X243415816Y-74587200D01*
X243248184Y-74587200D01*
X243083772Y-74554497D01*
X242928900Y-74490347D01*
X242789519Y-74397215D01*
X242670985Y-74278681D01*
X242577853Y-74139300D01*
X242513703Y-73984428D01*
X242481000Y-73820016D01*
X242481000Y-73652384D01*
X242513703Y-73487972D01*
X242577853Y-73333100D01*
X242670985Y-73193719D01*
X242789519Y-73075185D01*
X242928900Y-72982053D01*
X243083772Y-72917903D01*
X243248184Y-72885200D01*
X243415816Y-72885200D01*
X243580228Y-72917903D01*
G37*
G36*
X216470394Y-71005355D02*
G01*
X216576750Y-71026511D01*
X216777120Y-71109507D01*
X216957444Y-71229995D01*
X217110805Y-71383356D01*
X217231293Y-71563680D01*
X217250155Y-71609217D01*
X217314289Y-71764050D01*
X217356600Y-71976761D01*
X217356600Y-72193639D01*
X217314289Y-72406350D01*
X217281488Y-72485539D01*
X217231293Y-72606720D01*
X217110805Y-72787044D01*
X216957444Y-72940405D01*
X216777120Y-73060893D01*
X216576750Y-73143889D01*
X216470395Y-73165044D01*
X216364040Y-73186200D01*
X216147160Y-73186200D01*
X216040805Y-73165044D01*
X215934450Y-73143889D01*
X215834266Y-73102391D01*
X215734080Y-73060893D01*
X215553756Y-72940405D01*
X215400395Y-72787044D01*
X215279907Y-72606720D01*
X215229712Y-72485539D01*
X215196911Y-72406350D01*
X215154600Y-72193639D01*
X215154600Y-71976761D01*
X215196911Y-71764050D01*
X215261045Y-71609217D01*
X215279907Y-71563680D01*
X215400395Y-71383356D01*
X215553756Y-71229995D01*
X215734080Y-71109507D01*
X215834266Y-71068009D01*
X215934450Y-71026511D01*
X216040805Y-71005356D01*
X216147160Y-70984200D01*
X216364040Y-70984200D01*
X216470394Y-71005355D01*
G37*
G36*
X201255794Y-71005355D02*
G01*
X201362150Y-71026511D01*
X201562520Y-71109507D01*
X201742844Y-71229995D01*
X201896205Y-71383356D01*
X202016693Y-71563680D01*
X202035555Y-71609217D01*
X202099689Y-71764050D01*
X202142000Y-71976761D01*
X202142000Y-72193639D01*
X202099689Y-72406350D01*
X202066888Y-72485539D01*
X202016693Y-72606720D01*
X201896205Y-72787044D01*
X201742844Y-72940405D01*
X201562520Y-73060893D01*
X201362150Y-73143889D01*
X201255795Y-73165044D01*
X201149440Y-73186200D01*
X200932560Y-73186200D01*
X200826205Y-73165044D01*
X200719850Y-73143889D01*
X200619666Y-73102391D01*
X200519480Y-73060893D01*
X200339156Y-72940405D01*
X200185795Y-72787044D01*
X200065307Y-72606720D01*
X200015112Y-72485539D01*
X199982311Y-72406350D01*
X199940000Y-72193639D01*
X199940000Y-71976761D01*
X199982311Y-71764050D01*
X200046445Y-71609217D01*
X200065307Y-71563680D01*
X200185795Y-71383356D01*
X200339156Y-71229995D01*
X200519480Y-71109507D01*
X200619666Y-71068009D01*
X200719850Y-71026511D01*
X200826205Y-71005356D01*
X200932560Y-70984200D01*
X201149440Y-70984200D01*
X201255794Y-71005355D01*
G37*
G36*
X207222000Y-73186200D02*
G01*
X205020000Y-73186200D01*
X205020000Y-70984200D01*
X207222000Y-70984200D01*
X207222000Y-73186200D01*
G37*
G36*
X203795794Y-71005355D02*
G01*
X203902150Y-71026511D01*
X204102520Y-71109507D01*
X204282844Y-71229995D01*
X204436205Y-71383356D01*
X204556693Y-71563680D01*
X204575555Y-71609217D01*
X204639689Y-71764050D01*
X204682000Y-71976761D01*
X204682000Y-72193639D01*
X204639689Y-72406350D01*
X204606888Y-72485539D01*
X204556693Y-72606720D01*
X204436205Y-72787044D01*
X204282844Y-72940405D01*
X204102520Y-73060893D01*
X203902150Y-73143889D01*
X203795795Y-73165044D01*
X203689440Y-73186200D01*
X203472560Y-73186200D01*
X203366205Y-73165044D01*
X203259850Y-73143889D01*
X203159666Y-73102391D01*
X203059480Y-73060893D01*
X202879156Y-72940405D01*
X202725795Y-72787044D01*
X202605307Y-72606720D01*
X202555112Y-72485539D01*
X202522311Y-72406350D01*
X202480000Y-72193639D01*
X202480000Y-71976761D01*
X202522311Y-71764050D01*
X202586445Y-71609217D01*
X202605307Y-71563680D01*
X202725795Y-71383356D01*
X202879156Y-71229995D01*
X203059480Y-71109507D01*
X203159666Y-71068009D01*
X203259850Y-71026511D01*
X203366205Y-71005356D01*
X203472560Y-70984200D01*
X203689440Y-70984200D01*
X203795794Y-71005355D01*
G37*
G36*
X219010394Y-71005355D02*
G01*
X219116750Y-71026511D01*
X219317120Y-71109507D01*
X219497444Y-71229995D01*
X219650805Y-71383356D01*
X219771293Y-71563680D01*
X219790155Y-71609217D01*
X219854289Y-71764050D01*
X219896600Y-71976761D01*
X219896600Y-72193639D01*
X219854289Y-72406350D01*
X219821488Y-72485539D01*
X219771293Y-72606720D01*
X219650805Y-72787044D01*
X219497444Y-72940405D01*
X219317120Y-73060893D01*
X219116750Y-73143889D01*
X219010395Y-73165044D01*
X218904040Y-73186200D01*
X218687160Y-73186200D01*
X218580805Y-73165044D01*
X218474450Y-73143889D01*
X218374266Y-73102391D01*
X218274080Y-73060893D01*
X218093756Y-72940405D01*
X217940395Y-72787044D01*
X217819907Y-72606720D01*
X217769712Y-72485539D01*
X217736911Y-72406350D01*
X217694600Y-72193639D01*
X217694600Y-71976761D01*
X217736911Y-71764050D01*
X217801045Y-71609217D01*
X217819907Y-71563680D01*
X217940395Y-71383356D01*
X218093756Y-71229995D01*
X218274080Y-71109507D01*
X218374266Y-71068009D01*
X218474450Y-71026511D01*
X218580805Y-71005356D01*
X218687160Y-70984200D01*
X218904040Y-70984200D01*
X219010394Y-71005355D01*
G37*
G36*
X222436600Y-73186200D02*
G01*
X220234600Y-73186200D01*
X220234600Y-70984200D01*
X222436600Y-70984200D01*
X222436600Y-73186200D01*
G37*
G36*
X234377394Y-71005355D02*
G01*
X234483750Y-71026511D01*
X234684120Y-71109507D01*
X234864444Y-71229995D01*
X235017805Y-71383356D01*
X235138293Y-71563680D01*
X235157155Y-71609217D01*
X235221289Y-71764050D01*
X235263600Y-71976761D01*
X235263600Y-72193639D01*
X235221289Y-72406350D01*
X235188488Y-72485539D01*
X235138293Y-72606720D01*
X235017805Y-72787044D01*
X234864444Y-72940405D01*
X234684120Y-73060893D01*
X234483750Y-73143889D01*
X234377395Y-73165044D01*
X234271040Y-73186200D01*
X234054160Y-73186200D01*
X233947805Y-73165044D01*
X233841450Y-73143889D01*
X233741266Y-73102391D01*
X233641080Y-73060893D01*
X233460756Y-72940405D01*
X233307395Y-72787044D01*
X233186907Y-72606720D01*
X233136712Y-72485539D01*
X233103911Y-72406350D01*
X233061600Y-72193639D01*
X233061600Y-71976761D01*
X233103911Y-71764050D01*
X233168045Y-71609217D01*
X233186907Y-71563680D01*
X233307395Y-71383356D01*
X233460756Y-71229995D01*
X233641080Y-71109507D01*
X233741266Y-71068009D01*
X233841450Y-71026511D01*
X233947805Y-71005356D01*
X234054160Y-70984200D01*
X234271040Y-70984200D01*
X234377394Y-71005355D01*
G37*
G36*
X237803600Y-73186200D02*
G01*
X235601600Y-73186200D01*
X235601600Y-70984200D01*
X237803600Y-70984200D01*
X237803600Y-73186200D01*
G37*
G36*
X212043674Y-71445665D02*
G01*
X212081367Y-71457099D01*
X212116103Y-71475666D01*
X212146548Y-71500652D01*
X212171534Y-71531097D01*
X212190101Y-71565833D01*
X212201535Y-71603526D01*
X212206000Y-71648861D01*
X212206000Y-72485539D01*
X212201535Y-72530874D01*
X212190101Y-72568567D01*
X212171534Y-72603303D01*
X212146548Y-72633748D01*
X212116103Y-72658734D01*
X212081367Y-72677301D01*
X212043674Y-72688735D01*
X211998339Y-72693200D01*
X210911661Y-72693200D01*
X210866326Y-72688735D01*
X210828633Y-72677301D01*
X210793897Y-72658734D01*
X210763452Y-72633748D01*
X210738466Y-72603303D01*
X210719899Y-72568567D01*
X210708465Y-72530874D01*
X210704000Y-72485539D01*
X210704000Y-71648861D01*
X210708465Y-71603526D01*
X210719899Y-71565833D01*
X210738466Y-71531097D01*
X210763452Y-71500652D01*
X210793897Y-71475666D01*
X210828633Y-71457099D01*
X210866326Y-71445665D01*
X210911661Y-71441200D01*
X211998339Y-71441200D01*
X212043674Y-71445665D01*
G37*
G36*
X243580228Y-70377903D02*
G01*
X243735100Y-70442053D01*
X243874481Y-70535185D01*
X243993015Y-70653719D01*
X244086147Y-70793100D01*
X244150297Y-70947972D01*
X244183000Y-71112384D01*
X244183000Y-71280016D01*
X244150297Y-71444428D01*
X244086147Y-71599300D01*
X243993015Y-71738681D01*
X243874481Y-71857215D01*
X243735100Y-71950347D01*
X243580228Y-72014497D01*
X243415816Y-72047200D01*
X243248184Y-72047200D01*
X243083772Y-72014497D01*
X242928900Y-71950347D01*
X242789519Y-71857215D01*
X242670985Y-71738681D01*
X242577853Y-71599300D01*
X242513703Y-71444428D01*
X242481000Y-71280016D01*
X242481000Y-71112384D01*
X242513703Y-70947972D01*
X242577853Y-70793100D01*
X242670985Y-70653719D01*
X242789519Y-70535185D01*
X242928900Y-70442053D01*
X243083772Y-70377903D01*
X243248184Y-70345200D01*
X243415816Y-70345200D01*
X243580228Y-70377903D01*
G37*
G36*
X195320228Y-70377903D02*
G01*
X195475100Y-70442053D01*
X195614481Y-70535185D01*
X195733015Y-70653719D01*
X195826147Y-70793100D01*
X195890297Y-70947972D01*
X195923000Y-71112384D01*
X195923000Y-71280016D01*
X195890297Y-71444428D01*
X195826147Y-71599300D01*
X195733015Y-71738681D01*
X195614481Y-71857215D01*
X195475100Y-71950347D01*
X195320228Y-72014497D01*
X195155816Y-72047200D01*
X194988184Y-72047200D01*
X194823772Y-72014497D01*
X194668900Y-71950347D01*
X194529519Y-71857215D01*
X194410985Y-71738681D01*
X194317853Y-71599300D01*
X194253703Y-71444428D01*
X194221000Y-71280016D01*
X194221000Y-71112384D01*
X194253703Y-70947972D01*
X194317853Y-70793100D01*
X194410985Y-70653719D01*
X194529519Y-70535185D01*
X194668900Y-70442053D01*
X194823772Y-70377903D01*
X194988184Y-70345200D01*
X195155816Y-70345200D01*
X195320228Y-70377903D01*
G37*
G36*
X243580228Y-67837903D02*
G01*
X243735100Y-67902053D01*
X243874481Y-67995185D01*
X243993015Y-68113719D01*
X244086147Y-68253100D01*
X244150297Y-68407972D01*
X244183000Y-68572384D01*
X244183000Y-68740016D01*
X244150297Y-68904428D01*
X244086147Y-69059300D01*
X243993015Y-69198681D01*
X243874481Y-69317215D01*
X243735100Y-69410347D01*
X243580228Y-69474497D01*
X243415816Y-69507200D01*
X243248184Y-69507200D01*
X243083772Y-69474497D01*
X242928900Y-69410347D01*
X242789519Y-69317215D01*
X242670985Y-69198681D01*
X242577853Y-69059300D01*
X242513703Y-68904428D01*
X242481000Y-68740016D01*
X242481000Y-68572384D01*
X242513703Y-68407972D01*
X242577853Y-68253100D01*
X242670985Y-68113719D01*
X242789519Y-67995185D01*
X242928900Y-67902053D01*
X243083772Y-67837903D01*
X243248184Y-67805200D01*
X243415816Y-67805200D01*
X243580228Y-67837903D01*
G37*
G36*
X195320228Y-67837903D02*
G01*
X195475100Y-67902053D01*
X195614481Y-67995185D01*
X195733015Y-68113719D01*
X195826147Y-68253100D01*
X195890297Y-68407972D01*
X195923000Y-68572384D01*
X195923000Y-68740016D01*
X195890297Y-68904428D01*
X195826147Y-69059300D01*
X195733015Y-69198681D01*
X195614481Y-69317215D01*
X195475100Y-69410347D01*
X195320228Y-69474497D01*
X195155816Y-69507200D01*
X194988184Y-69507200D01*
X194823772Y-69474497D01*
X194668900Y-69410347D01*
X194529519Y-69317215D01*
X194410985Y-69198681D01*
X194317853Y-69059300D01*
X194253703Y-68904428D01*
X194221000Y-68740016D01*
X194221000Y-68572384D01*
X194253703Y-68407972D01*
X194317853Y-68253100D01*
X194410985Y-68113719D01*
X194529519Y-67995185D01*
X194668900Y-67902053D01*
X194823772Y-67837903D01*
X194988184Y-67805200D01*
X195155816Y-67805200D01*
X195320228Y-67837903D01*
G37*
M02*
